<mxfile host="Electron" agent="Mozilla/5.0 (Windows NT 10.0; Win64; x64) AppleWebKit/537.36 (KHTML, like Gecko) draw.io/25.0.2 Chrome/128.0.6613.186 Electron/32.2.5 Safari/537.36" version="25.0.2">
  <diagram id="H3lMvGbhZpd5Ndb-k4yC" name="PÃ¡gina-1">
    <mxGraphModel dx="4609" dy="1489" grid="0" gridSize="10" guides="1" tooltips="1" connect="1" arrows="1" fold="1" page="1" pageScale="1" pageWidth="827" pageHeight="1169" background="#ffffff" math="0" shadow="0">
      <root>
        <mxCell id="0" />
        <mxCell id="1" parent="0" />
        <mxCell id="s2_W4ljT01zhnuVkcxhj-22" value="&lt;font color=&quot;#a680b8&quot; style=&quot;font-size: 15px;&quot;&gt;&lt;b style=&quot;&quot;&gt;Model&amp;nbsp;&lt;/b&gt;&lt;/font&gt;&lt;b style=&quot;font-size: 15px; background-color: initial;&quot;&gt;&lt;font color=&quot;#7ea6e0&quot;&gt;View&amp;nbsp;&lt;/font&gt;&lt;/b&gt;&lt;b style=&quot;font-size: 15px; background-color: initial;&quot;&gt;&lt;font color=&quot;#97d077&quot;&gt;Controller&lt;/font&gt;&lt;/b&gt;&lt;div&gt;&lt;font color=&quot;#ffffff&quot;&gt;Architecture&lt;/font&gt;&lt;/div&gt;" style="shape=note;size=0;whiteSpace=wrap;html=1;fillColor=#2B2B2B;gradientColor=default;" parent="1" vertex="1">
          <mxGeometry x="2950" y="2522" width="223" height="100" as="geometry" />
        </mxCell>
        <mxCell id="XUuc44zPP8oexQMlsgGl-1" value="&lt;i&gt;EnemyController&lt;/i&gt;" style="swimlane;fontStyle=1;align=center;verticalAlign=top;childLayout=stackLayout;horizontal=1;startSize=26;horizontalStack=0;resizeParent=1;resizeParentMax=0;resizeLast=0;collapsible=1;marginBottom=0;whiteSpace=wrap;html=1;fillColor=#d5e8d4;strokeColor=#82b366;" parent="1" vertex="1">
          <mxGeometry x="2125" y="1806" width="160" height="112" as="geometry" />
        </mxCell>
        <mxCell id="XUuc44zPP8oexQMlsgGl-2" value="# enemy: Enemy&lt;div&gt;&lt;br&gt;&lt;/div&gt;" style="text;strokeColor=none;fillColor=none;align=left;verticalAlign=top;spacingLeft=4;spacingRight=4;overflow=hidden;rotatable=0;points=[[0,0.5],[1,0.5]];portConstraint=eastwest;whiteSpace=wrap;html=1;" parent="XUuc44zPP8oexQMlsgGl-1" vertex="1">
          <mxGeometry y="26" width="160" height="26" as="geometry" />
        </mxCell>
        <mxCell id="XUuc44zPP8oexQMlsgGl-5" value="# scene: Scene" style="text;strokeColor=none;fillColor=none;align=left;verticalAlign=top;spacingLeft=4;spacingRight=4;overflow=hidden;rotatable=0;points=[[0,0.5],[1,0.5]];portConstraint=eastwest;whiteSpace=wrap;html=1;" parent="XUuc44zPP8oexQMlsgGl-1" vertex="1">
          <mxGeometry y="52" width="160" height="26" as="geometry" />
        </mxCell>
        <mxCell id="XUuc44zPP8oexQMlsgGl-3" value="" style="line;strokeWidth=1;fillColor=none;align=left;verticalAlign=middle;spacingTop=-1;spacingLeft=3;spacingRight=3;rotatable=0;labelPosition=right;points=[];portConstraint=eastwest;strokeColor=inherit;" parent="XUuc44zPP8oexQMlsgGl-1" vertex="1">
          <mxGeometry y="78" width="160" height="8" as="geometry" />
        </mxCell>
        <mxCell id="XUuc44zPP8oexQMlsgGl-4" value="+ &lt;i&gt;move&lt;/i&gt;(): void" style="text;strokeColor=none;fillColor=none;align=left;verticalAlign=top;spacingLeft=4;spacingRight=4;overflow=hidden;rotatable=0;points=[[0,0.5],[1,0.5]];portConstraint=eastwest;whiteSpace=wrap;html=1;" parent="XUuc44zPP8oexQMlsgGl-1" vertex="1">
          <mxGeometry y="86" width="160" height="26" as="geometry" />
        </mxCell>
        <mxCell id="XUuc44zPP8oexQMlsgGl-6" value="FloatingEnemyController" style="swimlane;fontStyle=1;align=center;verticalAlign=top;childLayout=stackLayout;horizontal=1;startSize=26;horizontalStack=0;resizeParent=1;resizeParentMax=0;resizeLast=0;collapsible=1;marginBottom=0;whiteSpace=wrap;html=1;fillColor=#d5e8d4;strokeColor=#82b366;" parent="1" vertex="1">
          <mxGeometry x="2030" y="1968" width="269" height="190" as="geometry" />
        </mxCell>
        <mxCell id="XUuc44zPP8oexQMlsgGl-7" value="&lt;div&gt;- lastMoveTime: long&lt;/div&gt;" style="text;strokeColor=none;fillColor=none;align=left;verticalAlign=top;spacingLeft=4;spacingRight=4;overflow=hidden;rotatable=0;points=[[0,0.5],[1,0.5]];portConstraint=eastwest;whiteSpace=wrap;html=1;" parent="XUuc44zPP8oexQMlsgGl-6" vertex="1">
          <mxGeometry y="26" width="269" height="26" as="geometry" />
        </mxCell>
        <mxCell id="XUuc44zPP8oexQMlsgGl-8" value="- moveCooldown: long" style="text;strokeColor=none;fillColor=none;align=left;verticalAlign=top;spacingLeft=4;spacingRight=4;overflow=hidden;rotatable=0;points=[[0,0.5],[1,0.5]];portConstraint=eastwest;whiteSpace=wrap;html=1;" parent="XUuc44zPP8oexQMlsgGl-6" vertex="1">
          <mxGeometry y="52" width="269" height="26" as="geometry" />
        </mxCell>
        <mxCell id="XUuc44zPP8oexQMlsgGl-9" value="" style="line;strokeWidth=1;fillColor=none;align=left;verticalAlign=middle;spacingTop=-1;spacingLeft=3;spacingRight=3;rotatable=0;labelPosition=right;points=[];portConstraint=eastwest;strokeColor=inherit;" parent="XUuc44zPP8oexQMlsgGl-6" vertex="1">
          <mxGeometry y="78" width="269" height="8" as="geometry" />
        </mxCell>
        <mxCell id="XUuc44zPP8oexQMlsgGl-29" value="+ move(): void" style="text;strokeColor=none;fillColor=none;align=left;verticalAlign=top;spacingLeft=4;spacingRight=4;overflow=hidden;rotatable=0;points=[[0,0.5],[1,0.5]];portConstraint=eastwest;whiteSpace=wrap;html=1;" parent="XUuc44zPP8oexQMlsgGl-6" vertex="1">
          <mxGeometry y="86" width="269" height="26" as="geometry" />
        </mxCell>
        <mxCell id="XUuc44zPP8oexQMlsgGl-10" value="- calculateDirection(Vector, Vector): Vector" style="text;strokeColor=none;fillColor=none;align=left;verticalAlign=top;spacingLeft=4;spacingRight=4;overflow=hidden;rotatable=0;points=[[0,0.5],[1,0.5]];portConstraint=eastwest;whiteSpace=wrap;html=1;" parent="XUuc44zPP8oexQMlsgGl-6" vertex="1">
          <mxGeometry y="112" width="269" height="26" as="geometry" />
        </mxCell>
        <mxCell id="XUuc44zPP8oexQMlsgGl-11" value="- determineNextPosition(Vector, Vector): Vector" style="text;strokeColor=none;fillColor=none;align=left;verticalAlign=top;spacingLeft=4;spacingRight=4;overflow=hidden;rotatable=0;points=[[0,0.5],[1,0.5]];portConstraint=eastwest;whiteSpace=wrap;html=1;" parent="XUuc44zPP8oexQMlsgGl-6" vertex="1">
          <mxGeometry y="138" width="269" height="26" as="geometry" />
        </mxCell>
        <mxCell id="XUuc44zPP8oexQMlsgGl-12" value="- canMoveTo(Vector): boolean" style="text;strokeColor=none;fillColor=none;align=left;verticalAlign=top;spacingLeft=4;spacingRight=4;overflow=hidden;rotatable=0;points=[[0,0.5],[1,0.5]];portConstraint=eastwest;whiteSpace=wrap;html=1;" parent="XUuc44zPP8oexQMlsgGl-6" vertex="1">
          <mxGeometry y="164" width="269" height="26" as="geometry" />
        </mxCell>
        <mxCell id="XUuc44zPP8oexQMlsgGl-17" value="PlayerController" style="swimlane;fontStyle=1;align=center;verticalAlign=top;childLayout=stackLayout;horizontal=1;startSize=26;horizontalStack=0;resizeParent=1;resizeParentMax=0;resizeLast=0;collapsible=1;marginBottom=0;whiteSpace=wrap;html=1;fillColor=#d5e8d4;strokeColor=#82b366;" parent="1" vertex="1">
          <mxGeometry x="729" y="2171" width="346" height="216" as="geometry" />
        </mxCell>
        <mxCell id="XUuc44zPP8oexQMlsgGl-18" value="&lt;div&gt;- MOVE_LEFT_KEYS: int[]&lt;/div&gt;" style="text;strokeColor=none;fillColor=none;align=left;verticalAlign=top;spacingLeft=4;spacingRight=4;overflow=hidden;rotatable=0;points=[[0,0.5],[1,0.5]];portConstraint=eastwest;whiteSpace=wrap;html=1;" parent="XUuc44zPP8oexQMlsgGl-17" vertex="1">
          <mxGeometry y="26" width="346" height="26" as="geometry" />
        </mxCell>
        <mxCell id="XUuc44zPP8oexQMlsgGl-19" value="- MOVE_RIGHT_KEYS: int[]" style="text;strokeColor=none;fillColor=none;align=left;verticalAlign=top;spacingLeft=4;spacingRight=4;overflow=hidden;rotatable=0;points=[[0,0.5],[1,0.5]];portConstraint=eastwest;whiteSpace=wrap;html=1;" parent="XUuc44zPP8oexQMlsgGl-17" vertex="1">
          <mxGeometry y="52" width="346" height="26" as="geometry" />
        </mxCell>
        <mxCell id="XUuc44zPP8oexQMlsgGl-20" value="" style="line;strokeWidth=1;fillColor=none;align=left;verticalAlign=middle;spacingTop=-1;spacingLeft=3;spacingRight=3;rotatable=0;labelPosition=right;points=[];portConstraint=eastwest;strokeColor=inherit;" parent="XUuc44zPP8oexQMlsgGl-17" vertex="1">
          <mxGeometry y="78" width="346" height="8" as="geometry" />
        </mxCell>
        <mxCell id="XUuc44zPP8oexQMlsgGl-35" value="+ step(Game, keys: Set&amp;lt;Integer&amp;gt;, time : long) : void" style="text;strokeColor=none;fillColor=none;align=left;verticalAlign=top;spacingLeft=4;spacingRight=4;overflow=hidden;rotatable=0;points=[[0,0.5],[1,0.5]];portConstraint=eastwest;whiteSpace=wrap;html=1;" parent="XUuc44zPP8oexQMlsgGl-17" vertex="1">
          <mxGeometry y="86" width="346" height="26" as="geometry" />
        </mxCell>
        <mxCell id="XUuc44zPP8oexQMlsgGl-21" value="- containsAnyKey(keys : Set&amp;lt;Integer&amp;gt;, time : long): boolean" style="text;strokeColor=none;fillColor=none;align=left;verticalAlign=top;spacingLeft=4;spacingRight=4;overflow=hidden;rotatable=0;points=[[0,0.5],[1,0.5]];portConstraint=eastwest;whiteSpace=wrap;html=1;" parent="XUuc44zPP8oexQMlsgGl-17" vertex="1">
          <mxGeometry y="112" width="346" height="26" as="geometry" />
        </mxCell>
        <mxCell id="XUuc44zPP8oexQMlsgGl-22" value="- updateGroundState(Player): void" style="text;strokeColor=none;fillColor=none;align=left;verticalAlign=top;spacingLeft=4;spacingRight=4;overflow=hidden;rotatable=0;points=[[0,0.5],[1,0.5]];portConstraint=eastwest;whiteSpace=wrap;html=1;" parent="XUuc44zPP8oexQMlsgGl-17" vertex="1">
          <mxGeometry y="138" width="346" height="26" as="geometry" />
        </mxCell>
        <mxCell id="XUuc44zPP8oexQMlsgGl-23" value="- collectCoin(Player, Coin): void" style="text;strokeColor=none;fillColor=none;align=left;verticalAlign=top;spacingLeft=4;spacingRight=4;overflow=hidden;rotatable=0;points=[[0,0.5],[1,0.5]];portConstraint=eastwest;whiteSpace=wrap;html=1;" parent="XUuc44zPP8oexQMlsgGl-17" vertex="1">
          <mxGeometry y="164" width="346" height="26" as="geometry" />
        </mxCell>
        <mxCell id="XUuc44zPP8oexQMlsgGl-24" value="- handleEnemyCollision(Player, enemy : Element): void" style="text;strokeColor=none;fillColor=none;align=left;verticalAlign=top;spacingLeft=4;spacingRight=4;overflow=hidden;rotatable=0;points=[[0,0.5],[1,0.5]];portConstraint=eastwest;whiteSpace=wrap;html=1;" parent="XUuc44zPP8oexQMlsgGl-17" vertex="1">
          <mxGeometry y="190" width="346" height="26" as="geometry" />
        </mxCell>
        <mxCell id="XUuc44zPP8oexQMlsgGl-30" value="&lt;b&gt;GroundedEnemyController&lt;/b&gt;" style="swimlane;fontStyle=1;align=center;verticalAlign=top;childLayout=stackLayout;horizontal=1;startSize=26;horizontalStack=0;resizeParent=1;resizeParentMax=0;resizeLast=0;collapsible=1;marginBottom=0;whiteSpace=wrap;html=1;fillColor=#d5e8d4;strokeColor=#82b366;" parent="1" vertex="1">
          <mxGeometry x="2317" y="1968" width="169" height="112" as="geometry" />
        </mxCell>
        <mxCell id="XUuc44zPP8oexQMlsgGl-31" value="- lastMoveTime: long" style="text;strokeColor=none;fillColor=none;align=left;verticalAlign=top;spacingLeft=4;spacingRight=4;overflow=hidden;rotatable=0;points=[[0,0.5],[1,0.5]];portConstraint=eastwest;whiteSpace=wrap;html=1;" parent="XUuc44zPP8oexQMlsgGl-30" vertex="1">
          <mxGeometry y="26" width="169" height="26" as="geometry" />
        </mxCell>
        <mxCell id="XUuc44zPP8oexQMlsgGl-34" value="- direction: int" style="text;strokeColor=none;fillColor=none;align=left;verticalAlign=top;spacingLeft=4;spacingRight=4;overflow=hidden;rotatable=0;points=[[0,0.5],[1,0.5]];portConstraint=eastwest;whiteSpace=wrap;html=1;" parent="XUuc44zPP8oexQMlsgGl-30" vertex="1">
          <mxGeometry y="52" width="169" height="26" as="geometry" />
        </mxCell>
        <mxCell id="XUuc44zPP8oexQMlsgGl-32" value="" style="line;strokeWidth=1;fillColor=none;align=left;verticalAlign=middle;spacingTop=-1;spacingLeft=3;spacingRight=3;rotatable=0;labelPosition=right;points=[];portConstraint=eastwest;strokeColor=inherit;" parent="XUuc44zPP8oexQMlsgGl-30" vertex="1">
          <mxGeometry y="78" width="169" height="8" as="geometry" />
        </mxCell>
        <mxCell id="XUuc44zPP8oexQMlsgGl-33" value="+ move(): void" style="text;strokeColor=none;fillColor=none;align=left;verticalAlign=top;spacingLeft=4;spacingRight=4;overflow=hidden;rotatable=0;points=[[0,0.5],[1,0.5]];portConstraint=eastwest;whiteSpace=wrap;html=1;" parent="XUuc44zPP8oexQMlsgGl-30" vertex="1">
          <mxGeometry y="86" width="169" height="26" as="geometry" />
        </mxCell>
        <mxCell id="XUuc44zPP8oexQMlsgGl-36" value="SceneController" style="swimlane;fontStyle=1;align=center;verticalAlign=top;childLayout=stackLayout;horizontal=1;startSize=26;horizontalStack=0;resizeParent=1;resizeParentMax=0;resizeLast=0;collapsible=1;marginBottom=0;whiteSpace=wrap;html=1;fillColor=#d5e8d4;strokeColor=#82b366;" parent="1" vertex="1">
          <mxGeometry x="538" y="2051" width="289" height="86" as="geometry" />
        </mxCell>
        <mxCell id="XUuc44zPP8oexQMlsgGl-37" value="- playerController: PlayerController" style="text;strokeColor=none;fillColor=none;align=left;verticalAlign=top;spacingLeft=4;spacingRight=4;overflow=hidden;rotatable=0;points=[[0,0.5],[1,0.5]];portConstraint=eastwest;whiteSpace=wrap;html=1;" parent="XUuc44zPP8oexQMlsgGl-36" vertex="1">
          <mxGeometry y="26" width="289" height="26" as="geometry" />
        </mxCell>
        <mxCell id="XUuc44zPP8oexQMlsgGl-38" value="" style="line;strokeWidth=1;fillColor=none;align=left;verticalAlign=middle;spacingTop=-1;spacingLeft=3;spacingRight=3;rotatable=0;labelPosition=right;points=[];portConstraint=eastwest;strokeColor=inherit;" parent="XUuc44zPP8oexQMlsgGl-36" vertex="1">
          <mxGeometry y="52" width="289" height="8" as="geometry" />
        </mxCell>
        <mxCell id="XUuc44zPP8oexQMlsgGl-39" value="+ step(Game, keys: Set&amp;lt;Integer&amp;gt;, time : long) : void" style="text;strokeColor=none;fillColor=none;align=left;verticalAlign=top;spacingLeft=4;spacingRight=4;overflow=hidden;rotatable=0;points=[[0,0.5],[1,0.5]];portConstraint=eastwest;whiteSpace=wrap;html=1;" parent="XUuc44zPP8oexQMlsgGl-36" vertex="1">
          <mxGeometry y="60" width="289" height="26" as="geometry" />
        </mxCell>
        <mxCell id="XUuc44zPP8oexQMlsgGl-40" value="&lt;i&gt;Controller&amp;lt;T&amp;gt;&lt;/i&gt;" style="swimlane;fontStyle=1;align=center;verticalAlign=top;childLayout=stackLayout;horizontal=1;startSize=26;horizontalStack=0;resizeParent=1;resizeParentMax=0;resizeLast=0;collapsible=1;marginBottom=0;whiteSpace=wrap;html=1;fillColor=#d5e8d4;strokeColor=#82b366;" parent="1" vertex="1">
          <mxGeometry x="372" y="1885" width="291" height="112" as="geometry" />
        </mxCell>
        <mxCell id="XUuc44zPP8oexQMlsgGl-41" value="- model : T" style="text;strokeColor=none;fillColor=none;align=left;verticalAlign=top;spacingLeft=4;spacingRight=4;overflow=hidden;rotatable=0;points=[[0,0.5],[1,0.5]];portConstraint=eastwest;whiteSpace=wrap;html=1;" parent="XUuc44zPP8oexQMlsgGl-40" vertex="1">
          <mxGeometry y="26" width="291" height="26" as="geometry" />
        </mxCell>
        <mxCell id="XUuc44zPP8oexQMlsgGl-42" value="" style="line;strokeWidth=1;fillColor=none;align=left;verticalAlign=middle;spacingTop=-1;spacingLeft=3;spacingRight=3;rotatable=0;labelPosition=right;points=[];portConstraint=eastwest;strokeColor=inherit;" parent="XUuc44zPP8oexQMlsgGl-40" vertex="1">
          <mxGeometry y="52" width="291" height="8" as="geometry" />
        </mxCell>
        <mxCell id="XUuc44zPP8oexQMlsgGl-43" value="+ getModel(): T" style="text;strokeColor=none;fillColor=none;align=left;verticalAlign=top;spacingLeft=4;spacingRight=4;overflow=hidden;rotatable=0;points=[[0,0.5],[1,0.5]];portConstraint=eastwest;whiteSpace=wrap;html=1;" parent="XUuc44zPP8oexQMlsgGl-40" vertex="1">
          <mxGeometry y="60" width="291" height="26" as="geometry" />
        </mxCell>
        <mxCell id="XUuc44zPP8oexQMlsgGl-44" value="+ &lt;i&gt;step&lt;/i&gt;(Game, keys: Set&amp;lt;Integer&amp;gt;, time : long) : void" style="text;strokeColor=none;fillColor=none;align=left;verticalAlign=top;spacingLeft=4;spacingRight=4;overflow=hidden;rotatable=0;points=[[0,0.5],[1,0.5]];portConstraint=eastwest;whiteSpace=wrap;html=1;" parent="XUuc44zPP8oexQMlsgGl-40" vertex="1">
          <mxGeometry y="86" width="291" height="26" as="geometry" />
        </mxCell>
        <mxCell id="XUuc44zPP8oexQMlsgGl-269" style="edgeStyle=orthogonalEdgeStyle;rounded=0;orthogonalLoop=1;jettySize=auto;html=1;entryX=0.5;entryY=1;entryDx=0;entryDy=0;endArrow=block;endFill=0;endSize=13;" parent="1" edge="1">
          <mxGeometry relative="1" as="geometry">
            <mxPoint x="517" y="2031" as="sourcePoint" />
            <mxPoint x="517.0999999999999" y="1997" as="targetPoint" />
          </mxGeometry>
        </mxCell>
        <mxCell id="XUuc44zPP8oexQMlsgGl-45" value="&lt;i&gt;MenuController&amp;lt;T extends Menu&amp;gt;&lt;/i&gt;" style="swimlane;fontStyle=1;align=center;verticalAlign=top;childLayout=stackLayout;horizontal=1;startSize=26;horizontalStack=0;resizeParent=1;resizeParentMax=0;resizeLast=0;collapsible=1;marginBottom=0;whiteSpace=wrap;html=1;fillColor=#d5e8d4;strokeColor=#82b366;" parent="1" vertex="1">
          <mxGeometry x="278" y="2051" width="216" height="52" as="geometry" />
        </mxCell>
        <mxCell id="XUuc44zPP8oexQMlsgGl-50" value="PauseMenuController" style="swimlane;fontStyle=1;align=center;verticalAlign=top;childLayout=stackLayout;horizontal=1;startSize=26;horizontalStack=0;resizeParent=1;resizeParentMax=0;resizeLast=0;collapsible=1;marginBottom=0;whiteSpace=wrap;html=1;fillColor=#d5e8d4;strokeColor=#82b366;" parent="1" vertex="1">
          <mxGeometry x="66" y="2204" width="291" height="52" as="geometry" />
        </mxCell>
        <mxCell id="XUuc44zPP8oexQMlsgGl-54" value="+&amp;nbsp;&lt;i&gt;step&lt;/i&gt;(Game, keys: Set&amp;lt;Integer&amp;gt;, time : long) : void" style="text;strokeColor=none;fillColor=none;align=left;verticalAlign=top;spacingLeft=4;spacingRight=4;overflow=hidden;rotatable=0;points=[[0,0.5],[1,0.5]];portConstraint=eastwest;whiteSpace=wrap;html=1;" parent="XUuc44zPP8oexQMlsgGl-50" vertex="1">
          <mxGeometry y="26" width="291" height="26" as="geometry" />
        </mxCell>
        <mxCell id="XUuc44zPP8oexQMlsgGl-56" value="StartMenuController" style="swimlane;fontStyle=1;align=center;verticalAlign=top;childLayout=stackLayout;horizontal=1;startSize=26;horizontalStack=0;resizeParent=1;resizeParentMax=0;resizeLast=0;collapsible=1;marginBottom=0;whiteSpace=wrap;html=1;fillColor=#d5e8d4;strokeColor=#82b366;" parent="1" vertex="1">
          <mxGeometry x="415" y="2204" width="291" height="52" as="geometry" />
        </mxCell>
        <mxCell id="XUuc44zPP8oexQMlsgGl-57" value="+&amp;nbsp;&lt;i&gt;step&lt;/i&gt;(Game, keys: Set&amp;lt;Integer&amp;gt;, time : long) : void" style="text;strokeColor=none;fillColor=none;align=left;verticalAlign=top;spacingLeft=4;spacingRight=4;overflow=hidden;rotatable=0;points=[[0,0.5],[1,0.5]];portConstraint=eastwest;whiteSpace=wrap;html=1;" parent="XUuc44zPP8oexQMlsgGl-56" vertex="1">
          <mxGeometry y="26" width="291" height="26" as="geometry" />
        </mxCell>
        <mxCell id="XUuc44zPP8oexQMlsgGl-60" value="GameOverMenuController" style="swimlane;fontStyle=1;align=center;verticalAlign=top;childLayout=stackLayout;horizontal=1;startSize=26;horizontalStack=0;resizeParent=1;resizeParentMax=0;resizeLast=0;collapsible=1;marginBottom=0;whiteSpace=wrap;html=1;fillColor=#d5e8d4;strokeColor=#82b366;" parent="1" vertex="1">
          <mxGeometry x="240.5" y="2265" width="291" height="190" as="geometry" />
        </mxCell>
        <mxCell id="XUuc44zPP8oexQMlsgGl-61" value="+ HIGHSCORE_FILE: String" style="text;strokeColor=none;fillColor=none;align=left;verticalAlign=top;spacingLeft=4;spacingRight=4;overflow=hidden;rotatable=0;points=[[0,0.5],[1,0.5]];portConstraint=eastwest;whiteSpace=wrap;html=1;" parent="XUuc44zPP8oexQMlsgGl-60" vertex="1">
          <mxGeometry y="26" width="291" height="26" as="geometry" />
        </mxCell>
        <mxCell id="XUuc44zPP8oexQMlsgGl-65" value="- currentScore: int" style="text;strokeColor=none;fillColor=none;align=left;verticalAlign=top;spacingLeft=4;spacingRight=4;overflow=hidden;rotatable=0;points=[[0,0.5],[1,0.5]];portConstraint=eastwest;whiteSpace=wrap;html=1;" parent="XUuc44zPP8oexQMlsgGl-60" vertex="1">
          <mxGeometry y="52" width="291" height="26" as="geometry" />
        </mxCell>
        <mxCell id="XUuc44zPP8oexQMlsgGl-62" value="" style="line;strokeWidth=1;fillColor=none;align=left;verticalAlign=middle;spacingTop=-1;spacingLeft=3;spacingRight=3;rotatable=0;labelPosition=right;points=[];portConstraint=eastwest;strokeColor=inherit;" parent="XUuc44zPP8oexQMlsgGl-60" vertex="1">
          <mxGeometry y="78" width="291" height="8" as="geometry" />
        </mxCell>
        <mxCell id="XUuc44zPP8oexQMlsgGl-64" value="+ &lt;i&gt;step&lt;/i&gt;(Game, keys: Set&amp;lt;Integer&amp;gt;, time : long) : void" style="text;strokeColor=none;fillColor=none;align=left;verticalAlign=top;spacingLeft=4;spacingRight=4;overflow=hidden;rotatable=0;points=[[0,0.5],[1,0.5]];portConstraint=eastwest;whiteSpace=wrap;html=1;" parent="XUuc44zPP8oexQMlsgGl-60" vertex="1">
          <mxGeometry y="86" width="291" height="26" as="geometry" />
        </mxCell>
        <mxCell id="XUuc44zPP8oexQMlsgGl-68" value="- checkAndUpdateHighScore() : void" style="text;strokeColor=none;fillColor=none;align=left;verticalAlign=top;spacingLeft=4;spacingRight=4;overflow=hidden;rotatable=0;points=[[0,0.5],[1,0.5]];portConstraint=eastwest;whiteSpace=wrap;html=1;" parent="XUuc44zPP8oexQMlsgGl-60" vertex="1">
          <mxGeometry y="112" width="291" height="26" as="geometry" />
        </mxCell>
        <mxCell id="XUuc44zPP8oexQMlsgGl-67" value="- saveHighScore(score : int) : void" style="text;strokeColor=none;fillColor=none;align=left;verticalAlign=top;spacingLeft=4;spacingRight=4;overflow=hidden;rotatable=0;points=[[0,0.5],[1,0.5]];portConstraint=eastwest;whiteSpace=wrap;html=1;" parent="XUuc44zPP8oexQMlsgGl-60" vertex="1">
          <mxGeometry y="138" width="291" height="26" as="geometry" />
        </mxCell>
        <mxCell id="XUuc44zPP8oexQMlsgGl-66" value="- loadHighScore() : int" style="text;strokeColor=none;fillColor=none;align=left;verticalAlign=top;spacingLeft=4;spacingRight=4;overflow=hidden;rotatable=0;points=[[0,0.5],[1,0.5]];portConstraint=eastwest;whiteSpace=wrap;html=1;" parent="XUuc44zPP8oexQMlsgGl-60" vertex="1">
          <mxGeometry y="164" width="291" height="26" as="geometry" />
        </mxCell>
        <mxCell id="XUuc44zPP8oexQMlsgGl-69" value="SoundController" style="swimlane;fontStyle=1;align=center;verticalAlign=top;childLayout=stackLayout;horizontal=1;startSize=26;horizontalStack=0;resizeParent=1;resizeParentMax=0;resizeLast=0;collapsible=1;marginBottom=0;whiteSpace=wrap;html=1;fillColor=#d5e8d4;strokeColor=#82b366;" parent="1" vertex="1">
          <mxGeometry x="1299" y="2599" width="307" height="484" as="geometry" />
        </mxCell>
        <mxCell id="XUuc44zPP8oexQMlsgGl-70" value="&lt;span class=&quot;hljs-bullet&quot;&gt;-&lt;/span&gt; soundController: SoundController&lt;br/&gt;&lt;span class=&quot;hljs-bullet&quot;&gt;-&lt;/span&gt; menuMusic: Sound&lt;br/&gt;&lt;span class=&quot;hljs-bullet&quot;&gt;-&lt;/span&gt; backgroundMusic: Sound&lt;br/&gt;&lt;span class=&quot;hljs-bullet&quot;&gt;-&lt;/span&gt; bullet: Sound&lt;br/&gt;&lt;span class=&quot;hljs-bullet&quot;&gt;-&lt;/span&gt; enemyDeath: Sound&lt;br/&gt;&lt;span class=&quot;hljs-bullet&quot;&gt;-&lt;/span&gt; playerDeath: Sound&lt;br/&gt;&lt;span class=&quot;hljs-bullet&quot;&gt;-&lt;/span&gt; playerDamage: Sound&lt;br/&gt;&lt;span class=&quot;hljs-bullet&quot;&gt;-&lt;/span&gt; ding: Sound&lt;br/&gt;&lt;span class=&quot;hljs-bullet&quot;&gt;-&lt;/span&gt; jump: Sound&lt;br/&gt;&lt;span class=&quot;hljs-bullet&quot;&gt;-&lt;/span&gt; menuMove: Sound&lt;br/&gt;&lt;span class=&quot;hljs-bullet&quot;&gt;-&lt;/span&gt; menuSelect: Sound&lt;br/&gt;&lt;span class=&quot;hljs-bullet&quot;&gt;-&lt;/span&gt; coin: Sound&lt;br/&gt;&lt;span class=&quot;hljs-bullet&quot;&gt;-&lt;/span&gt; collectible: Sound" style="text;strokeColor=none;fillColor=none;align=left;verticalAlign=top;spacingLeft=4;spacingRight=4;overflow=hidden;rotatable=0;points=[[0,0.5],[1,0.5]];portConstraint=eastwest;whiteSpace=wrap;html=1;" parent="XUuc44zPP8oexQMlsgGl-69" vertex="1">
          <mxGeometry y="26" width="307" height="194" as="geometry" />
        </mxCell>
        <mxCell id="XUuc44zPP8oexQMlsgGl-71" value="" style="line;strokeWidth=1;fillColor=none;align=left;verticalAlign=middle;spacingTop=-1;spacingLeft=3;spacingRight=3;rotatable=0;labelPosition=right;points=[];portConstraint=eastwest;strokeColor=inherit;" parent="XUuc44zPP8oexQMlsgGl-69" vertex="1">
          <mxGeometry y="220" width="307" height="8" as="geometry" />
        </mxCell>
        <mxCell id="XUuc44zPP8oexQMlsgGl-72" value="&lt;span class=&quot;hljs-bullet&quot;&gt;+&lt;/span&gt; getInstance(): SoundController&lt;br/&gt;&lt;span class=&quot;hljs-bullet&quot;&gt;+&lt;/span&gt; playSound(option: SoundOption): void&lt;br/&gt;&lt;span class=&quot;hljs-bullet&quot;&gt;+&lt;/span&gt; stopSound(option: SoundOption): void&lt;br/&gt;&lt;span class=&quot;hljs-bullet&quot;&gt;+&lt;/span&gt; resumePlayingMusic(): void&lt;br/&gt;&lt;span class=&quot;hljs-bullet&quot;&gt;+&lt;/span&gt; stopAllSounds(): void&lt;br/&gt;&lt;span class=&quot;hljs-bullet&quot;&gt;+&lt;/span&gt; setMenuMusic(menuMusic: Sound): void&lt;br/&gt;&lt;span class=&quot;hljs-bullet&quot;&gt;+&lt;/span&gt; setBackgroundMusic(backgroundMusic: Sound): void&lt;br/&gt;&lt;span class=&quot;hljs-bullet&quot;&gt;+&lt;/span&gt; setBullet(bullet: Sound): void&lt;br/&gt;&lt;span class=&quot;hljs-bullet&quot;&gt;+&lt;/span&gt; setEnemyDeath(enemyDeath: Sound): void&lt;br/&gt;&lt;span class=&quot;hljs-bullet&quot;&gt;+&lt;/span&gt; setPlayerDeath(playerDeath: Sound): void&lt;br/&gt;&lt;span class=&quot;hljs-bullet&quot;&gt;+&lt;/span&gt; setPlayerDamage(playerDamage: Sound): void&lt;br/&gt;&lt;span class=&quot;hljs-bullet&quot;&gt;+&lt;/span&gt; setDing(ding: Sound): void&lt;br/&gt;&lt;span class=&quot;hljs-bullet&quot;&gt;+&lt;/span&gt; setJump(jump: Sound): void&lt;br/&gt;&lt;span class=&quot;hljs-bullet&quot;&gt;+&lt;/span&gt; setMenuMove(menuMove: Sound): void&lt;br/&gt;&lt;span class=&quot;hljs-bullet&quot;&gt;+&lt;/span&gt; setMenuSelect(menuSelect: Sound): void&lt;br/&gt;&lt;span class=&quot;hljs-bullet&quot;&gt;+&lt;/span&gt; setCoin(coin: Sound): void&lt;br/&gt;&lt;span class=&quot;hljs-bullet&quot;&gt;+&lt;/span&gt; setCollectible(collectible: Sound): void" style="text;strokeColor=none;fillColor=none;align=left;verticalAlign=top;spacingLeft=4;spacingRight=4;overflow=hidden;rotatable=0;points=[[0,0.5],[1,0.5]];portConstraint=eastwest;whiteSpace=wrap;html=1;" parent="XUuc44zPP8oexQMlsgGl-69" vertex="1">
          <mxGeometry y="228" width="307" height="256" as="geometry" />
        </mxCell>
        <mxCell id="qzSVktUEmLmq_NJ0nI1a-3" style="edgeStyle=orthogonalEdgeStyle;rounded=0;orthogonalLoop=1;jettySize=auto;html=1;exitX=1;exitY=0.5;exitDx=0;exitDy=0;entryX=1.003;entryY=0.823;entryDx=0;entryDy=0;entryPerimeter=0;endArrow=open;endFill=0;" parent="XUuc44zPP8oexQMlsgGl-69" source="XUuc44zPP8oexQMlsgGl-70" target="XUuc44zPP8oexQMlsgGl-70" edge="1">
          <mxGeometry relative="1" as="geometry" />
        </mxCell>
        <mxCell id="XUuc44zPP8oexQMlsgGl-73" value="&lt;b&gt;LanternaGUI&lt;/b&gt;" style="swimlane;fontStyle=0;childLayout=stackLayout;horizontal=1;startSize=30;horizontalStack=0;resizeParent=1;resizeParentMax=0;resizeLast=0;collapsible=1;marginBottom=0;whiteSpace=wrap;html=1;fillColor=#bac8d3;strokeColor=#23445d;" parent="1" vertex="1">
          <mxGeometry x="1119" y="1372" width="499" height="245" as="geometry" />
        </mxCell>
        <mxCell id="XUuc44zPP8oexQMlsgGl-74" value="- screen : Screen&lt;div&gt;- activeKeys : Set&amp;lt;Integer&amp;gt;&lt;/div&gt;" style="text;align=left;verticalAlign=middle;spacingLeft=4;spacingRight=4;overflow=hidden;points=[[0,0.5],[1,0.5]];portConstraint=eastwest;rotatable=0;whiteSpace=wrap;html=1;" parent="XUuc44zPP8oexQMlsgGl-73" vertex="1">
          <mxGeometry y="30" width="499" height="40" as="geometry" />
        </mxCell>
        <mxCell id="XUuc44zPP8oexQMlsgGl-139" value="" style="line;strokeWidth=1;fillColor=none;align=left;verticalAlign=middle;spacingTop=-1;spacingLeft=3;spacingRight=3;rotatable=0;labelPosition=right;points=[];portConstraint=eastwest;strokeColor=inherit;" parent="XUuc44zPP8oexQMlsgGl-73" vertex="1">
          <mxGeometry y="70" width="499" height="8" as="geometry" />
        </mxCell>
        <mxCell id="XUuc44zPP8oexQMlsgGl-75" value="+ getNextAction(): Set&amp;lt;Integer&amp;gt;&lt;br/&gt;+ getNextSingleAction(): Set&amp;lt;Integer&amp;gt;&lt;br/&gt;- createScreen(terminal: Terminal): Screen&lt;br/&gt;- createTerminal(width: int, height: int, fontConfig: AWTTerminalFontConfiguration): Terminal&lt;br/&gt;- loadFont(): AWTTerminalFontConfiguration&lt;br/&gt;- drawCharacter(x: int, y: int, c: char, color: String): void&lt;br/&gt;+ drawElement(position: Position, character: char, color: String): void&lt;br/&gt;+ drawText(position: Position, text: String, color: String): void&lt;br/&gt;+ clear(): void&lt;br/&gt;+ refresh(): void&lt;br/&gt;+ close(): void" style="text;align=left;verticalAlign=middle;spacingLeft=4;spacingRight=4;overflow=hidden;points=[[0,0.5],[1,0.5]];portConstraint=eastwest;rotatable=0;whiteSpace=wrap;html=1;" parent="XUuc44zPP8oexQMlsgGl-73" vertex="1">
          <mxGeometry y="78" width="499" height="167" as="geometry" />
        </mxCell>
        <mxCell id="XUuc44zPP8oexQMlsgGl-76" value="&lt;div&gt;&lt;b&gt;&amp;lt;&amp;lt;interface&amp;gt;&amp;gt;&lt;/b&gt;&lt;/div&gt;&lt;b&gt;GUI&lt;/b&gt;" style="swimlane;fontStyle=0;childLayout=stackLayout;horizontal=1;startSize=50;horizontalStack=0;resizeParent=1;resizeParentMax=0;resizeLast=0;collapsible=1;marginBottom=0;whiteSpace=wrap;html=1;fillColor=#bac8d3;strokeColor=#23445d;" parent="1" vertex="1">
          <mxGeometry x="1700" y="1372" width="222" height="163" as="geometry" />
        </mxCell>
        <mxCell id="XUuc44zPP8oexQMlsgGl-77" value="+ drawElement(Position, char, String)&lt;div&gt;+ drawText(Position, String, String)&lt;/div&gt;&lt;div&gt;+ getNextAction() : Set&amp;lt;Integer&amp;gt;&lt;/div&gt;&lt;div&gt;+ clear() : void&lt;/div&gt;&lt;div&gt;+ close() : void&lt;/div&gt;&lt;div&gt;+ getNextSingleAction : Set&amp;lt;Integer&amp;gt;&lt;/div&gt;&lt;div&gt;+ refresh() : void&lt;/div&gt;" style="text;align=left;verticalAlign=middle;spacingLeft=4;spacingRight=4;overflow=hidden;points=[[0,0.5],[1,0.5]];portConstraint=eastwest;rotatable=0;whiteSpace=wrap;html=1;" parent="XUuc44zPP8oexQMlsgGl-76" vertex="1">
          <mxGeometry y="50" width="222" height="113" as="geometry" />
        </mxCell>
        <mxCell id="XUuc44zPP8oexQMlsgGl-78" value="Scene" style="swimlane;fontStyle=1;align=center;verticalAlign=top;childLayout=stackLayout;horizontal=1;startSize=26;horizontalStack=0;resizeParent=1;resizeParentMax=0;resizeLast=0;collapsible=1;marginBottom=0;whiteSpace=wrap;html=1;fillColor=#e1d5e7;strokeColor=#9673a6;" parent="1" vertex="1">
          <mxGeometry x="1222" y="1686" width="289" height="847" as="geometry" />
        </mxCell>
        <mxCell id="XUuc44zPP8oexQMlsgGl-79" value="&lt;span class=&quot;hljs-bullet&quot;&gt;-&lt;/span&gt; width: int&lt;br/&gt;&lt;span class=&quot;hljs-bullet&quot;&gt;-&lt;/span&gt; height: int&lt;br/&gt;&lt;span class=&quot;hljs-bullet&quot;&gt;-&lt;/span&gt; startTime: long&lt;br/&gt;&lt;span class=&quot;hljs-bullet&quot;&gt;-&lt;/span&gt; coins: List&lt;span class=&quot;xml&quot;&gt;&amp;lt;&lt;span class=&quot;hljs-name&quot;&gt;Element&lt;/span&gt;&amp;gt;&lt;/span&gt;&lt;br/&gt;&lt;span class=&quot;hljs-bullet&quot;&gt;-&lt;/span&gt; enemies: List&lt;span class=&quot;xml&quot;&gt;&amp;lt;&lt;span class=&quot;hljs-name&quot;&gt;Element&lt;/span&gt;&amp;gt;&lt;/span&gt;&lt;br/&gt;&lt;span class=&quot;hljs-bullet&quot;&gt;-&lt;/span&gt; player: Player&lt;br/&gt;&lt;span class=&quot;hljs-bullet&quot;&gt;-&lt;/span&gt; walls: List&lt;span class=&quot;xml&quot;&gt;&amp;lt;&lt;span class=&quot;hljs-name&quot;&gt;Element&lt;/span&gt;&amp;gt;&lt;/span&gt;&lt;br/&gt;&lt;span class=&quot;hljs-bullet&quot;&gt;-&lt;/span&gt; bullets: List&lt;span class=&quot;xml&quot;&gt;&amp;lt;&lt;span class=&quot;hljs-name&quot;&gt;Bullet&lt;/span&gt;&amp;gt;&lt;/span&gt;&lt;br/&gt;&lt;span class=&quot;hljs-bullet&quot;&gt;-&lt;/span&gt; collectibles: List&lt;span class=&quot;xml&quot;&gt;&amp;lt;&lt;span class=&quot;hljs-name&quot;&gt;Collectible&lt;/span&gt;&amp;gt;&lt;/span&gt;&lt;br/&gt;&lt;span class=&quot;hljs-bullet&quot;&gt;-&lt;/span&gt; cameraOffset: int&lt;br/&gt;&lt;span class=&quot;hljs-bullet&quot;&gt;-&lt;/span&gt; totalPausedTime: long&lt;br/&gt;&lt;span class=&quot;hljs-bullet&quot;&gt;-&lt;/span&gt; pauseStartTime: long&lt;br/&gt;&lt;span class=&quot;hljs-bullet&quot;&gt;-&lt;/span&gt; isPaused: boolean" style="text;strokeColor=none;fillColor=none;align=left;verticalAlign=top;spacingLeft=4;spacingRight=4;overflow=hidden;rotatable=0;points=[[0,0.5],[1,0.5]];portConstraint=eastwest;whiteSpace=wrap;html=1;" parent="XUuc44zPP8oexQMlsgGl-78" vertex="1">
          <mxGeometry y="26" width="289" height="197" as="geometry" />
        </mxCell>
        <mxCell id="XUuc44zPP8oexQMlsgGl-80" value="" style="line;strokeWidth=1;fillColor=none;align=left;verticalAlign=middle;spacingTop=-1;spacingLeft=3;spacingRight=3;rotatable=0;labelPosition=right;points=[];portConstraint=eastwest;strokeColor=inherit;" parent="XUuc44zPP8oexQMlsgGl-78" vertex="1">
          <mxGeometry y="223" width="289" height="8" as="geometry" />
        </mxCell>
        <mxCell id="XUuc44zPP8oexQMlsgGl-81" value="&lt;div&gt;- buildInitialPlatforms(): void&amp;nbsp;&amp;nbsp;&lt;/div&gt;&lt;div&gt;+ handleBullets(): void&amp;nbsp;&amp;nbsp;&lt;/div&gt;&lt;div&gt;- handleBulletCollisions(iterator: Iterator&amp;lt;Bullet&amp;gt;, bullet: Bullet): void&amp;nbsp;&amp;nbsp;&lt;/div&gt;&lt;div&gt;- handleWallCollisions(iterator: Iterator&amp;lt;Bullet&amp;gt;, bullet: Bullet): void&amp;nbsp;&amp;nbsp;&lt;/div&gt;&lt;div&gt;- handleEnemyCollisions(iterator: Iterator&amp;lt;Bullet&amp;gt;, bullet: Bullet): void&amp;nbsp;&amp;nbsp;&lt;/div&gt;&lt;div&gt;- handleCollectibleCollisions(iterator: Iterator&amp;lt;Bullet&amp;gt;, bullet: Bullet): void&amp;nbsp;&amp;nbsp;&lt;/div&gt;&lt;div&gt;+ isColliding(position1: Vector, position2: Vector): boolean&amp;nbsp;&amp;nbsp;&lt;/div&gt;&lt;div&gt;+ updateEnemies(): void&amp;nbsp;&amp;nbsp;&lt;/div&gt;&lt;div&gt;+ updateCameraOffset(): void&amp;nbsp;&amp;nbsp;&lt;/div&gt;&lt;div&gt;- generatePlatforms(cameraOffset: int): void&amp;nbsp;&amp;nbsp;&lt;/div&gt;&lt;div&gt;- unloadElements(elements: List&amp;lt;Element&amp;gt;, cameraOffset: int): void&amp;nbsp;&amp;nbsp;&lt;/div&gt;&lt;div&gt;- calculateNumberOfEnemies(elapsedTime: long, interval: int): int&amp;nbsp;&amp;nbsp;&lt;/div&gt;&lt;div&gt;+ buildRandomPlatform(y: int): void&amp;nbsp;&amp;nbsp;&lt;/div&gt;&lt;div&gt;- buildWallBlock(x: int, y: int, w: int, h: int): void&amp;nbsp;&amp;nbsp;&lt;/div&gt;&lt;div&gt;- buildBreakableWallBlock(x: int, y: int, w: int): void&amp;nbsp;&amp;nbsp;&lt;/div&gt;&lt;div&gt;+ buildShopPlatform(y: int): void&amp;nbsp;&amp;nbsp;&lt;/div&gt;&lt;div&gt;+ getCollectibles(): List&amp;lt;Collectible&amp;gt;&amp;nbsp;&amp;nbsp;&lt;/div&gt;&lt;div&gt;+ getBullets(): List&amp;lt;Bullet&amp;gt;&amp;nbsp;&amp;nbsp;&lt;/div&gt;&lt;div&gt;+ addBullet(bullet: Bullet): void&amp;nbsp;&amp;nbsp;&lt;/div&gt;&lt;div&gt;+ getCameraOffset(): int&amp;nbsp;&amp;nbsp;&lt;/div&gt;&lt;div&gt;+ setPaused(paused: boolean): void&amp;nbsp;&amp;nbsp;&lt;/div&gt;&lt;div&gt;+ getCurrentTime(): long&amp;nbsp;&amp;nbsp;&lt;/div&gt;&lt;div&gt;+ getCoins(): List&amp;lt;Element&amp;gt;&amp;nbsp;&amp;nbsp;&lt;/div&gt;&lt;div&gt;+ removeCoin(coin: Coin): void&amp;nbsp;&amp;nbsp;&lt;/div&gt;&lt;div&gt;+ getWalls(): List&amp;lt;Element&amp;gt;&amp;nbsp;&amp;nbsp;&lt;/div&gt;&lt;div&gt;+ getPlayer(): Player&amp;nbsp;&amp;nbsp;&lt;/div&gt;&lt;div&gt;+ getEnemies(): List&amp;lt;Element&amp;gt;&amp;nbsp;&amp;nbsp;&lt;/div&gt;&lt;div&gt;+ removeEnemy(enemy: Enemy): void&amp;nbsp;&amp;nbsp;&lt;/div&gt;&lt;div&gt;+ getWidth(): int&amp;nbsp;&amp;nbsp;&lt;/div&gt;&lt;div&gt;+ getHeight(): int&amp;nbsp;&amp;nbsp;&lt;/div&gt;&lt;div&gt;+ addCollectible(collectible: Collectible): void&amp;nbsp;&amp;nbsp;&lt;/div&gt;&lt;div&gt;+ addNormalEnemy(x: int, y: int): void&amp;nbsp;&amp;nbsp;&lt;/div&gt;&lt;div&gt;+ addShellEnemy(x: int, y: int): void&amp;nbsp;&amp;nbsp;&lt;/div&gt;&lt;div&gt;+ addSpikeEnemy(x: int, y: int): void&amp;nbsp;&amp;nbsp;&lt;/div&gt;&lt;div&gt;+ timeToString(time: long): String&amp;nbsp;&amp;nbsp;&lt;/div&gt;&lt;div&gt;&lt;br&gt;&lt;/div&gt;" style="text;strokeColor=none;fillColor=none;align=left;verticalAlign=top;spacingLeft=4;spacingRight=4;overflow=hidden;rotatable=0;points=[[0,0.5],[1,0.5]];portConstraint=eastwest;whiteSpace=wrap;html=1;" parent="XUuc44zPP8oexQMlsgGl-78" vertex="1">
          <mxGeometry y="231" width="289" height="616" as="geometry" />
        </mxCell>
        <mxCell id="XUuc44zPP8oexQMlsgGl-82" value="Player" style="swimlane;fontStyle=1;align=center;verticalAlign=top;childLayout=stackLayout;horizontal=1;startSize=26;horizontalStack=0;resizeParent=1;resizeParentMax=0;resizeLast=0;collapsible=1;marginBottom=0;whiteSpace=wrap;html=1;fillColor=#e1d5e7;strokeColor=#9673a6;" parent="1" vertex="1">
          <mxGeometry x="1656" y="2361" width="277" height="952" as="geometry" />
        </mxCell>
        <mxCell id="XUuc44zPP8oexQMlsgGl-83" value="&lt;span class=&quot;hljs-deletion&quot;&gt;- GRAVITY: double                         &lt;/span&gt;&lt;br/&gt;&lt;span class=&quot;hljs-deletion&quot;&gt;- MAX_FALL_SPEED: double                  &lt;/span&gt;&lt;br/&gt;&lt;span class=&quot;hljs-deletion&quot;&gt;- DAMAGE_COOLDOWN: long                   &lt;/span&gt;&lt;br/&gt;&lt;span class=&quot;hljs-deletion&quot;&gt;- DEFAULT_MAX_HEALTH: int                 &lt;/span&gt;&lt;br/&gt;&lt;span class=&quot;hljs-deletion&quot;&gt;- DEFAULT_MAX_BULLETS: int                &lt;/span&gt;&lt;br/&gt;&lt;span class=&quot;hljs-deletion&quot;&gt;- DEFAULT_SHOOT_COOLDOWN: long            &lt;/span&gt;&lt;br/&gt;&lt;span class=&quot;hljs-deletion&quot;&gt;- DEFAULT_MOVE_SPEED: double              &lt;/span&gt;&lt;br/&gt;&lt;span class=&quot;hljs-deletion&quot;&gt;- DEFAULT_JUMP_FORCE: double              &lt;/span&gt;&lt;br/&gt;&lt;span class=&quot;hljs-deletion&quot;&gt;- SHOOTING_RECOIL: double                 &lt;/span&gt;&lt;br/&gt;&lt;span class=&quot;hljs-deletion&quot;&gt;- scene: Scene                            &lt;/span&gt;&lt;br/&gt;&lt;span class=&quot;hljs-deletion&quot;&gt;- velocity: Vector                        &lt;/span&gt;&lt;br/&gt;&lt;span class=&quot;hljs-deletion&quot;&gt;- lastPosition: Vector                    &lt;/span&gt;&lt;br/&gt;&lt;span class=&quot;hljs-deletion&quot;&gt;- health: int                             &lt;/span&gt;&lt;br/&gt;&lt;span class=&quot;hljs-deletion&quot;&gt;- maxHealth: int                          &lt;/span&gt;&lt;br/&gt;&lt;span class=&quot;hljs-deletion&quot;&gt;- moveSpeed: double                       &lt;/span&gt;&lt;br/&gt;&lt;span class=&quot;hljs-deletion&quot;&gt;- jumpForce: double                       &lt;/span&gt;&lt;br/&gt;&lt;span class=&quot;hljs-deletion&quot;&gt;- numBullets: int                         &lt;/span&gt;&lt;br/&gt;&lt;span class=&quot;hljs-deletion&quot;&gt;- maxNumBullets: int                      &lt;/span&gt;&lt;br/&gt;&lt;span class=&quot;hljs-deletion&quot;&gt;- shootCooldown: long                     &lt;/span&gt;&lt;br/&gt;&lt;span class=&quot;hljs-deletion&quot;&gt;- lastShotTime: long                      &lt;/span&gt;&lt;br/&gt;&lt;span class=&quot;hljs-deletion&quot;&gt;- onGround: boolean                       &lt;/span&gt;&lt;br/&gt;&lt;span class=&quot;hljs-deletion&quot;&gt;- lastDamageTime: long                    &lt;/span&gt;&lt;br/&gt;&lt;span class=&quot;hljs-deletion&quot;&gt;- collectedCoins: int&amp;nbsp; &amp;nbsp;&lt;/span&gt;" style="text;strokeColor=none;fillColor=none;align=left;verticalAlign=top;spacingLeft=4;spacingRight=4;overflow=hidden;rotatable=0;points=[[0,0.5],[1,0.5]];portConstraint=eastwest;whiteSpace=wrap;html=1;" parent="XUuc44zPP8oexQMlsgGl-82" vertex="1">
          <mxGeometry y="26" width="277" height="345" as="geometry" />
        </mxCell>
        <mxCell id="XUuc44zPP8oexQMlsgGl-84" value="" style="line;strokeWidth=1;fillColor=none;align=left;verticalAlign=middle;spacingTop=-1;spacingLeft=3;spacingRight=3;rotatable=0;labelPosition=right;points=[];portConstraint=eastwest;strokeColor=inherit;" parent="XUuc44zPP8oexQMlsgGl-82" vertex="1">
          <mxGeometry y="371" width="277" height="8" as="geometry" />
        </mxCell>
        <mxCell id="XUuc44zPP8oexQMlsgGl-85" value="&lt;div&gt;&amp;nbsp;&lt;span style=&quot;background-color: initial;&quot;&gt;- initializePlayerState(scene: Scene): void&amp;nbsp;&amp;nbsp;&lt;/span&gt;&lt;/div&gt;&lt;div&gt;+ moveLeft(): void&amp;nbsp;&amp;nbsp;&lt;/div&gt;&lt;div&gt;+ moveRight(): void&amp;nbsp;&amp;nbsp;&lt;/div&gt;&lt;div&gt;+ stop(): void&amp;nbsp;&amp;nbsp;&lt;/div&gt;&lt;div&gt;+ jump(): void&amp;nbsp;&amp;nbsp;&lt;/div&gt;&lt;div&gt;+ gravity(): void&amp;nbsp;&amp;nbsp;&lt;/div&gt;&lt;div&gt;+ move(): void&amp;nbsp;&amp;nbsp;&lt;/div&gt;&lt;div&gt;- updatePosition(newPosition: Vector): void&amp;nbsp;&amp;nbsp;&lt;/div&gt;&lt;div&gt;- cantMoveTo(position: Vector): boolean&amp;nbsp;&amp;nbsp;&lt;/div&gt;&lt;div&gt;+ shoot(): void&amp;nbsp;&amp;nbsp;&lt;/div&gt;&lt;div&gt;- canShoot(currentTime: long): boolean&amp;nbsp;&amp;nbsp;&lt;/div&gt;&lt;div&gt;- performShot(currentTime: long): void&amp;nbsp;&amp;nbsp;&lt;/div&gt;&lt;div&gt;+ takeDamage(): void&amp;nbsp;&amp;nbsp;&lt;/div&gt;&lt;div&gt;- canTakeDamage(currentTime: long): boolean&amp;nbsp;&amp;nbsp;&lt;/div&gt;&lt;div&gt;- executeDamage(currentTime: long): void&amp;nbsp;&amp;nbsp;&lt;/div&gt;&lt;div&gt;+ update(): void&amp;nbsp;&amp;nbsp;&lt;/div&gt;&lt;div&gt;+ getDamageCooldown(): long&amp;nbsp;&amp;nbsp;&lt;/div&gt;&lt;div&gt;+ getScene(): Scene&amp;nbsp;&amp;nbsp;&lt;/div&gt;&lt;div&gt;+ getVelocity(): Vector&amp;nbsp;&amp;nbsp;&lt;/div&gt;&lt;div&gt;+ getLastPosition(): Vector&amp;nbsp;&amp;nbsp;&lt;/div&gt;&lt;div&gt;+ getHealth(): int&amp;nbsp;&amp;nbsp;&lt;/div&gt;&lt;div&gt;+ setHealth(health: int): void&amp;nbsp;&amp;nbsp;&lt;/div&gt;&lt;div&gt;+ getMaxHealth(): int&amp;nbsp;&amp;nbsp;&lt;/div&gt;&lt;div&gt;+ setMaxHealth(maxHealth: int): void&amp;nbsp;&amp;nbsp;&lt;/div&gt;&lt;div&gt;+ getMoveSpeed(): double&amp;nbsp;&amp;nbsp;&lt;/div&gt;&lt;div&gt;+ setMoveSpeed(moveSpeed: double): void&amp;nbsp;&amp;nbsp;&lt;/div&gt;&lt;div&gt;+ getJumpForce(): double&amp;nbsp;&amp;nbsp;&lt;/div&gt;&lt;div&gt;+ setJumpForce(jumpForce: double): void&amp;nbsp;&amp;nbsp;&lt;/div&gt;&lt;div&gt;+ getNumBullets(): int&amp;nbsp;&amp;nbsp;&lt;/div&gt;&lt;div&gt;+ setNumBullets(numBullets: int): void&amp;nbsp;&amp;nbsp;&lt;/div&gt;&lt;div&gt;+ getMaxNumBullets(): int&amp;nbsp;&amp;nbsp;&lt;/div&gt;&lt;div&gt;+ setMaxNumBullets(maxNumBullets: int): void&amp;nbsp;&amp;nbsp;&lt;/div&gt;&lt;div&gt;+ getShootCooldown(): long&amp;nbsp;&amp;nbsp;&lt;/div&gt;&lt;div&gt;+ setShootCooldown(shootCooldown: long): void&amp;nbsp;&amp;nbsp;&lt;/div&gt;&lt;div&gt;+ isOnGround(): boolean&amp;nbsp;&amp;nbsp;&lt;/div&gt;&lt;div&gt;+ setOnGround(onGround: boolean): void&amp;nbsp;&amp;nbsp;&lt;/div&gt;&lt;div&gt;+ getLastDamageTime(): long&amp;nbsp;&amp;nbsp;&lt;/div&gt;&lt;div&gt;+ getCollectedCoins(): int&amp;nbsp;&amp;nbsp;&lt;/div&gt;&lt;div&gt;+ setCollectedCoins(collectedCoins: int): void&amp;nbsp;&amp;nbsp;&lt;/div&gt;&lt;div&gt;&lt;br&gt;&lt;/div&gt;" style="text;strokeColor=none;fillColor=none;align=left;verticalAlign=top;spacingLeft=4;spacingRight=4;overflow=hidden;rotatable=0;points=[[0,0.5],[1,0.5]];portConstraint=eastwest;whiteSpace=wrap;html=1;" parent="XUuc44zPP8oexQMlsgGl-82" vertex="1">
          <mxGeometry y="379" width="277" height="573" as="geometry" />
        </mxCell>
        <mxCell id="XUuc44zPP8oexQMlsgGl-319" style="edgeStyle=orthogonalEdgeStyle;rounded=0;orthogonalLoop=1;jettySize=auto;html=1;exitX=0.5;exitY=1;exitDx=0;exitDy=0;entryX=0.5;entryY=0;entryDx=0;entryDy=0;endArrow=open;endFill=0;" parent="1" source="XUuc44zPP8oexQMlsgGl-86" target="XUuc44zPP8oexQMlsgGl-176" edge="1">
          <mxGeometry relative="1" as="geometry" />
        </mxCell>
        <mxCell id="XUuc44zPP8oexQMlsgGl-86" value="Element" style="swimlane;fontStyle=1;align=center;verticalAlign=top;childLayout=stackLayout;horizontal=1;startSize=26;horizontalStack=0;resizeParent=1;resizeParentMax=0;resizeLast=0;collapsible=1;marginBottom=0;whiteSpace=wrap;html=1;fillColor=#e1d5e7;strokeColor=#9673a6;" parent="1" vertex="1">
          <mxGeometry x="2068" y="2192" width="202" height="133" as="geometry" />
        </mxCell>
        <mxCell id="XUuc44zPP8oexQMlsgGl-87" value="- position: Vector   " style="text;strokeColor=none;fillColor=none;align=left;verticalAlign=top;spacingLeft=4;spacingRight=4;overflow=hidden;rotatable=0;points=[[0,0.5],[1,0.5]];portConstraint=eastwest;whiteSpace=wrap;html=1;" parent="XUuc44zPP8oexQMlsgGl-86" vertex="1">
          <mxGeometry y="26" width="202" height="26" as="geometry" />
        </mxCell>
        <mxCell id="XUuc44zPP8oexQMlsgGl-88" value="" style="line;strokeWidth=1;fillColor=none;align=left;verticalAlign=middle;spacingTop=-1;spacingLeft=3;spacingRight=3;rotatable=0;labelPosition=right;points=[];portConstraint=eastwest;strokeColor=inherit;" parent="XUuc44zPP8oexQMlsgGl-86" vertex="1">
          <mxGeometry y="52" width="202" height="8" as="geometry" />
        </mxCell>
        <mxCell id="XUuc44zPP8oexQMlsgGl-89" value="&lt;span class=&quot;hljs-bullet&quot;&gt;+&lt;/span&gt; getPosition(): Vector         &lt;br/&gt;&lt;span class=&quot;hljs-bullet&quot;&gt;+&lt;/span&gt; setPosition(position: Vector): void&lt;br/&gt;&lt;span class=&quot;hljs-bullet&quot;&gt;+&lt;/span&gt; equals(o: Object): boolean    &lt;br/&gt;&lt;span class=&quot;hljs-bullet&quot;&gt;+&lt;/span&gt; hashCode(): int&amp;nbsp; &amp;nbsp;&amp;nbsp;" style="text;strokeColor=none;fillColor=none;align=left;verticalAlign=top;spacingLeft=4;spacingRight=4;overflow=hidden;rotatable=0;points=[[0,0.5],[1,0.5]];portConstraint=eastwest;whiteSpace=wrap;html=1;" parent="XUuc44zPP8oexQMlsgGl-86" vertex="1">
          <mxGeometry y="60" width="202" height="73" as="geometry" />
        </mxCell>
        <mxCell id="XUuc44zPP8oexQMlsgGl-325" style="edgeStyle=orthogonalEdgeStyle;rounded=0;orthogonalLoop=1;jettySize=auto;html=1;exitX=1;exitY=0.5;exitDx=0;exitDy=0;endArrow=none;endFill=0;" parent="1" source="XUuc44zPP8oexQMlsgGl-91" edge="1">
          <mxGeometry relative="1" as="geometry">
            <mxPoint x="1993" y="2113" as="targetPoint" />
            <Array as="points">
              <mxPoint x="1993" y="2183" />
              <mxPoint x="1993" y="2113" />
              <mxPoint x="1994" y="2113" />
            </Array>
          </mxGeometry>
        </mxCell>
        <mxCell id="XUuc44zPP8oexQMlsgGl-91" value="Wall" style="swimlane;fontStyle=1;align=center;verticalAlign=top;childLayout=stackLayout;horizontal=1;startSize=26;horizontalStack=0;resizeParent=1;resizeParentMax=0;resizeLast=0;collapsible=1;marginBottom=0;whiteSpace=wrap;html=1;fillColor=#e1d5e7;strokeColor=#9673a6;" parent="1" vertex="1">
          <mxGeometry x="1741" y="2158" width="101" height="50" as="geometry" />
        </mxCell>
        <mxCell id="XUuc44zPP8oexQMlsgGl-324" style="edgeStyle=orthogonalEdgeStyle;rounded=0;orthogonalLoop=1;jettySize=auto;html=1;exitX=1;exitY=0.5;exitDx=0;exitDy=0;endArrow=none;endFill=0;" parent="1" source="XUuc44zPP8oexQMlsgGl-96" edge="1">
          <mxGeometry relative="1" as="geometry">
            <mxPoint x="1993" y="2012" as="targetPoint" />
          </mxGeometry>
        </mxCell>
        <mxCell id="KIUF0ZJub0OMThAvWQ1f-51" style="edgeStyle=orthogonalEdgeStyle;rounded=0;orthogonalLoop=1;jettySize=auto;html=1;exitX=0;exitY=0.5;exitDx=0;exitDy=0;startArrow=open;startFill=0;endArrow=none;endFill=0;startSize=10;" edge="1" parent="1" source="XUuc44zPP8oexQMlsgGl-96">
          <mxGeometry relative="1" as="geometry">
            <mxPoint x="1553.5555555555557" y="2112.222222222222" as="targetPoint" />
          </mxGeometry>
        </mxCell>
        <mxCell id="XUuc44zPP8oexQMlsgGl-96" value="BreakableWall" style="swimlane;fontStyle=1;align=center;verticalAlign=top;childLayout=stackLayout;horizontal=1;startSize=26;horizontalStack=0;resizeParent=1;resizeParentMax=0;resizeLast=0;collapsible=1;marginBottom=0;whiteSpace=wrap;html=1;fillColor=#e1d5e7;strokeColor=#9673a6;" parent="1" vertex="1">
          <mxGeometry x="1736" y="2087" width="112" height="50" as="geometry" />
        </mxCell>
        <mxCell id="XUuc44zPP8oexQMlsgGl-326" style="edgeStyle=orthogonalEdgeStyle;rounded=0;orthogonalLoop=1;jettySize=auto;html=1;exitX=1;exitY=0.5;exitDx=0;exitDy=0;endArrow=none;endFill=0;" parent="1" source="XUuc44zPP8oexQMlsgGl-97" edge="1">
          <mxGeometry relative="1" as="geometry">
            <mxPoint x="1993.3333333333335" y="2182" as="targetPoint" />
          </mxGeometry>
        </mxCell>
        <mxCell id="XUuc44zPP8oexQMlsgGl-97" value="Coin" style="swimlane;fontStyle=1;align=center;verticalAlign=top;childLayout=stackLayout;horizontal=1;startSize=26;horizontalStack=0;resizeParent=1;resizeParentMax=0;resizeLast=0;collapsible=1;marginBottom=0;whiteSpace=wrap;html=1;fillColor=#e1d5e7;strokeColor=#9673a6;" parent="1" vertex="1">
          <mxGeometry x="1741" y="2224" width="101" height="50" as="geometry" />
        </mxCell>
        <mxCell id="XUuc44zPP8oexQMlsgGl-98" value="Bullet&lt;div&gt;&lt;br&gt;&lt;/div&gt;" style="swimlane;fontStyle=1;align=center;verticalAlign=top;childLayout=stackLayout;horizontal=1;startSize=26;horizontalStack=0;resizeParent=1;resizeParentMax=0;resizeLast=0;collapsible=1;marginBottom=0;whiteSpace=wrap;html=1;fillColor=#e1d5e7;strokeColor=#9673a6;" parent="1" vertex="1">
          <mxGeometry x="1741" y="2290" width="101" height="50" as="geometry" />
        </mxCell>
        <mxCell id="XUuc44zPP8oexQMlsgGl-99" value="&lt;i&gt;Enemy&lt;/i&gt;" style="swimlane;fontStyle=1;align=center;verticalAlign=top;childLayout=stackLayout;horizontal=1;startSize=26;horizontalStack=0;resizeParent=1;resizeParentMax=0;resizeLast=0;collapsible=1;marginBottom=0;whiteSpace=wrap;html=1;fillColor=#e1d5e7;strokeColor=#9673a6;" parent="1" vertex="1">
          <mxGeometry x="1655" y="1695" width="273" height="143" as="geometry" />
        </mxCell>
        <mxCell id="XUuc44zPP8oexQMlsgGl-100" value="&lt;span class=&quot;hljs-bullet&quot;&gt;-&lt;/span&gt; controller: EnemyController               &lt;br/&gt;&lt;span class=&quot;hljs-section&quot;&gt;- scene: Scene&amp;nbsp;&amp;nbsp;&lt;/span&gt;" style="text;strokeColor=none;fillColor=none;align=left;verticalAlign=top;spacingLeft=4;spacingRight=4;overflow=hidden;rotatable=0;points=[[0,0.5],[1,0.5]];portConstraint=eastwest;whiteSpace=wrap;html=1;" parent="XUuc44zPP8oexQMlsgGl-99" vertex="1">
          <mxGeometry y="26" width="273" height="37" as="geometry" />
        </mxCell>
        <mxCell id="XUuc44zPP8oexQMlsgGl-101" value="" style="line;strokeWidth=1;fillColor=none;align=left;verticalAlign=middle;spacingTop=-1;spacingLeft=3;spacingRight=3;rotatable=0;labelPosition=right;points=[];portConstraint=eastwest;strokeColor=inherit;" parent="XUuc44zPP8oexQMlsgGl-99" vertex="1">
          <mxGeometry y="63" width="273" height="8" as="geometry" />
        </mxCell>
        <mxCell id="XUuc44zPP8oexQMlsgGl-102" value="&lt;span class=&quot;hljs-bullet&quot;&gt;+&lt;/span&gt; getController(): EnemyController           &lt;br/&gt;&lt;span class=&quot;hljs-bullet&quot;&gt;+&lt;/span&gt; setController(controller: EnemyController): void&lt;br/&gt;&lt;span class=&quot;hljs-bullet&quot;&gt;+&lt;/span&gt; getScene(): Scene                          &lt;br/&gt;&lt;span class=&quot;hljs-section&quot;&gt;+ move(): void&amp;nbsp; &amp;nbsp;&lt;/span&gt;" style="text;strokeColor=none;fillColor=none;align=left;verticalAlign=top;spacingLeft=4;spacingRight=4;overflow=hidden;rotatable=0;points=[[0,0.5],[1,0.5]];portConstraint=eastwest;whiteSpace=wrap;html=1;" parent="XUuc44zPP8oexQMlsgGl-99" vertex="1">
          <mxGeometry y="71" width="273" height="72" as="geometry" />
        </mxCell>
        <mxCell id="XUuc44zPP8oexQMlsgGl-103" value="Â«interfaceÂ»&lt;br&gt;&lt;b&gt;Floating&lt;/b&gt;" style="html=1;whiteSpace=wrap;fillColor=#e1d5e7;strokeColor=#9673a6;" parent="1" vertex="1">
          <mxGeometry x="1621.5" y="2009" width="110" height="50" as="geometry" />
        </mxCell>
        <mxCell id="XUuc44zPP8oexQMlsgGl-104" value="Â«interfaceÂ»&lt;br&gt;&lt;b&gt;Shootable&lt;/b&gt;" style="html=1;whiteSpace=wrap;fillColor=#e1d5e7;strokeColor=#9673a6;" parent="1" vertex="1">
          <mxGeometry x="1739.5" y="2009" width="110" height="50" as="geometry" />
        </mxCell>
        <mxCell id="XUuc44zPP8oexQMlsgGl-105" value="Â«interfaceÂ»&lt;br&gt;&lt;b&gt;Stompable&lt;/b&gt;" style="html=1;whiteSpace=wrap;fillColor=#e1d5e7;strokeColor=#9673a6;" parent="1" vertex="1">
          <mxGeometry x="1857.5" y="2009" width="110" height="50" as="geometry" />
        </mxCell>
        <mxCell id="XUuc44zPP8oexQMlsgGl-313" style="edgeStyle=orthogonalEdgeStyle;rounded=0;orthogonalLoop=1;jettySize=auto;html=1;entryX=0.25;entryY=0;entryDx=0;entryDy=0;endArrow=block;endFill=0;endSize=9;dashed=1;" parent="1" edge="1">
          <mxGeometry relative="1" as="geometry">
            <mxPoint x="1679" y="1944" as="sourcePoint" />
            <mxPoint x="1678" y="2008.9999999999995" as="targetPoint" />
            <Array as="points">
              <mxPoint x="1678" y="1944" />
            </Array>
          </mxGeometry>
        </mxCell>
        <mxCell id="XUuc44zPP8oexQMlsgGl-106" value="SpikeEnemy" style="swimlane;fontStyle=1;align=center;verticalAlign=top;childLayout=stackLayout;horizontal=1;startSize=26;horizontalStack=0;resizeParent=1;resizeParentMax=0;resizeLast=0;collapsible=1;marginBottom=0;whiteSpace=wrap;html=1;fillColor=#e1d5e7;strokeColor=#9673a6;" parent="1" vertex="1">
          <mxGeometry x="1611" y="1894" width="112" height="50" as="geometry" />
        </mxCell>
        <mxCell id="XUuc44zPP8oexQMlsgGl-107" value="ShellEnemy" style="swimlane;fontStyle=1;align=center;verticalAlign=top;childLayout=stackLayout;horizontal=1;startSize=26;horizontalStack=0;resizeParent=1;resizeParentMax=0;resizeLast=0;collapsible=1;marginBottom=0;whiteSpace=wrap;html=1;fillColor=#e1d5e7;strokeColor=#9673a6;" parent="1" vertex="1">
          <mxGeometry x="1861" y="1894" width="112" height="50" as="geometry" />
        </mxCell>
        <mxCell id="XUuc44zPP8oexQMlsgGl-283" value="" style="endArrow=block;html=1;rounded=0;entryX=0.521;entryY=0.988;entryDx=0;entryDy=0;entryPerimeter=0;endFill=0;endSize=13;exitX=0.5;exitY=0;exitDx=0;exitDy=0;" parent="XUuc44zPP8oexQMlsgGl-107" source="XUuc44zPP8oexQMlsgGl-108" edge="1">
          <mxGeometry width="50" height="50" relative="1" as="geometry">
            <mxPoint x="-70" y="106" as="sourcePoint" />
            <mxPoint x="-70" y="-56" as="targetPoint" />
          </mxGeometry>
        </mxCell>
        <mxCell id="XUuc44zPP8oexQMlsgGl-108" value="NormalEnemy" style="swimlane;fontStyle=1;align=center;verticalAlign=top;childLayout=stackLayout;horizontal=1;startSize=26;horizontalStack=0;resizeParent=1;resizeParentMax=0;resizeLast=0;collapsible=1;marginBottom=0;whiteSpace=wrap;html=1;fillColor=#e1d5e7;strokeColor=#9673a6;" parent="1" vertex="1">
          <mxGeometry x="1736" y="1894" width="112" height="50" as="geometry">
            <mxRectangle x="2496" y="3334" width="102" height="26" as="alternateBounds" />
          </mxGeometry>
        </mxCell>
        <mxCell id="XUuc44zPP8oexQMlsgGl-112" value="&lt;i&gt;Collectible&lt;/i&gt;" style="swimlane;fontStyle=1;align=center;verticalAlign=top;childLayout=stackLayout;horizontal=1;startSize=26;horizontalStack=0;resizeParent=1;resizeParentMax=0;resizeLast=0;collapsible=1;marginBottom=0;whiteSpace=wrap;html=1;fillColor=#e1d5e7;strokeColor=#9673a6;" parent="1" vertex="1">
          <mxGeometry x="2471" y="2528" width="184" height="159" as="geometry" />
        </mxCell>
        <mxCell id="XUuc44zPP8oexQMlsgGl-113" value="- scene: Scene   " style="text;strokeColor=none;fillColor=none;align=left;verticalAlign=top;spacingLeft=4;spacingRight=4;overflow=hidden;rotatable=0;points=[[0,0.5],[1,0.5]];portConstraint=eastwest;whiteSpace=wrap;html=1;" parent="XUuc44zPP8oexQMlsgGl-112" vertex="1">
          <mxGeometry y="26" width="184" height="26" as="geometry" />
        </mxCell>
        <mxCell id="XUuc44zPP8oexQMlsgGl-114" value="" style="line;strokeWidth=1;fillColor=none;align=left;verticalAlign=middle;spacingTop=-1;spacingLeft=3;spacingRight=3;rotatable=0;labelPosition=right;points=[];portConstraint=eastwest;strokeColor=inherit;" parent="XUuc44zPP8oexQMlsgGl-112" vertex="1">
          <mxGeometry y="52" width="184" height="8" as="geometry" />
        </mxCell>
        <mxCell id="XUuc44zPP8oexQMlsgGl-344" style="edgeStyle=orthogonalEdgeStyle;rounded=0;orthogonalLoop=1;jettySize=auto;html=1;exitX=0;exitY=0.5;exitDx=0;exitDy=0;endArrow=none;endFill=0;" parent="XUuc44zPP8oexQMlsgGl-112" source="XUuc44zPP8oexQMlsgGl-115" edge="1">
          <mxGeometry relative="1" as="geometry">
            <mxPoint x="-478" y="-151" as="targetPoint" />
            <mxPoint x="-10" y="109.5" as="sourcePoint" />
          </mxGeometry>
        </mxCell>
        <mxCell id="XUuc44zPP8oexQMlsgGl-115" value="&lt;span class=&quot;hljs-bullet&quot;&gt;+&lt;/span&gt; &lt;i&gt;getCost&lt;/i&gt;(): int                                &lt;br&gt;&lt;span class=&quot;hljs-bullet&quot;&gt;+&lt;/span&gt; &lt;i&gt;getIcon&lt;/i&gt;(): String                             &lt;br&gt;&lt;span class=&quot;hljs-bullet&quot;&gt;+&lt;/span&gt; &lt;i&gt;getDescription&lt;/i&gt;(): String                      &lt;br&gt;&lt;span class=&quot;hljs-bullet&quot;&gt;+&lt;/span&gt; shouldShowDescription(): boolean             &lt;br&gt;&lt;span class=&quot;hljs-section&quot;&gt;+ &lt;i&gt;onCollect&lt;/i&gt;(player: Player): void&amp;nbsp; &amp;nbsp;&lt;/span&gt;" style="text;strokeColor=none;fillColor=none;align=left;verticalAlign=top;spacingLeft=4;spacingRight=4;overflow=hidden;rotatable=0;points=[[0,0.5],[1,0.5]];portConstraint=eastwest;whiteSpace=wrap;html=1;" parent="XUuc44zPP8oexQMlsgGl-112" vertex="1">
          <mxGeometry y="60" width="184" height="99" as="geometry" />
        </mxCell>
        <mxCell id="XUuc44zPP8oexQMlsgGl-341" style="edgeStyle=orthogonalEdgeStyle;rounded=0;orthogonalLoop=1;jettySize=auto;html=1;exitX=0.5;exitY=0;exitDx=0;exitDy=0;endArrow=none;endFill=0;" parent="1" source="XUuc44zPP8oexQMlsgGl-120" edge="1">
          <mxGeometry relative="1" as="geometry">
            <mxPoint x="2424.0281690140846" y="2727.154929577465" as="targetPoint" />
          </mxGeometry>
        </mxCell>
        <mxCell id="XUuc44zPP8oexQMlsgGl-120" value="BulletCountCollectible" style="swimlane;fontStyle=1;align=center;verticalAlign=top;childLayout=stackLayout;horizontal=1;startSize=26;horizontalStack=0;resizeParent=1;resizeParentMax=0;resizeLast=0;collapsible=1;marginBottom=0;whiteSpace=wrap;html=1;fillColor=#e1d5e7;strokeColor=#9673a6;" parent="1" vertex="1">
          <mxGeometry x="2331" y="2761" width="186" height="96" as="geometry" />
        </mxCell>
        <mxCell id="XUuc44zPP8oexQMlsgGl-123" value="&lt;span class=&quot;hljs-bullet&quot;&gt;+&lt;/span&gt; getCost(): int                                &lt;br/&gt;&lt;span class=&quot;hljs-bullet&quot;&gt;+&lt;/span&gt; getIcon(): String                             &lt;br/&gt;&lt;span class=&quot;hljs-bullet&quot;&gt;+&lt;/span&gt; getDescription(): String                      &lt;br/&gt;&lt;span class=&quot;hljs-section&quot;&gt;+ onCollect(player: Player): void&amp;nbsp; &amp;nbsp;&amp;nbsp;&lt;/span&gt;" style="text;strokeColor=none;fillColor=none;align=left;verticalAlign=top;spacingLeft=4;spacingRight=4;overflow=hidden;rotatable=0;points=[[0,0.5],[1,0.5]];portConstraint=eastwest;whiteSpace=wrap;html=1;" parent="XUuc44zPP8oexQMlsgGl-120" vertex="1">
          <mxGeometry y="26" width="186" height="70" as="geometry" />
        </mxCell>
        <mxCell id="XUuc44zPP8oexQMlsgGl-340" style="edgeStyle=orthogonalEdgeStyle;rounded=0;orthogonalLoop=1;jettySize=auto;html=1;exitX=0.5;exitY=0;exitDx=0;exitDy=0;endArrow=none;endFill=0;" parent="1" source="XUuc44zPP8oexQMlsgGl-124" edge="1">
          <mxGeometry relative="1" as="geometry">
            <mxPoint x="2697.9718309859154" y="2727.43661971831" as="targetPoint" />
          </mxGeometry>
        </mxCell>
        <mxCell id="XUuc44zPP8oexQMlsgGl-124" value="BulletSpeedCollectible" style="swimlane;fontStyle=1;align=center;verticalAlign=top;childLayout=stackLayout;horizontal=1;startSize=26;horizontalStack=0;resizeParent=1;resizeParentMax=0;resizeLast=0;collapsible=1;marginBottom=0;whiteSpace=wrap;html=1;fillColor=#e1d5e7;strokeColor=#9673a6;" parent="1" vertex="1">
          <mxGeometry x="2605" y="2761" width="186" height="96" as="geometry" />
        </mxCell>
        <mxCell id="XUuc44zPP8oexQMlsgGl-125" value="&lt;span class=&quot;hljs-bullet&quot;&gt;+&lt;/span&gt; getCost(): int                                &lt;br/&gt;&lt;span class=&quot;hljs-bullet&quot;&gt;+&lt;/span&gt; getIcon(): String                             &lt;br/&gt;&lt;span class=&quot;hljs-bullet&quot;&gt;+&lt;/span&gt; getDescription(): String                      &lt;br/&gt;&lt;span class=&quot;hljs-section&quot;&gt;+ onCollect(player: Player): void&amp;nbsp; &amp;nbsp;&amp;nbsp;&lt;/span&gt;" style="text;strokeColor=none;fillColor=none;align=left;verticalAlign=top;spacingLeft=4;spacingRight=4;overflow=hidden;rotatable=0;points=[[0,0.5],[1,0.5]];portConstraint=eastwest;whiteSpace=wrap;html=1;" parent="XUuc44zPP8oexQMlsgGl-124" vertex="1">
          <mxGeometry y="26" width="186" height="70" as="geometry" />
        </mxCell>
        <mxCell id="XUuc44zPP8oexQMlsgGl-339" style="edgeStyle=orthogonalEdgeStyle;rounded=0;orthogonalLoop=1;jettySize=auto;html=1;exitX=0.5;exitY=0;exitDx=0;exitDy=0;endArrow=none;endFill=0;" parent="1" source="XUuc44zPP8oexQMlsgGl-126" edge="1">
          <mxGeometry relative="1" as="geometry">
            <mxPoint x="2892.056338028169" y="2726.8732394366198" as="targetPoint" />
          </mxGeometry>
        </mxCell>
        <mxCell id="XUuc44zPP8oexQMlsgGl-126" value="HealthCollectible" style="swimlane;fontStyle=1;align=center;verticalAlign=top;childLayout=stackLayout;horizontal=1;startSize=26;horizontalStack=0;resizeParent=1;resizeParentMax=0;resizeLast=0;collapsible=1;marginBottom=0;whiteSpace=wrap;html=1;fillColor=#e1d5e7;strokeColor=#9673a6;" parent="1" vertex="1">
          <mxGeometry x="2799" y="2761" width="186" height="96" as="geometry" />
        </mxCell>
        <mxCell id="XUuc44zPP8oexQMlsgGl-127" value="&lt;span class=&quot;hljs-bullet&quot;&gt;+&lt;/span&gt; getCost(): int                                &lt;br/&gt;&lt;span class=&quot;hljs-bullet&quot;&gt;+&lt;/span&gt; getIcon(): String                             &lt;br/&gt;&lt;span class=&quot;hljs-bullet&quot;&gt;+&lt;/span&gt; getDescription(): String                      &lt;br/&gt;&lt;span class=&quot;hljs-section&quot;&gt;+ onCollect(player: Player): void&amp;nbsp; &amp;nbsp;&amp;nbsp;&lt;/span&gt;" style="text;strokeColor=none;fillColor=none;align=left;verticalAlign=top;spacingLeft=4;spacingRight=4;overflow=hidden;rotatable=0;points=[[0,0.5],[1,0.5]];portConstraint=eastwest;whiteSpace=wrap;html=1;" parent="XUuc44zPP8oexQMlsgGl-126" vertex="1">
          <mxGeometry y="26" width="186" height="70" as="geometry" />
        </mxCell>
        <mxCell id="XUuc44zPP8oexQMlsgGl-338" style="edgeStyle=orthogonalEdgeStyle;rounded=0;orthogonalLoop=1;jettySize=auto;html=1;exitX=0.5;exitY=0;exitDx=0;exitDy=0;endArrow=none;endFill=0;" parent="1" source="XUuc44zPP8oexQMlsgGl-128" edge="1">
          <mxGeometry relative="1" as="geometry">
            <mxPoint x="3085.9024390243903" y="2727.29268292683" as="targetPoint" />
          </mxGeometry>
        </mxCell>
        <mxCell id="XUuc44zPP8oexQMlsgGl-128" value="MaxHealthCollectible" style="swimlane;fontStyle=1;align=center;verticalAlign=top;childLayout=stackLayout;horizontal=1;startSize=26;horizontalStack=0;resizeParent=1;resizeParentMax=0;resizeLast=0;collapsible=1;marginBottom=0;whiteSpace=wrap;html=1;fillColor=#e1d5e7;strokeColor=#9673a6;" parent="1" vertex="1">
          <mxGeometry x="2993" y="2761" width="186" height="96" as="geometry" />
        </mxCell>
        <mxCell id="XUuc44zPP8oexQMlsgGl-129" value="&lt;span class=&quot;hljs-bullet&quot;&gt;+&lt;/span&gt; getCost(): int                                &lt;br/&gt;&lt;span class=&quot;hljs-bullet&quot;&gt;+&lt;/span&gt; getIcon(): String                             &lt;br/&gt;&lt;span class=&quot;hljs-bullet&quot;&gt;+&lt;/span&gt; getDescription(): String                      &lt;br/&gt;&lt;span class=&quot;hljs-section&quot;&gt;+ onCollect(player: Player): void&amp;nbsp; &amp;nbsp;&amp;nbsp;&lt;/span&gt;" style="text;strokeColor=none;fillColor=none;align=left;verticalAlign=top;spacingLeft=4;spacingRight=4;overflow=hidden;rotatable=0;points=[[0,0.5],[1,0.5]];portConstraint=eastwest;whiteSpace=wrap;html=1;" parent="XUuc44zPP8oexQMlsgGl-128" vertex="1">
          <mxGeometry y="26" width="186" height="70" as="geometry" />
        </mxCell>
        <mxCell id="XUuc44zPP8oexQMlsgGl-337" style="edgeStyle=orthogonalEdgeStyle;rounded=0;orthogonalLoop=1;jettySize=auto;html=1;exitX=0.5;exitY=0;exitDx=0;exitDy=0;endArrow=none;endFill=0;" parent="1" source="XUuc44zPP8oexQMlsgGl-130" edge="1">
          <mxGeometry relative="1" as="geometry">
            <mxPoint x="2035.848484848485" y="2727.363636363637" as="targetPoint" />
          </mxGeometry>
        </mxCell>
        <mxCell id="XUuc44zPP8oexQMlsgGl-130" value="JumpCollectible" style="swimlane;fontStyle=1;align=center;verticalAlign=top;childLayout=stackLayout;horizontal=1;startSize=26;horizontalStack=0;resizeParent=1;resizeParentMax=0;resizeLast=0;collapsible=1;marginBottom=0;whiteSpace=wrap;html=1;fillColor=#e1d5e7;strokeColor=#9673a6;" parent="1" vertex="1">
          <mxGeometry x="1943" y="2761" width="186" height="96" as="geometry" />
        </mxCell>
        <mxCell id="XUuc44zPP8oexQMlsgGl-131" value="&lt;span class=&quot;hljs-bullet&quot;&gt;+&lt;/span&gt; getCost(): int                                &lt;br/&gt;&lt;span class=&quot;hljs-bullet&quot;&gt;+&lt;/span&gt; getIcon(): String                             &lt;br/&gt;&lt;span class=&quot;hljs-bullet&quot;&gt;+&lt;/span&gt; getDescription(): String                      &lt;br/&gt;&lt;span class=&quot;hljs-section&quot;&gt;+ onCollect(player: Player): void&amp;nbsp; &amp;nbsp;&amp;nbsp;&lt;/span&gt;" style="text;strokeColor=none;fillColor=none;align=left;verticalAlign=top;spacingLeft=4;spacingRight=4;overflow=hidden;rotatable=0;points=[[0,0.5],[1,0.5]];portConstraint=eastwest;whiteSpace=wrap;html=1;" parent="XUuc44zPP8oexQMlsgGl-130" vertex="1">
          <mxGeometry y="26" width="186" height="70" as="geometry" />
        </mxCell>
        <mxCell id="XUuc44zPP8oexQMlsgGl-342" style="edgeStyle=orthogonalEdgeStyle;rounded=0;orthogonalLoop=1;jettySize=auto;html=1;exitX=0.5;exitY=0;exitDx=0;exitDy=0;endArrow=none;endFill=0;" parent="1" source="XUuc44zPP8oexQMlsgGl-132" edge="1">
          <mxGeometry relative="1" as="geometry">
            <mxPoint x="2229.943661971831" y="2726.8732394366198" as="targetPoint" />
          </mxGeometry>
        </mxCell>
        <mxCell id="XUuc44zPP8oexQMlsgGl-132" value="SpeedCollectible" style="swimlane;fontStyle=1;align=center;verticalAlign=top;childLayout=stackLayout;horizontal=1;startSize=26;horizontalStack=0;resizeParent=1;resizeParentMax=0;resizeLast=0;collapsible=1;marginBottom=0;whiteSpace=wrap;html=1;fillColor=#e1d5e7;strokeColor=#9673a6;" parent="1" vertex="1">
          <mxGeometry x="2137" y="2761" width="186" height="96" as="geometry" />
        </mxCell>
        <mxCell id="XUuc44zPP8oexQMlsgGl-133" value="&lt;span class=&quot;hljs-bullet&quot;&gt;+&lt;/span&gt; getCost(): int                                &lt;br/&gt;&lt;span class=&quot;hljs-bullet&quot;&gt;+&lt;/span&gt; getIcon(): String                             &lt;br/&gt;&lt;span class=&quot;hljs-bullet&quot;&gt;+&lt;/span&gt; getDescription(): String                      &lt;br/&gt;&lt;span class=&quot;hljs-section&quot;&gt;+ onCollect(player: Player): void&amp;nbsp; &amp;nbsp;&amp;nbsp;&lt;/span&gt;" style="text;strokeColor=none;fillColor=none;align=left;verticalAlign=top;spacingLeft=4;spacingRight=4;overflow=hidden;rotatable=0;points=[[0,0.5],[1,0.5]];portConstraint=eastwest;whiteSpace=wrap;html=1;" parent="XUuc44zPP8oexQMlsgGl-132" vertex="1">
          <mxGeometry y="26" width="186" height="70" as="geometry" />
        </mxCell>
        <mxCell id="XUuc44zPP8oexQMlsgGl-134" value="CollectibleFactory" style="swimlane;fontStyle=1;align=center;verticalAlign=top;childLayout=stackLayout;horizontal=1;startSize=26;horizontalStack=0;resizeParent=1;resizeParentMax=0;resizeLast=0;collapsible=1;marginBottom=0;whiteSpace=wrap;html=1;fillColor=#e1d5e7;strokeColor=#9673a6;" parent="1" vertex="1">
          <mxGeometry x="2449.5" y="2919" width="227" height="68" as="geometry" />
        </mxCell>
        <mxCell id="XUuc44zPP8oexQMlsgGl-137" value="+ getRandomCollectibles(basePosition: Vector, scene: Scene): List&lt;span class=&quot;xml&quot;&gt;&amp;lt;&lt;span class=&quot;hljs-name&quot;&gt;Collectible&lt;/span&gt;&amp;gt;&lt;/span&gt;" style="text;strokeColor=none;fillColor=none;align=left;verticalAlign=top;spacingLeft=4;spacingRight=4;overflow=hidden;rotatable=0;points=[[0,0.5],[1,0.5]];portConstraint=eastwest;whiteSpace=wrap;html=1;" parent="XUuc44zPP8oexQMlsgGl-134" vertex="1">
          <mxGeometry y="26" width="227" height="42" as="geometry" />
        </mxCell>
        <mxCell id="XUuc44zPP8oexQMlsgGl-147" value="&lt;i&gt;Menu&lt;/i&gt;" style="swimlane;fontStyle=1;align=center;verticalAlign=top;childLayout=stackLayout;horizontal=1;startSize=26;horizontalStack=0;resizeParent=1;resizeParentMax=0;resizeLast=0;collapsible=1;marginBottom=0;whiteSpace=wrap;html=1;fillColor=#e1d5e7;strokeColor=#9673a6;" parent="1" vertex="1">
          <mxGeometry x="3892" y="1895" width="160" height="159" as="geometry" />
        </mxCell>
        <mxCell id="XUuc44zPP8oexQMlsgGl-148" value="&lt;span class=&quot;hljs-section&quot;&gt;# options: List&lt;span class=&quot;xml&quot;&gt;&lt;span class=&quot;hljs-tag&quot;&gt;&amp;lt;&lt;span class=&quot;hljs-name&quot;&gt;String&lt;/span&gt;&amp;gt;&lt;/span&gt;&lt;/span&gt;&lt;/span&gt;&lt;br/&gt;&lt;span class=&quot;hljs-section&quot;&gt;# selected: int&lt;/span&gt;" style="text;strokeColor=none;fillColor=none;align=left;verticalAlign=top;spacingLeft=4;spacingRight=4;overflow=hidden;rotatable=0;points=[[0,0.5],[1,0.5]];portConstraint=eastwest;whiteSpace=wrap;html=1;" parent="XUuc44zPP8oexQMlsgGl-147" vertex="1">
          <mxGeometry y="26" width="160" height="37" as="geometry" />
        </mxCell>
        <mxCell id="XUuc44zPP8oexQMlsgGl-149" value="" style="line;strokeWidth=1;fillColor=none;align=left;verticalAlign=middle;spacingTop=-1;spacingLeft=3;spacingRight=3;rotatable=0;labelPosition=right;points=[];portConstraint=eastwest;strokeColor=inherit;" parent="XUuc44zPP8oexQMlsgGl-147" vertex="1">
          <mxGeometry y="63" width="160" height="8" as="geometry" />
        </mxCell>
        <mxCell id="XUuc44zPP8oexQMlsgGl-150" value="&lt;span class=&quot;hljs-bullet&quot;&gt;+&lt;/span&gt; nextOption(): void&lt;br/&gt;&lt;span class=&quot;hljs-bullet&quot;&gt;+&lt;/span&gt; previousOption(): void&lt;br/&gt;&lt;span class=&quot;hljs-bullet&quot;&gt;+&lt;/span&gt; getOption(i: int): String&lt;br/&gt;&lt;span class=&quot;hljs-bullet&quot;&gt;+&lt;/span&gt; isSelected(i: int): boolean&lt;br/&gt;&lt;span class=&quot;hljs-section&quot;&gt;+ getNumberOptions(): int&lt;/span&gt;" style="text;strokeColor=none;fillColor=none;align=left;verticalAlign=top;spacingLeft=4;spacingRight=4;overflow=hidden;rotatable=0;points=[[0,0.5],[1,0.5]];portConstraint=eastwest;whiteSpace=wrap;html=1;" parent="XUuc44zPP8oexQMlsgGl-147" vertex="1">
          <mxGeometry y="71" width="160" height="88" as="geometry" />
        </mxCell>
        <mxCell id="qzSVktUEmLmq_NJ0nI1a-39" style="edgeStyle=orthogonalEdgeStyle;rounded=0;orthogonalLoop=1;jettySize=auto;html=1;exitX=0.5;exitY=0;exitDx=0;exitDy=0;endArrow=none;endFill=0;" parent="1" source="XUuc44zPP8oexQMlsgGl-151" edge="1">
          <mxGeometry relative="1" as="geometry">
            <mxPoint x="3718.7142857142862" y="2068.0714285714284" as="targetPoint" />
            <Array as="points">
              <mxPoint x="3525" y="2068.5" />
              <mxPoint x="3719" y="2068.5" />
            </Array>
          </mxGeometry>
        </mxCell>
        <mxCell id="XUuc44zPP8oexQMlsgGl-151" value="StartMenu" style="swimlane;fontStyle=1;align=center;verticalAlign=top;childLayout=stackLayout;horizontal=1;startSize=26;horizontalStack=0;resizeParent=1;resizeParentMax=0;resizeLast=0;collapsible=1;marginBottom=0;whiteSpace=wrap;html=1;fillColor=#e1d5e7;strokeColor=#9673a6;" parent="1" vertex="1">
          <mxGeometry x="3445" y="2096.5" width="160" height="67" as="geometry" />
        </mxCell>
        <mxCell id="XUuc44zPP8oexQMlsgGl-154" value="&lt;span class=&quot;hljs-bullet&quot;&gt;+&lt;/span&gt; isSelectedPlay(): boolean&lt;br/&gt;&lt;span class=&quot;hljs-section&quot;&gt;+ isSelectedExit(): boolean&lt;/span&gt;" style="text;strokeColor=none;fillColor=none;align=left;verticalAlign=top;spacingLeft=4;spacingRight=4;overflow=hidden;rotatable=0;points=[[0,0.5],[1,0.5]];portConstraint=eastwest;whiteSpace=wrap;html=1;" parent="XUuc44zPP8oexQMlsgGl-151" vertex="1">
          <mxGeometry y="26" width="160" height="41" as="geometry" />
        </mxCell>
        <mxCell id="qzSVktUEmLmq_NJ0nI1a-38" style="edgeStyle=orthogonalEdgeStyle;rounded=0;orthogonalLoop=1;jettySize=auto;html=1;exitX=0.5;exitY=0;exitDx=0;exitDy=0;endArrow=none;endFill=0;" parent="1" source="XUuc44zPP8oexQMlsgGl-159" edge="1">
          <mxGeometry relative="1" as="geometry">
            <mxPoint x="3718.142857142857" y="2067.5" as="targetPoint" />
          </mxGeometry>
        </mxCell>
        <mxCell id="XUuc44zPP8oexQMlsgGl-159" value="PauseMenu" style="swimlane;fontStyle=1;align=center;verticalAlign=top;childLayout=stackLayout;horizontal=1;startSize=26;horizontalStack=0;resizeParent=1;resizeParentMax=0;resizeLast=0;collapsible=1;marginBottom=0;whiteSpace=wrap;html=1;fillColor=#e1d5e7;strokeColor=#9673a6;" parent="1" vertex="1">
          <mxGeometry x="3612" y="2096.5" width="212" height="96" as="geometry" />
        </mxCell>
        <mxCell id="XUuc44zPP8oexQMlsgGl-162" value="&lt;span class=&quot;hljs-bullet&quot;&gt;+&lt;/span&gt; isSelectedContinue(): boolean&lt;br/&gt;&lt;span class=&quot;hljs-bullet&quot;&gt;+&lt;/span&gt; isSelectedRestart(): boolean&lt;br/&gt;&lt;span class=&quot;hljs-bullet&quot;&gt;+&lt;/span&gt; isSelectedExit(): boolean&lt;br/&gt;&lt;span class=&quot;hljs-section&quot;&gt;+ isSelectedExitToDesktop(): boolean&lt;/span&gt;" style="text;strokeColor=none;fillColor=none;align=left;verticalAlign=top;spacingLeft=4;spacingRight=4;overflow=hidden;rotatable=0;points=[[0,0.5],[1,0.5]];portConstraint=eastwest;whiteSpace=wrap;html=1;" parent="XUuc44zPP8oexQMlsgGl-159" vertex="1">
          <mxGeometry y="26" width="212" height="70" as="geometry" />
        </mxCell>
        <mxCell id="qzSVktUEmLmq_NJ0nI1a-37" style="edgeStyle=orthogonalEdgeStyle;rounded=0;orthogonalLoop=1;jettySize=auto;html=1;exitX=0.5;exitY=0;exitDx=0;exitDy=0;endArrow=block;endFill=0;endSize=13;" parent="1" source="XUuc44zPP8oexQMlsgGl-163" edge="1">
          <mxGeometry relative="1" as="geometry">
            <Array as="points">
              <mxPoint x="3972" y="2069" />
              <mxPoint x="3718" y="2069" />
              <mxPoint x="3718" y="2033" />
            </Array>
            <mxPoint x="3892" y="2033" as="targetPoint" />
          </mxGeometry>
        </mxCell>
        <mxCell id="XUuc44zPP8oexQMlsgGl-163" value="GameOverMenu" style="swimlane;fontStyle=1;align=center;verticalAlign=top;childLayout=stackLayout;horizontal=1;startSize=26;horizontalStack=0;resizeParent=1;resizeParentMax=0;resizeLast=0;collapsible=1;marginBottom=0;whiteSpace=wrap;html=1;fillColor=#e1d5e7;strokeColor=#9673a6;" parent="1" vertex="1">
          <mxGeometry x="3831" y="2096.5" width="282" height="144" as="geometry" />
        </mxCell>
        <mxCell id="XUuc44zPP8oexQMlsgGl-164" value="- newHighScore: boolean" style="text;strokeColor=none;fillColor=none;align=left;verticalAlign=top;spacingLeft=4;spacingRight=4;overflow=hidden;rotatable=0;points=[[0,0.5],[1,0.5]];portConstraint=eastwest;whiteSpace=wrap;html=1;" parent="XUuc44zPP8oexQMlsgGl-163" vertex="1">
          <mxGeometry y="26" width="282" height="26" as="geometry" />
        </mxCell>
        <mxCell id="XUuc44zPP8oexQMlsgGl-165" value="" style="line;strokeWidth=1;fillColor=none;align=left;verticalAlign=middle;spacingTop=-1;spacingLeft=3;spacingRight=3;rotatable=0;labelPosition=right;points=[];portConstraint=eastwest;strokeColor=inherit;" parent="XUuc44zPP8oexQMlsgGl-163" vertex="1">
          <mxGeometry y="52" width="282" height="8" as="geometry" />
        </mxCell>
        <mxCell id="XUuc44zPP8oexQMlsgGl-166" value="&lt;span class=&quot;hljs-bullet&quot;&gt;+&lt;/span&gt; isSelectedRestart(): boolean&lt;br/&gt;&lt;span class=&quot;hljs-bullet&quot;&gt;+&lt;/span&gt; isSelectedExit(): boolean&lt;br/&gt;&lt;span class=&quot;hljs-bullet&quot;&gt;+&lt;/span&gt; isSelectedExitToDesktop(): boolean&lt;br/&gt;&lt;span class=&quot;hljs-bullet&quot;&gt;+&lt;/span&gt; isNewHighScore(): boolean&lt;br/&gt;&lt;span class=&quot;hljs-section&quot;&gt;+ setNewHighScore(newHighScore: boolean): void&lt;/span&gt;" style="text;strokeColor=none;fillColor=none;align=left;verticalAlign=top;spacingLeft=4;spacingRight=4;overflow=hidden;rotatable=0;points=[[0,0.5],[1,0.5]];portConstraint=eastwest;whiteSpace=wrap;html=1;" parent="XUuc44zPP8oexQMlsgGl-163" vertex="1">
          <mxGeometry y="60" width="282" height="84" as="geometry" />
        </mxCell>
        <mxCell id="XUuc44zPP8oexQMlsgGl-167" value="Sound" style="swimlane;fontStyle=1;align=center;verticalAlign=top;childLayout=stackLayout;horizontal=1;startSize=26;horizontalStack=0;resizeParent=1;resizeParentMax=0;resizeLast=0;collapsible=1;marginBottom=0;whiteSpace=wrap;html=1;fillColor=#e1d5e7;strokeColor=#9673a6;" parent="1" vertex="1">
          <mxGeometry x="1299" y="3177" width="172" height="174" as="geometry" />
        </mxCell>
        <mxCell id="XUuc44zPP8oexQMlsgGl-168" value="- sound: Clip" style="text;strokeColor=none;fillColor=none;align=left;verticalAlign=top;spacingLeft=4;spacingRight=4;overflow=hidden;rotatable=0;points=[[0,0.5],[1,0.5]];portConstraint=eastwest;whiteSpace=wrap;html=1;" parent="XUuc44zPP8oexQMlsgGl-167" vertex="1">
          <mxGeometry y="26" width="172" height="26" as="geometry" />
        </mxCell>
        <mxCell id="XUuc44zPP8oexQMlsgGl-169" value="" style="line;strokeWidth=1;fillColor=none;align=left;verticalAlign=middle;spacingTop=-1;spacingLeft=3;spacingRight=3;rotatable=0;labelPosition=right;points=[];portConstraint=eastwest;strokeColor=inherit;" parent="XUuc44zPP8oexQMlsgGl-167" vertex="1">
          <mxGeometry y="52" width="172" height="8" as="geometry" />
        </mxCell>
        <mxCell id="XUuc44zPP8oexQMlsgGl-170" value="&lt;span class=&quot;hljs-bullet&quot;&gt;+&lt;/span&gt; play(): void&lt;br/&gt;&lt;span class=&quot;hljs-bullet&quot;&gt;+&lt;/span&gt; playContinuously(): void&lt;br/&gt;&lt;span class=&quot;hljs-bullet&quot;&gt;+&lt;/span&gt; stop(): void&lt;br/&gt;&lt;span class=&quot;hljs-bullet&quot;&gt;+&lt;/span&gt; resumePlaying(): void&lt;br/&gt;&lt;span class=&quot;hljs-bullet&quot;&gt;+&lt;/span&gt; isPlaying(): boolean&lt;br/&gt;&lt;span class=&quot;hljs-bullet&quot;&gt;+&lt;/span&gt; getSound(): Clip&lt;br/&gt;&lt;span class=&quot;hljs-section&quot;&gt;+ setSound(sound: Clip): void&lt;/span&gt;" style="text;strokeColor=none;fillColor=none;align=left;verticalAlign=top;spacingLeft=4;spacingRight=4;overflow=hidden;rotatable=0;points=[[0,0.5],[1,0.5]];portConstraint=eastwest;whiteSpace=wrap;html=1;" parent="XUuc44zPP8oexQMlsgGl-167" vertex="1">
          <mxGeometry y="60" width="172" height="114" as="geometry" />
        </mxCell>
        <mxCell id="XUuc44zPP8oexQMlsgGl-171" value="Â«enumÂ»&lt;br&gt;&lt;b&gt;SoundOption&lt;/b&gt;" style="html=1;whiteSpace=wrap;fillColor=#e1d5e7;strokeColor=#9673a6;" parent="1" vertex="1">
          <mxGeometry x="1496" y="3177" width="110" height="50" as="geometry" />
        </mxCell>
        <mxCell id="XUuc44zPP8oexQMlsgGl-172" value="Position" style="swimlane;fontStyle=1;align=center;verticalAlign=top;childLayout=stackLayout;horizontal=1;startSize=26;horizontalStack=0;resizeParent=1;resizeParentMax=0;resizeLast=0;collapsible=1;marginBottom=0;whiteSpace=wrap;html=1;fillColor=#e1d5e7;strokeColor=#9673a6;" parent="1" vertex="1">
          <mxGeometry x="2323" y="2274" width="193" height="159" as="geometry" />
        </mxCell>
        <mxCell id="XUuc44zPP8oexQMlsgGl-173" value="&lt;span class=&quot;hljs-section&quot;&gt;- x: int&lt;/span&gt;&lt;br&gt;&lt;span class=&quot;hljs-section&quot;&gt;- y: int&lt;/span&gt;" style="text;strokeColor=none;fillColor=none;align=left;verticalAlign=top;spacingLeft=4;spacingRight=4;overflow=hidden;rotatable=0;points=[[0,0.5],[1,0.5]];portConstraint=eastwest;whiteSpace=wrap;html=1;" parent="XUuc44zPP8oexQMlsgGl-172" vertex="1">
          <mxGeometry y="26" width="193" height="38" as="geometry" />
        </mxCell>
        <mxCell id="XUuc44zPP8oexQMlsgGl-174" value="" style="line;strokeWidth=1;fillColor=none;align=left;verticalAlign=middle;spacingTop=-1;spacingLeft=3;spacingRight=3;rotatable=0;labelPosition=right;points=[];portConstraint=eastwest;strokeColor=inherit;" parent="XUuc44zPP8oexQMlsgGl-172" vertex="1">
          <mxGeometry y="64" width="193" height="8" as="geometry" />
        </mxCell>
        <mxCell id="XUuc44zPP8oexQMlsgGl-175" value="&lt;span class=&quot;hljs-bullet&quot;&gt;+&lt;/span&gt; applyOffset(offset: int): Position&lt;br/&gt;&lt;span class=&quot;hljs-bullet&quot;&gt;+&lt;/span&gt; getX(): int&lt;br/&gt;&lt;span class=&quot;hljs-bullet&quot;&gt;+&lt;/span&gt; getY(): int&lt;br/&gt;&lt;span class=&quot;hljs-bullet&quot;&gt;+&lt;/span&gt; toString(): String&lt;br/&gt;&lt;span class=&quot;hljs-section&quot;&gt;+ equals(o: Object): boolean&lt;/span&gt;" style="text;strokeColor=none;fillColor=none;align=left;verticalAlign=top;spacingLeft=4;spacingRight=4;overflow=hidden;rotatable=0;points=[[0,0.5],[1,0.5]];portConstraint=eastwest;whiteSpace=wrap;html=1;" parent="XUuc44zPP8oexQMlsgGl-172" vertex="1">
          <mxGeometry y="72" width="193" height="87" as="geometry" />
        </mxCell>
        <mxCell id="XUuc44zPP8oexQMlsgGl-176" value="Vector" style="swimlane;fontStyle=1;align=center;verticalAlign=top;childLayout=stackLayout;horizontal=1;startSize=26;horizontalStack=0;resizeParent=1;resizeParentMax=0;resizeLast=0;collapsible=1;marginBottom=0;whiteSpace=wrap;html=1;fillColor=#e1d5e7;strokeColor=#9673a6;" parent="1" vertex="1">
          <mxGeometry x="2072.5" y="2370" width="193" height="229" as="geometry" />
        </mxCell>
        <mxCell id="XUuc44zPP8oexQMlsgGl-177" value="&lt;span class=&quot;hljs-section&quot;&gt;- x: double&lt;/span&gt;&lt;br&gt;&lt;span class=&quot;hljs-section&quot;&gt;- y: double&lt;/span&gt;" style="text;strokeColor=none;fillColor=none;align=left;verticalAlign=top;spacingLeft=4;spacingRight=4;overflow=hidden;rotatable=0;points=[[0,0.5],[1,0.5]];portConstraint=eastwest;whiteSpace=wrap;html=1;" parent="XUuc44zPP8oexQMlsgGl-176" vertex="1">
          <mxGeometry y="26" width="193" height="38" as="geometry" />
        </mxCell>
        <mxCell id="XUuc44zPP8oexQMlsgGl-178" value="" style="line;strokeWidth=1;fillColor=none;align=left;verticalAlign=middle;spacingTop=-1;spacingLeft=3;spacingRight=3;rotatable=0;labelPosition=right;points=[];portConstraint=eastwest;strokeColor=inherit;" parent="XUuc44zPP8oexQMlsgGl-176" vertex="1">
          <mxGeometry y="64" width="193" height="8" as="geometry" />
        </mxCell>
        <mxCell id="XUuc44zPP8oexQMlsgGl-179" value="&lt;span class=&quot;hljs-bullet&quot;&gt;+&lt;/span&gt; toPosition(): Position&lt;br/&gt;&lt;span class=&quot;hljs-bullet&quot;&gt;+&lt;/span&gt; getX(): double&lt;br/&gt;&lt;span class=&quot;hljs-bullet&quot;&gt;+&lt;/span&gt; setX(x: double): void&lt;br/&gt;&lt;span class=&quot;hljs-bullet&quot;&gt;+&lt;/span&gt; getY(): double&lt;br/&gt;&lt;span class=&quot;hljs-bullet&quot;&gt;+&lt;/span&gt; setY(y: double): void&lt;br/&gt;&lt;span class=&quot;hljs-bullet&quot;&gt;+&lt;/span&gt; add(vector: Vector): Vector&lt;br/&gt;&lt;span class=&quot;hljs-bullet&quot;&gt;+&lt;/span&gt; subtract(vector: Vector): Vector&lt;br/&gt;&lt;span class=&quot;hljs-bullet&quot;&gt;+&lt;/span&gt; toString(): String&lt;br/&gt;&lt;span class=&quot;hljs-bullet&quot;&gt;+&lt;/span&gt; equals(o: Object): boolean&lt;br/&gt;&lt;span class=&quot;hljs-section&quot;&gt;+ hashCode(): int&lt;/span&gt;" style="text;strokeColor=none;fillColor=none;align=left;verticalAlign=top;spacingLeft=4;spacingRight=4;overflow=hidden;rotatable=0;points=[[0,0.5],[1,0.5]];portConstraint=eastwest;whiteSpace=wrap;html=1;" parent="XUuc44zPP8oexQMlsgGl-176" vertex="1">
          <mxGeometry y="72" width="193" height="157" as="geometry" />
        </mxCell>
        <mxCell id="XUuc44zPP8oexQMlsgGl-180" value="State" style="swimlane;fontStyle=1;align=center;verticalAlign=top;childLayout=stackLayout;horizontal=1;startSize=26;horizontalStack=0;resizeParent=1;resizeParentMax=0;resizeLast=0;collapsible=1;marginBottom=0;whiteSpace=wrap;html=1;fillColor=#f8cecc;strokeColor=#b85450;" parent="1" vertex="1">
          <mxGeometry x="787" y="1579" width="261" height="243" as="geometry" />
        </mxCell>
        <mxCell id="XUuc44zPP8oexQMlsgGl-181" value="&lt;span class=&quot;hljs-section&quot;&gt;+ instance: State&lt;/span&gt;&lt;br&gt;&lt;span class=&quot;hljs-section&quot;&gt;- currentState: GameState&lt;/span&gt;&lt;br&gt;&lt;span class=&quot;hljs-section&quot;&gt;- previousState: GameState&lt;/span&gt;&lt;br&gt;&lt;span class=&quot;hljs-section&quot;&gt;- controller: Controller&amp;lt;?&amp;gt;&lt;/span&gt;&lt;br&gt;&lt;span class=&quot;hljs-section&quot;&gt;- viewer: Viewer&amp;lt;?&amp;gt;&lt;/span&gt;&lt;br&gt;&lt;span class=&quot;hljs-section&quot;&gt;- scene: Scene&lt;/span&gt;&lt;br&gt;&lt;span class=&quot;hljs-section&quot;&gt;- sceneController: SceneController&lt;/span&gt;" style="text;strokeColor=none;fillColor=none;align=left;verticalAlign=top;spacingLeft=4;spacingRight=4;overflow=hidden;rotatable=0;points=[[0,0.5],[1,0.5]];portConstraint=eastwest;whiteSpace=wrap;html=1;" parent="XUuc44zPP8oexQMlsgGl-180" vertex="1">
          <mxGeometry y="26" width="261" height="109" as="geometry" />
        </mxCell>
        <mxCell id="XUuc44zPP8oexQMlsgGl-182" value="" style="line;strokeWidth=1;fillColor=none;align=left;verticalAlign=middle;spacingTop=-1;spacingLeft=3;spacingRight=3;rotatable=0;labelPosition=right;points=[];portConstraint=eastwest;strokeColor=inherit;" parent="XUuc44zPP8oexQMlsgGl-180" vertex="1">
          <mxGeometry y="135" width="261" height="8" as="geometry" />
        </mxCell>
        <mxCell id="KIUF0ZJub0OMThAvWQ1f-42" style="edgeStyle=orthogonalEdgeStyle;rounded=0;orthogonalLoop=1;jettySize=auto;html=1;exitX=1;exitY=0.5;exitDx=0;exitDy=0;entryX=1.002;entryY=0.796;entryDx=0;entryDy=0;entryPerimeter=0;endArrow=open;endFill=0;" edge="1" parent="XUuc44zPP8oexQMlsgGl-180" source="XUuc44zPP8oexQMlsgGl-183" target="XUuc44zPP8oexQMlsgGl-183">
          <mxGeometry relative="1" as="geometry">
            <mxPoint x="276.605633802817" y="222.87323943661977" as="targetPoint" />
            <Array as="points">
              <mxPoint x="274" y="193" />
              <mxPoint x="274" y="223" />
            </Array>
          </mxGeometry>
        </mxCell>
        <mxCell id="XUuc44zPP8oexQMlsgGl-183" value="&lt;span class=&quot;hljs-bullet&quot;&gt;+&lt;/span&gt; getInstance(): State&lt;br/&gt;&lt;span class=&quot;hljs-bullet&quot;&gt;+&lt;/span&gt; updateState(newState: GameState): void&lt;br/&gt;&lt;span class=&quot;hljs-bullet&quot;&gt;+&lt;/span&gt; updateToPrevious(): void&lt;br/&gt;&lt;span class=&quot;hljs-bullet&quot;&gt;+&lt;/span&gt; step(gui: GUI, game: Game, time: long): void&lt;br/&gt;&lt;span class=&quot;hljs-bullet&quot;&gt;+&lt;/span&gt; stateActions(): void&lt;br/&gt;&lt;span class=&quot;hljs-section&quot;&gt;+ getCurrentState(): GameState&lt;/span&gt;" style="text;strokeColor=none;fillColor=none;align=left;verticalAlign=top;spacingLeft=4;spacingRight=4;overflow=hidden;rotatable=0;points=[[0,0.5],[1,0.5]];portConstraint=eastwest;whiteSpace=wrap;html=1;" parent="XUuc44zPP8oexQMlsgGl-180" vertex="1">
          <mxGeometry y="143" width="261" height="100" as="geometry" />
        </mxCell>
        <mxCell id="XUuc44zPP8oexQMlsgGl-184" value="Â«enumÂ»&lt;br&gt;&lt;b&gt;GameState&lt;/b&gt;" style="html=1;whiteSpace=wrap;fillColor=#f8cecc;strokeColor=#b85450;" parent="1" vertex="1">
          <mxGeometry x="635" y="1579" width="110" height="50" as="geometry" />
        </mxCell>
        <mxCell id="XUuc44zPP8oexQMlsgGl-185" value="&lt;i&gt;Viewer&amp;lt;T&amp;gt;&lt;/i&gt;" style="swimlane;fontStyle=1;align=center;verticalAlign=top;childLayout=stackLayout;horizontal=1;startSize=26;horizontalStack=0;resizeParent=1;resizeParentMax=0;resizeLast=0;collapsible=1;marginBottom=0;whiteSpace=wrap;html=1;fillColor=#dae8fc;strokeColor=#6c8ebf;" parent="1" vertex="1">
          <mxGeometry x="2349" y="1643" width="238" height="119" as="geometry" />
        </mxCell>
        <mxCell id="XUuc44zPP8oexQMlsgGl-186" value="# model: T" style="text;strokeColor=none;fillColor=none;align=left;verticalAlign=top;spacingLeft=4;spacingRight=4;overflow=hidden;rotatable=0;points=[[0,0.5],[1,0.5]];portConstraint=eastwest;whiteSpace=wrap;html=1;" parent="XUuc44zPP8oexQMlsgGl-185" vertex="1">
          <mxGeometry y="26" width="238" height="26" as="geometry" />
        </mxCell>
        <mxCell id="XUuc44zPP8oexQMlsgGl-187" value="" style="line;strokeWidth=1;fillColor=none;align=left;verticalAlign=middle;spacingTop=-1;spacingLeft=3;spacingRight=3;rotatable=0;labelPosition=right;points=[];portConstraint=eastwest;strokeColor=inherit;" parent="XUuc44zPP8oexQMlsgGl-185" vertex="1">
          <mxGeometry y="52" width="238" height="8" as="geometry" />
        </mxCell>
        <mxCell id="XUuc44zPP8oexQMlsgGl-188" value="&lt;span class=&quot;hljs-bullet&quot;&gt;+&lt;/span&gt; getModel(): T&lt;br&gt;&lt;span class=&quot;hljs-section&quot;&gt;+ draw(gui: GUI, time: long): void&lt;/span&gt;&lt;br&gt;&lt;span class=&quot;hljs-section&quot;&gt;+ &lt;i&gt;drawElements&lt;/i&gt;(gui: GUI, time: long): void&lt;/span&gt;" style="text;strokeColor=none;fillColor=none;align=left;verticalAlign=top;spacingLeft=4;spacingRight=4;overflow=hidden;rotatable=0;points=[[0,0.5],[1,0.5]];portConstraint=eastwest;whiteSpace=wrap;html=1;" parent="XUuc44zPP8oexQMlsgGl-185" vertex="1">
          <mxGeometry y="60" width="238" height="59" as="geometry" />
        </mxCell>
        <mxCell id="XUuc44zPP8oexQMlsgGl-193" value="&lt;b&gt;Theme&lt;/b&gt;" style="swimlane;fontStyle=0;childLayout=stackLayout;horizontal=1;startSize=26;fillColor=#dae8fc;horizontalStack=0;resizeParent=1;resizeParentMax=0;resizeLast=0;collapsible=1;marginBottom=0;whiteSpace=wrap;html=1;strokeColor=#6c8ebf;" parent="1" vertex="1">
          <mxGeometry x="2361.5" y="1498" width="213" height="124" as="geometry" />
        </mxCell>
        <mxCell id="XUuc44zPP8oexQMlsgGl-196" value="&lt;span class=&quot;hljs-addition&quot;&gt;+ FALLBOUND_RED: String&lt;/span&gt;&lt;br/&gt;&lt;span class=&quot;hljs-addition&quot;&gt;+ FALLBOUND_BLUE: String&lt;/span&gt;&lt;br/&gt;&lt;span class=&quot;hljs-addition&quot;&gt;+ FALLBOUND_GOLD: String&lt;/span&gt;&lt;br/&gt;&lt;span class=&quot;hljs-addition&quot;&gt;+ FALLBOUND_WHITE: String&lt;/span&gt;&lt;br/&gt;&lt;span class=&quot;hljs-addition&quot;&gt;+ FALLBOUND_LIGHT_GRAY: String&lt;/span&gt;&lt;br/&gt;&lt;span class=&quot;hljs-addition&quot;&gt;+ FALLBOUND_BLACK: String&lt;/span&gt;" style="text;strokeColor=none;fillColor=none;align=left;verticalAlign=top;spacingLeft=4;spacingRight=4;overflow=hidden;rotatable=0;points=[[0,0.5],[1,0.5]];portConstraint=eastwest;whiteSpace=wrap;html=1;" parent="XUuc44zPP8oexQMlsgGl-193" vertex="1">
          <mxGeometry y="26" width="213" height="98" as="geometry" />
        </mxCell>
        <mxCell id="XUuc44zPP8oexQMlsgGl-201" value="&lt;span style=&quot;font-weight: 400;&quot;&gt;Â«interfaceÂ»&lt;/span&gt;&lt;br style=&quot;font-weight: 400;&quot;&gt;&lt;b&gt;ElementViewer&lt;/b&gt;" style="swimlane;fontStyle=1;align=center;verticalAlign=top;childLayout=stackLayout;horizontal=1;startSize=39;horizontalStack=0;resizeParent=1;resizeParentMax=0;resizeLast=0;collapsible=1;marginBottom=0;whiteSpace=wrap;html=1;fillColor=#dae8fc;strokeColor=#6c8ebf;" parent="1" vertex="1">
          <mxGeometry x="3187" y="1693" width="249" height="65" as="geometry" />
        </mxCell>
        <mxCell id="XUuc44zPP8oexQMlsgGl-204" value="draw(gui: GUI, element: T, offset: int): void" style="text;strokeColor=none;fillColor=none;align=left;verticalAlign=top;spacingLeft=4;spacingRight=4;overflow=hidden;rotatable=0;points=[[0,0.5],[1,0.5]];portConstraint=eastwest;whiteSpace=wrap;html=1;" parent="XUuc44zPP8oexQMlsgGl-201" vertex="1">
          <mxGeometry y="39" width="249" height="26" as="geometry" />
        </mxCell>
        <mxCell id="KIUF0ZJub0OMThAvWQ1f-6" style="edgeStyle=orthogonalEdgeStyle;rounded=0;orthogonalLoop=1;jettySize=auto;html=1;exitX=1;exitY=0.25;exitDx=0;exitDy=0;endArrow=none;endFill=0;dashed=1;" edge="1" parent="1" source="XUuc44zPP8oexQMlsgGl-206">
          <mxGeometry relative="1" as="geometry">
            <mxPoint x="3408.375" y="1807" as="targetPoint" />
          </mxGeometry>
        </mxCell>
        <mxCell id="KIUF0ZJub0OMThAvWQ1f-18" style="edgeStyle=orthogonalEdgeStyle;rounded=0;orthogonalLoop=1;jettySize=auto;html=1;exitX=0;exitY=0.5;exitDx=0;exitDy=0;endArrow=open;endFill=0;entryX=0;entryY=0.5;entryDx=0;entryDy=0;endSize=9;" edge="1" parent="1" target="XUuc44zPP8oexQMlsgGl-206">
          <mxGeometry relative="1" as="geometry">
            <mxPoint x="2951.1428571428573" y="1820.1428571428573" as="sourcePoint" />
          </mxGeometry>
        </mxCell>
        <mxCell id="XUuc44zPP8oexQMlsgGl-206" value="PlayerViewer" style="swimlane;fontStyle=1;align=center;verticalAlign=top;childLayout=stackLayout;horizontal=1;startSize=26;horizontalStack=0;resizeParent=1;resizeParentMax=0;resizeLast=0;collapsible=1;marginBottom=0;whiteSpace=wrap;html=1;fillColor=#dae8fc;strokeColor=#6c8ebf;" parent="1" vertex="1">
          <mxGeometry x="3060" y="1794" width="276" height="52" as="geometry" />
        </mxCell>
        <mxCell id="XUuc44zPP8oexQMlsgGl-209" value="+ draw(gui: GUI, element: Player, offset: int): void" style="text;strokeColor=none;fillColor=none;align=left;verticalAlign=top;spacingLeft=4;spacingRight=4;overflow=hidden;rotatable=0;points=[[0,0.5],[1,0.5]];portConstraint=eastwest;whiteSpace=wrap;html=1;" parent="XUuc44zPP8oexQMlsgGl-206" vertex="1">
          <mxGeometry y="26" width="276" height="26" as="geometry" />
        </mxCell>
        <mxCell id="KIUF0ZJub0OMThAvWQ1f-7" style="edgeStyle=orthogonalEdgeStyle;rounded=0;orthogonalLoop=1;jettySize=auto;html=1;exitX=1;exitY=0.25;exitDx=0;exitDy=0;endArrow=none;endFill=0;dashed=1;" edge="1" parent="1" source="XUuc44zPP8oexQMlsgGl-210">
          <mxGeometry relative="1" as="geometry">
            <mxPoint x="3408.375" y="1865.75" as="targetPoint" />
          </mxGeometry>
        </mxCell>
        <mxCell id="KIUF0ZJub0OMThAvWQ1f-17" style="edgeStyle=orthogonalEdgeStyle;rounded=0;orthogonalLoop=1;jettySize=auto;html=1;exitX=0;exitY=0.5;exitDx=0;exitDy=0;endArrow=open;endFill=0;entryX=0;entryY=0.5;entryDx=0;entryDy=0;endSize=9;" edge="1" parent="1" target="XUuc44zPP8oexQMlsgGl-210">
          <mxGeometry relative="1" as="geometry">
            <mxPoint x="2950.7857142857147" y="1879.071428571429" as="sourcePoint" />
          </mxGeometry>
        </mxCell>
        <mxCell id="XUuc44zPP8oexQMlsgGl-210" value="CollectibleViewer" style="swimlane;fontStyle=1;align=center;verticalAlign=top;childLayout=stackLayout;horizontal=1;startSize=26;horizontalStack=0;resizeParent=1;resizeParentMax=0;resizeLast=0;collapsible=1;marginBottom=0;whiteSpace=wrap;html=1;fillColor=#dae8fc;strokeColor=#6c8ebf;" parent="1" vertex="1">
          <mxGeometry x="3039" y="1853" width="297" height="52" as="geometry" />
        </mxCell>
        <mxCell id="XUuc44zPP8oexQMlsgGl-211" value="+ draw(gui: GUI, element: Collectible, offset: int): void" style="text;strokeColor=none;fillColor=none;align=left;verticalAlign=top;spacingLeft=4;spacingRight=4;overflow=hidden;rotatable=0;points=[[0,0.5],[1,0.5]];portConstraint=eastwest;whiteSpace=wrap;html=1;" parent="XUuc44zPP8oexQMlsgGl-210" vertex="1">
          <mxGeometry y="26" width="297" height="26" as="geometry" />
        </mxCell>
        <mxCell id="KIUF0ZJub0OMThAvWQ1f-8" style="edgeStyle=orthogonalEdgeStyle;rounded=0;orthogonalLoop=1;jettySize=auto;html=1;exitX=1;exitY=0.25;exitDx=0;exitDy=0;endArrow=none;endFill=0;dashed=1;" edge="1" parent="1" source="XUuc44zPP8oexQMlsgGl-212">
          <mxGeometry relative="1" as="geometry">
            <mxPoint x="3408.375" y="1925.125" as="targetPoint" />
          </mxGeometry>
        </mxCell>
        <mxCell id="KIUF0ZJub0OMThAvWQ1f-16" style="edgeStyle=orthogonalEdgeStyle;rounded=0;orthogonalLoop=1;jettySize=auto;html=1;exitX=0;exitY=0.5;exitDx=0;exitDy=0;endArrow=open;endFill=0;entryX=0;entryY=0.5;entryDx=0;entryDy=0;endSize=9;" edge="1" parent="1" target="XUuc44zPP8oexQMlsgGl-212">
          <mxGeometry relative="1" as="geometry">
            <mxPoint x="2950.7857142857147" y="1938" as="sourcePoint" />
          </mxGeometry>
        </mxCell>
        <mxCell id="XUuc44zPP8oexQMlsgGl-212" value="BreakableWallViewer" style="swimlane;fontStyle=1;align=center;verticalAlign=top;childLayout=stackLayout;horizontal=1;startSize=26;horizontalStack=0;resizeParent=1;resizeParentMax=0;resizeLast=0;collapsible=1;marginBottom=0;whiteSpace=wrap;html=1;fillColor=#dae8fc;strokeColor=#6c8ebf;" parent="1" vertex="1">
          <mxGeometry x="3017" y="1912" width="319" height="52" as="geometry" />
        </mxCell>
        <mxCell id="XUuc44zPP8oexQMlsgGl-213" value="+ draw(gui: GUI, element: BreakableWall, offset: int): void" style="text;strokeColor=none;fillColor=none;align=left;verticalAlign=top;spacingLeft=4;spacingRight=4;overflow=hidden;rotatable=0;points=[[0,0.5],[1,0.5]];portConstraint=eastwest;whiteSpace=wrap;html=1;" parent="XUuc44zPP8oexQMlsgGl-212" vertex="1">
          <mxGeometry y="26" width="319" height="26" as="geometry" />
        </mxCell>
        <mxCell id="KIUF0ZJub0OMThAvWQ1f-9" style="edgeStyle=orthogonalEdgeStyle;rounded=0;orthogonalLoop=1;jettySize=auto;html=1;exitX=1;exitY=0.25;exitDx=0;exitDy=0;endArrow=none;endFill=0;dashed=1;" edge="1" parent="1" source="XUuc44zPP8oexQMlsgGl-214">
          <mxGeometry relative="1" as="geometry">
            <mxPoint x="3408.375" y="1983.25" as="targetPoint" />
          </mxGeometry>
        </mxCell>
        <mxCell id="KIUF0ZJub0OMThAvWQ1f-15" style="edgeStyle=orthogonalEdgeStyle;rounded=0;orthogonalLoop=1;jettySize=auto;html=1;exitX=0;exitY=0.5;exitDx=0;exitDy=0;endArrow=open;endFill=0;entryX=0;entryY=0.5;entryDx=0;entryDy=0;endSize=9;" edge="1" parent="1" target="XUuc44zPP8oexQMlsgGl-214">
          <mxGeometry relative="1" as="geometry">
            <mxPoint x="2950.871794871795" y="1996.2307692307695" as="sourcePoint" />
          </mxGeometry>
        </mxCell>
        <mxCell id="XUuc44zPP8oexQMlsgGl-214" value="WallViewer" style="swimlane;fontStyle=1;align=center;verticalAlign=top;childLayout=stackLayout;horizontal=1;startSize=26;horizontalStack=0;resizeParent=1;resizeParentMax=0;resizeLast=0;collapsible=1;marginBottom=0;whiteSpace=wrap;html=1;fillColor=#dae8fc;strokeColor=#6c8ebf;" parent="1" vertex="1">
          <mxGeometry x="3072" y="1970" width="264" height="52" as="geometry" />
        </mxCell>
        <mxCell id="XUuc44zPP8oexQMlsgGl-215" value="+ draw(gui: GUI, element: Wall, offset: int): void" style="text;strokeColor=none;fillColor=none;align=left;verticalAlign=top;spacingLeft=4;spacingRight=4;overflow=hidden;rotatable=0;points=[[0,0.5],[1,0.5]];portConstraint=eastwest;whiteSpace=wrap;html=1;" parent="XUuc44zPP8oexQMlsgGl-214" vertex="1">
          <mxGeometry y="26" width="264" height="26" as="geometry" />
        </mxCell>
        <mxCell id="KIUF0ZJub0OMThAvWQ1f-10" style="edgeStyle=orthogonalEdgeStyle;rounded=0;orthogonalLoop=1;jettySize=auto;html=1;exitX=1;exitY=0.25;exitDx=0;exitDy=0;endArrow=none;endFill=0;dashed=1;" edge="1" parent="1" source="XUuc44zPP8oexQMlsgGl-216">
          <mxGeometry relative="1" as="geometry">
            <mxPoint x="3409" y="2040.75" as="targetPoint" />
          </mxGeometry>
        </mxCell>
        <mxCell id="KIUF0ZJub0OMThAvWQ1f-14" style="edgeStyle=orthogonalEdgeStyle;rounded=0;orthogonalLoop=1;jettySize=auto;html=1;exitX=0;exitY=0.5;exitDx=0;exitDy=0;endArrow=open;endFill=0;entryX=0;entryY=0.5;entryDx=0;entryDy=0;endSize=9;" edge="1" parent="1" target="XUuc44zPP8oexQMlsgGl-216">
          <mxGeometry relative="1" as="geometry">
            <mxPoint x="2950.871794871795" y="2054.1794871794873" as="sourcePoint" />
          </mxGeometry>
        </mxCell>
        <mxCell id="XUuc44zPP8oexQMlsgGl-216" value="CoinViewer" style="swimlane;fontStyle=1;align=center;verticalAlign=top;childLayout=stackLayout;horizontal=1;startSize=26;horizontalStack=0;resizeParent=1;resizeParentMax=0;resizeLast=0;collapsible=1;marginBottom=0;whiteSpace=wrap;html=1;fillColor=#dae8fc;strokeColor=#6c8ebf;" parent="1" vertex="1">
          <mxGeometry x="3071" y="2028" width="265" height="52" as="geometry" />
        </mxCell>
        <mxCell id="XUuc44zPP8oexQMlsgGl-217" value="+ draw(gui: GUI, element: Coin, offset: int): void" style="text;strokeColor=none;fillColor=none;align=left;verticalAlign=top;spacingLeft=4;spacingRight=4;overflow=hidden;rotatable=0;points=[[0,0.5],[1,0.5]];portConstraint=eastwest;whiteSpace=wrap;html=1;" parent="XUuc44zPP8oexQMlsgGl-216" vertex="1">
          <mxGeometry y="26" width="265" height="26" as="geometry" />
        </mxCell>
        <mxCell id="KIUF0ZJub0OMThAvWQ1f-11" style="edgeStyle=orthogonalEdgeStyle;rounded=0;orthogonalLoop=1;jettySize=auto;html=1;exitX=1;exitY=0.25;exitDx=0;exitDy=0;endArrow=none;endFill=0;dashed=1;" edge="1" parent="1" source="XUuc44zPP8oexQMlsgGl-218">
          <mxGeometry relative="1" as="geometry">
            <mxPoint x="3409" y="2100.125" as="targetPoint" />
          </mxGeometry>
        </mxCell>
        <mxCell id="KIUF0ZJub0OMThAvWQ1f-13" style="edgeStyle=orthogonalEdgeStyle;rounded=0;orthogonalLoop=1;jettySize=auto;html=1;exitX=0;exitY=0.25;exitDx=0;exitDy=0;endArrow=open;endFill=0;entryX=0;entryY=0.25;entryDx=0;entryDy=0;endSize=9;" edge="1" parent="1" target="XUuc44zPP8oexQMlsgGl-218">
          <mxGeometry relative="1" as="geometry">
            <mxPoint x="2950.871794871795" y="2099.8205128205127" as="sourcePoint" />
          </mxGeometry>
        </mxCell>
        <mxCell id="XUuc44zPP8oexQMlsgGl-218" value="BulletViewer" style="swimlane;fontStyle=1;align=center;verticalAlign=top;childLayout=stackLayout;horizontal=1;startSize=26;horizontalStack=0;resizeParent=1;resizeParentMax=0;resizeLast=0;collapsible=1;marginBottom=0;whiteSpace=wrap;html=1;fillColor=#dae8fc;strokeColor=#6c8ebf;" parent="1" vertex="1">
          <mxGeometry x="3066" y="2087" width="270" height="52" as="geometry" />
        </mxCell>
        <mxCell id="XUuc44zPP8oexQMlsgGl-219" value="+ draw(gui: GUI, element: Bullet, offset: int): void" style="text;strokeColor=none;fillColor=none;align=left;verticalAlign=top;spacingLeft=4;spacingRight=4;overflow=hidden;rotatable=0;points=[[0,0.5],[1,0.5]];portConstraint=eastwest;whiteSpace=wrap;html=1;" parent="XUuc44zPP8oexQMlsgGl-218" vertex="1">
          <mxGeometry y="26" width="270" height="26" as="geometry" />
        </mxCell>
        <mxCell id="KIUF0ZJub0OMThAvWQ1f-28" style="edgeStyle=orthogonalEdgeStyle;rounded=0;orthogonalLoop=1;jettySize=auto;html=1;exitX=0.75;exitY=1;exitDx=0;exitDy=0;entryX=1;entryY=0.5;entryDx=0;entryDy=0;endArrow=none;endFill=0;startArrow=block;startFill=0;startSize=16;" edge="1" parent="1" source="XUuc44zPP8oexQMlsgGl-220" target="XUuc44zPP8oexQMlsgGl-227">
          <mxGeometry relative="1" as="geometry" />
        </mxCell>
        <mxCell id="XUuc44zPP8oexQMlsgGl-220" value="&lt;i&gt;EnemyViewer&lt;/i&gt;" style="swimlane;fontStyle=1;align=center;verticalAlign=top;childLayout=stackLayout;horizontal=1;startSize=26;horizontalStack=0;resizeParent=1;resizeParentMax=0;resizeLast=0;collapsible=1;marginBottom=0;whiteSpace=wrap;html=1;fillColor=#dae8fc;strokeColor=#6c8ebf;" parent="1" vertex="1">
          <mxGeometry x="3230" y="2145.5" width="106" height="52" as="geometry" />
        </mxCell>
        <mxCell id="XUuc44zPP8oexQMlsgGl-222" value="NormalEnemyViewer" style="swimlane;fontStyle=1;align=center;verticalAlign=top;childLayout=stackLayout;horizontal=1;startSize=26;horizontalStack=0;resizeParent=1;resizeParentMax=0;resizeLast=0;collapsible=1;marginBottom=0;whiteSpace=wrap;html=1;fillColor=#dae8fc;strokeColor=#6c8ebf;" parent="1" vertex="1">
          <mxGeometry x="3003" y="2212.5" width="270" height="52" as="geometry" />
        </mxCell>
        <mxCell id="KIUF0ZJub0OMThAvWQ1f-30" style="edgeStyle=orthogonalEdgeStyle;rounded=0;orthogonalLoop=1;jettySize=auto;html=1;exitX=1;exitY=0.5;exitDx=0;exitDy=0;endArrow=none;endFill=0;" edge="1" parent="XUuc44zPP8oexQMlsgGl-222" source="XUuc44zPP8oexQMlsgGl-223">
          <mxGeometry relative="1" as="geometry">
            <mxPoint x="305.92307692307713" y="39.03846153846143" as="targetPoint" />
          </mxGeometry>
        </mxCell>
        <mxCell id="KIUF0ZJub0OMThAvWQ1f-32" style="edgeStyle=orthogonalEdgeStyle;rounded=0;orthogonalLoop=1;jettySize=auto;html=1;exitX=0;exitY=0.5;exitDx=0;exitDy=0;endArrow=none;endFill=0;startArrow=open;startFill=0;startSize=10;" edge="1" parent="XUuc44zPP8oexQMlsgGl-222" source="XUuc44zPP8oexQMlsgGl-223">
          <mxGeometry relative="1" as="geometry">
            <mxPoint x="-52.186046511627865" y="38.941860465116406" as="targetPoint" />
          </mxGeometry>
        </mxCell>
        <mxCell id="XUuc44zPP8oexQMlsgGl-223" value="+ draw(gui: GUI, enemy: Enemy, offset: int): void" style="text;strokeColor=none;fillColor=none;align=left;verticalAlign=top;spacingLeft=4;spacingRight=4;overflow=hidden;rotatable=0;points=[[0,0.5],[1,0.5]];portConstraint=eastwest;whiteSpace=wrap;html=1;" parent="XUuc44zPP8oexQMlsgGl-222" vertex="1">
          <mxGeometry y="26" width="270" height="26" as="geometry" />
        </mxCell>
        <mxCell id="XUuc44zPP8oexQMlsgGl-224" value="SpikeEnemyViewer" style="swimlane;fontStyle=1;align=center;verticalAlign=top;childLayout=stackLayout;horizontal=1;startSize=26;horizontalStack=0;resizeParent=1;resizeParentMax=0;resizeLast=0;collapsible=1;marginBottom=0;whiteSpace=wrap;html=1;fillColor=#dae8fc;strokeColor=#6c8ebf;" parent="1" vertex="1">
          <mxGeometry x="3003" y="2271.5" width="270" height="52" as="geometry" />
        </mxCell>
        <mxCell id="KIUF0ZJub0OMThAvWQ1f-29" style="edgeStyle=orthogonalEdgeStyle;rounded=0;orthogonalLoop=1;jettySize=auto;html=1;exitX=1;exitY=0.5;exitDx=0;exitDy=0;endArrow=none;endFill=0;" edge="1" parent="XUuc44zPP8oexQMlsgGl-224" source="XUuc44zPP8oexQMlsgGl-225">
          <mxGeometry relative="1" as="geometry">
            <mxPoint x="306.3076923076924" y="38.884615384615245" as="targetPoint" />
          </mxGeometry>
        </mxCell>
        <mxCell id="KIUF0ZJub0OMThAvWQ1f-31" style="edgeStyle=orthogonalEdgeStyle;rounded=0;orthogonalLoop=1;jettySize=auto;html=1;exitX=0;exitY=0.5;exitDx=0;exitDy=0;endArrow=none;endFill=0;startArrow=open;startFill=0;startSize=10;" edge="1" parent="XUuc44zPP8oexQMlsgGl-224" source="XUuc44zPP8oexQMlsgGl-225">
          <mxGeometry relative="1" as="geometry">
            <mxPoint x="-52.186046511627865" y="39.01162790697708" as="targetPoint" />
          </mxGeometry>
        </mxCell>
        <mxCell id="XUuc44zPP8oexQMlsgGl-225" value="+ draw(gui: GUI, enemy: Enemy, offset: int): void" style="text;strokeColor=none;fillColor=none;align=left;verticalAlign=top;spacingLeft=4;spacingRight=4;overflow=hidden;rotatable=0;points=[[0,0.5],[1,0.5]];portConstraint=eastwest;whiteSpace=wrap;html=1;" parent="XUuc44zPP8oexQMlsgGl-224" vertex="1">
          <mxGeometry y="26" width="270" height="26" as="geometry" />
        </mxCell>
        <mxCell id="XUuc44zPP8oexQMlsgGl-226" value="ShellEnemyViewer" style="swimlane;fontStyle=1;align=center;verticalAlign=top;childLayout=stackLayout;horizontal=1;startSize=26;horizontalStack=0;resizeParent=1;resizeParentMax=0;resizeLast=0;collapsible=1;marginBottom=0;whiteSpace=wrap;html=1;fillColor=#dae8fc;strokeColor=#6c8ebf;" parent="1" vertex="1">
          <mxGeometry x="3003" y="2330.5" width="270" height="52" as="geometry" />
        </mxCell>
        <mxCell id="XUuc44zPP8oexQMlsgGl-227" value="+ draw(gui: GUI, enemy: Enemy, offset: int): void" style="text;strokeColor=none;fillColor=none;align=left;verticalAlign=top;spacingLeft=4;spacingRight=4;overflow=hidden;rotatable=0;points=[[0,0.5],[1,0.5]];portConstraint=eastwest;whiteSpace=wrap;html=1;" parent="XUuc44zPP8oexQMlsgGl-226" vertex="1">
          <mxGeometry y="26" width="270" height="26" as="geometry" />
        </mxCell>
        <mxCell id="qzSVktUEmLmq_NJ0nI1a-33" style="edgeStyle=orthogonalEdgeStyle;rounded=0;orthogonalLoop=1;jettySize=auto;html=1;exitX=0.5;exitY=0;exitDx=0;exitDy=0;endArrow=none;endFill=0;" parent="1" source="XUuc44zPP8oexQMlsgGl-228" edge="1">
          <mxGeometry relative="1" as="geometry">
            <mxPoint x="2790" y="1657" as="targetPoint" />
          </mxGeometry>
        </mxCell>
        <mxCell id="XUuc44zPP8oexQMlsgGl-228" value="SceneViewer" style="swimlane;fontStyle=1;align=center;verticalAlign=top;childLayout=stackLayout;horizontal=1;startSize=26;horizontalStack=0;resizeParent=1;resizeParentMax=0;resizeLast=0;collapsible=1;marginBottom=0;whiteSpace=wrap;html=1;fillColor=#dae8fc;strokeColor=#6c8ebf;" parent="1" vertex="1">
          <mxGeometry x="2662" y="1693" width="256" height="228" as="geometry" />
        </mxCell>
        <mxCell id="XUuc44zPP8oexQMlsgGl-229" value="- wallViewer: WallViewer&lt;br&gt;- breakableWallViewer: BreakableWallViewer&lt;br&gt;- playerViewer: PlayerViewer&lt;br&gt;- coinViewer: CoinViewer&lt;br&gt;- normalEnemyViewer: NormalEnemyViewer&lt;br&gt;- bulletViewer: BulletViewer&lt;br&gt;- shellEnemyViewer: ShellEnemyViewer&lt;br&gt;- spikeEnemyViewer: SpikeEnemyViewer&lt;br&gt;&lt;span class=&quot;hljs-section&quot;&gt;- collectibleViewer: CollectibleViewer&lt;/span&gt;" style="text;strokeColor=none;fillColor=none;align=left;verticalAlign=top;spacingLeft=4;spacingRight=4;overflow=hidden;rotatable=0;points=[[0,0.5],[1,0.5]];portConstraint=eastwest;whiteSpace=wrap;html=1;" parent="XUuc44zPP8oexQMlsgGl-228" vertex="1">
          <mxGeometry y="26" width="256" height="136" as="geometry" />
        </mxCell>
        <mxCell id="XUuc44zPP8oexQMlsgGl-230" value="" style="line;strokeWidth=1;fillColor=none;align=left;verticalAlign=middle;spacingTop=-1;spacingLeft=3;spacingRight=3;rotatable=0;labelPosition=right;points=[];portConstraint=eastwest;strokeColor=inherit;" parent="XUuc44zPP8oexQMlsgGl-228" vertex="1">
          <mxGeometry y="162" width="256" height="8" as="geometry" />
        </mxCell>
        <mxCell id="XUuc44zPP8oexQMlsgGl-231" value="- loadHighScore(): int&lt;br&gt;# drawElements(gui: GUI, time: long): void&lt;br&gt;&lt;span class=&quot;hljs-section&quot;&gt;# drawHud(gui: GUI): void&lt;/span&gt;" style="text;strokeColor=none;fillColor=none;align=left;verticalAlign=top;spacingLeft=4;spacingRight=4;overflow=hidden;rotatable=0;points=[[0,0.5],[1,0.5]];portConstraint=eastwest;whiteSpace=wrap;html=1;" parent="XUuc44zPP8oexQMlsgGl-228" vertex="1">
          <mxGeometry y="170" width="256" height="58" as="geometry" />
        </mxCell>
        <mxCell id="KIUF0ZJub0OMThAvWQ1f-20" style="edgeStyle=orthogonalEdgeStyle;rounded=0;orthogonalLoop=1;jettySize=auto;html=1;exitX=0.5;exitY=0;exitDx=0;exitDy=0;endArrow=none;endFill=0;" edge="1" parent="1" source="XUuc44zPP8oexQMlsgGl-232">
          <mxGeometry relative="1" as="geometry">
            <mxPoint x="3311" y="1656" as="targetPoint" />
            <Array as="points">
              <mxPoint x="3742" y="1656" />
              <mxPoint x="3311" y="1656" />
            </Array>
          </mxGeometry>
        </mxCell>
        <mxCell id="XUuc44zPP8oexQMlsgGl-232" value="&lt;i&gt;MenuViewer&lt;/i&gt;" style="swimlane;fontStyle=1;align=center;verticalAlign=top;childLayout=stackLayout;horizontal=1;startSize=26;horizontalStack=0;resizeParent=1;resizeParentMax=0;resizeLast=0;collapsible=1;marginBottom=0;whiteSpace=wrap;html=1;fillColor=#dae8fc;strokeColor=#6c8ebf;" parent="1" vertex="1">
          <mxGeometry x="3570" y="1682" width="343" height="100" as="geometry" />
        </mxCell>
        <mxCell id="XUuc44zPP8oexQMlsgGl-233" value="- position: Position" style="text;strokeColor=none;fillColor=none;align=left;verticalAlign=top;spacingLeft=4;spacingRight=4;overflow=hidden;rotatable=0;points=[[0,0.5],[1,0.5]];portConstraint=eastwest;whiteSpace=wrap;html=1;" parent="XUuc44zPP8oexQMlsgGl-232" vertex="1">
          <mxGeometry y="26" width="343" height="26" as="geometry" />
        </mxCell>
        <mxCell id="XUuc44zPP8oexQMlsgGl-234" value="" style="line;strokeWidth=1;fillColor=none;align=left;verticalAlign=middle;spacingTop=-1;spacingLeft=3;spacingRight=3;rotatable=0;labelPosition=right;points=[];portConstraint=eastwest;strokeColor=inherit;" parent="XUuc44zPP8oexQMlsgGl-232" vertex="1">
          <mxGeometry y="52" width="343" height="8" as="geometry" />
        </mxCell>
        <mxCell id="XUuc44zPP8oexQMlsgGl-235" value="# drawOptions(gui: GUI): void&lt;br&gt;&lt;span class=&quot;hljs-section&quot;&gt;+ drawMenuTitle(gui: GUI, title: String, position: Position): void&lt;/span&gt;" style="text;strokeColor=none;fillColor=none;align=left;verticalAlign=top;spacingLeft=4;spacingRight=4;overflow=hidden;rotatable=0;points=[[0,0.5],[1,0.5]];portConstraint=eastwest;whiteSpace=wrap;html=1;" parent="XUuc44zPP8oexQMlsgGl-232" vertex="1">
          <mxGeometry y="60" width="343" height="40" as="geometry" />
        </mxCell>
        <mxCell id="XUuc44zPP8oexQMlsgGl-236" value="StartMenuViewer" style="swimlane;fontStyle=1;align=center;verticalAlign=top;childLayout=stackLayout;horizontal=1;startSize=26;horizontalStack=0;resizeParent=1;resizeParentMax=0;resizeLast=0;collapsible=1;marginBottom=0;whiteSpace=wrap;html=1;fillColor=#dae8fc;strokeColor=#6c8ebf;" parent="1" vertex="1">
          <mxGeometry x="3568" y="1828" width="264" height="67" as="geometry" />
        </mxCell>
        <mxCell id="qzSVktUEmLmq_NJ0nI1a-47" style="edgeStyle=orthogonalEdgeStyle;rounded=0;orthogonalLoop=1;jettySize=auto;html=1;exitX=1;exitY=0.5;exitDx=0;exitDy=0;endArrow=none;endFill=0;" parent="XUuc44zPP8oexQMlsgGl-236" edge="1">
          <mxGeometry relative="1" as="geometry">
            <mxPoint x="294" y="26" as="targetPoint" />
            <mxPoint x="264" y="26.5" as="sourcePoint" />
            <Array as="points">
              <mxPoint x="286" y="27" />
            </Array>
          </mxGeometry>
        </mxCell>
        <mxCell id="XUuc44zPP8oexQMlsgGl-237" value="# drawBanner(gui: GUI, position: Position): void&lt;br&gt;&lt;span class=&quot;hljs-section&quot;&gt;+ drawElements(gui: GUI, time: long): void&lt;/span&gt;" style="text;strokeColor=none;fillColor=none;align=left;verticalAlign=top;spacingLeft=4;spacingRight=4;overflow=hidden;rotatable=0;points=[[0,0.5],[1,0.5]];portConstraint=eastwest;whiteSpace=wrap;html=1;" parent="XUuc44zPP8oexQMlsgGl-236" vertex="1">
          <mxGeometry y="26" width="264" height="41" as="geometry" />
        </mxCell>
        <mxCell id="qzSVktUEmLmq_NJ0nI1a-45" style="edgeStyle=orthogonalEdgeStyle;rounded=0;orthogonalLoop=1;jettySize=auto;html=1;exitX=1;exitY=0.5;exitDx=0;exitDy=0;endArrow=none;endFill=0;" parent="1" source="XUuc44zPP8oexQMlsgGl-238" edge="1">
          <mxGeometry relative="1" as="geometry">
            <mxPoint x="3861.5194805194806" y="1930.4285714285716" as="targetPoint" />
          </mxGeometry>
        </mxCell>
        <mxCell id="XUuc44zPP8oexQMlsgGl-238" value="PauseMenuViewer" style="swimlane;fontStyle=1;align=center;verticalAlign=top;childLayout=stackLayout;horizontal=1;startSize=26;horizontalStack=0;resizeParent=1;resizeParentMax=0;resizeLast=0;collapsible=1;marginBottom=0;whiteSpace=wrap;html=1;fillColor=#dae8fc;strokeColor=#6c8ebf;" parent="1" vertex="1">
          <mxGeometry x="3568" y="1905" width="240" height="51" as="geometry" />
        </mxCell>
        <mxCell id="XUuc44zPP8oexQMlsgGl-239" value="&lt;span class=&quot;hljs-section&quot;&gt;+ drawElements(gui: GUI, time: long): void&lt;/span&gt;" style="text;strokeColor=none;fillColor=none;align=left;verticalAlign=top;spacingLeft=4;spacingRight=4;overflow=hidden;rotatable=0;points=[[0,0.5],[1,0.5]];portConstraint=eastwest;whiteSpace=wrap;html=1;" parent="XUuc44zPP8oexQMlsgGl-238" vertex="1">
          <mxGeometry y="26" width="240" height="25" as="geometry" />
        </mxCell>
        <mxCell id="XUuc44zPP8oexQMlsgGl-240" value="GameOverMenuViewer" style="swimlane;fontStyle=1;align=center;verticalAlign=top;childLayout=stackLayout;horizontal=1;startSize=26;horizontalStack=0;resizeParent=1;resizeParentMax=0;resizeLast=0;collapsible=1;marginBottom=0;whiteSpace=wrap;html=1;fillColor=#dae8fc;strokeColor=#6c8ebf;" parent="1" vertex="1">
          <mxGeometry x="3568" y="1966" width="240" height="51" as="geometry" />
        </mxCell>
        <mxCell id="XUuc44zPP8oexQMlsgGl-241" value="&lt;span class=&quot;hljs-section&quot;&gt;+ drawElements(gui: GUI, time: long): void&lt;/span&gt;" style="text;strokeColor=none;fillColor=none;align=left;verticalAlign=top;spacingLeft=4;spacingRight=4;overflow=hidden;rotatable=0;points=[[0,0.5],[1,0.5]];portConstraint=eastwest;whiteSpace=wrap;html=1;" parent="XUuc44zPP8oexQMlsgGl-240" vertex="1">
          <mxGeometry y="26" width="240" height="25" as="geometry" />
        </mxCell>
        <mxCell id="XUuc44zPP8oexQMlsgGl-242" value="Game" style="swimlane;fontStyle=1;align=center;verticalAlign=top;childLayout=stackLayout;horizontal=1;startSize=26;horizontalStack=0;resizeParent=1;resizeParentMax=0;resizeLast=0;collapsible=1;marginBottom=0;whiteSpace=wrap;html=1;fillColor=#ffe6cc;strokeColor=#d79b00;" parent="1" vertex="1">
          <mxGeometry x="804" y="1372" width="227" height="115" as="geometry" />
        </mxCell>
        <mxCell id="XUuc44zPP8oexQMlsgGl-243" value="- gui: GUI&lt;br&gt;&lt;span class=&quot;hljs-section&quot;&gt;- state: State&lt;/span&gt;" style="text;strokeColor=none;fillColor=none;align=left;verticalAlign=top;spacingLeft=4;spacingRight=4;overflow=hidden;rotatable=0;points=[[0,0.5],[1,0.5]];portConstraint=eastwest;whiteSpace=wrap;html=1;" parent="XUuc44zPP8oexQMlsgGl-242" vertex="1">
          <mxGeometry y="26" width="227" height="38" as="geometry" />
        </mxCell>
        <mxCell id="XUuc44zPP8oexQMlsgGl-244" value="" style="line;strokeWidth=1;fillColor=none;align=left;verticalAlign=middle;spacingTop=-1;spacingLeft=3;spacingRight=3;rotatable=0;labelPosition=right;points=[];portConstraint=eastwest;strokeColor=inherit;" parent="XUuc44zPP8oexQMlsgGl-242" vertex="1">
          <mxGeometry y="64" width="227" height="8" as="geometry" />
        </mxCell>
        <mxCell id="XUuc44zPP8oexQMlsgGl-245" value="&lt;span class=&quot;hljs-bullet&quot;&gt;+&lt;/span&gt; setState(gameState: GameState): void&lt;br&gt;&lt;span class=&quot;hljs-section&quot;&gt;- startGame(): void&lt;/span&gt;" style="text;strokeColor=none;fillColor=none;align=left;verticalAlign=top;spacingLeft=4;spacingRight=4;overflow=hidden;rotatable=0;points=[[0,0.5],[1,0.5]];portConstraint=eastwest;whiteSpace=wrap;html=1;" parent="XUuc44zPP8oexQMlsgGl-242" vertex="1">
          <mxGeometry y="72" width="227" height="43" as="geometry" />
        </mxCell>
        <mxCell id="XUuc44zPP8oexQMlsgGl-247" value="" style="endArrow=block;html=1;rounded=0;entryX=0;entryY=0.105;entryDx=0;entryDy=0;exitX=0.999;exitY=0.069;exitDx=0;exitDy=0;exitPerimeter=0;entryPerimeter=0;dashed=1;endFill=0;strokeWidth=1;endSize=13;" parent="1" source="XUuc44zPP8oexQMlsgGl-73" target="XUuc44zPP8oexQMlsgGl-76" edge="1">
          <mxGeometry width="50" height="50" relative="1" as="geometry">
            <mxPoint x="1614" y="1553" as="sourcePoint" />
            <mxPoint x="1664" y="1503" as="targetPoint" />
          </mxGeometry>
        </mxCell>
        <mxCell id="XUuc44zPP8oexQMlsgGl-249" value="" style="endArrow=open;endFill=1;endSize=12;html=1;rounded=0;entryX=0;entryY=0.057;entryDx=0;entryDy=0;entryPerimeter=0;flowAnimation=0;shadow=0;metaEdit=0;" parent="1" target="XUuc44zPP8oexQMlsgGl-73" edge="1">
          <mxGeometry width="160" relative="1" as="geometry">
            <mxPoint x="1031" y="1386" as="sourcePoint" />
            <mxPoint x="1116" y="1386" as="targetPoint" />
          </mxGeometry>
        </mxCell>
        <mxCell id="XUuc44zPP8oexQMlsgGl-250" value="1" style="text;strokeColor=none;align=center;fillColor=none;html=1;verticalAlign=middle;whiteSpace=wrap;rounded=0;" parent="1" vertex="1">
          <mxGeometry x="1109" y="1367" width="6" height="12" as="geometry" />
        </mxCell>
        <mxCell id="XUuc44zPP8oexQMlsgGl-254" value="" style="endArrow=open;endFill=1;endSize=12;html=1;rounded=0;entryX=0.5;entryY=0;entryDx=0;entryDy=0;flowAnimation=0;shadow=0;metaEdit=0;exitX=0.5;exitY=1.002;exitDx=0;exitDy=0;exitPerimeter=0;" parent="1" source="XUuc44zPP8oexQMlsgGl-245" target="XUuc44zPP8oexQMlsgGl-180" edge="1">
          <mxGeometry width="160" relative="1" as="geometry">
            <mxPoint x="917" y="1524" as="sourcePoint" />
            <mxPoint x="1005" y="1524" as="targetPoint" />
          </mxGeometry>
        </mxCell>
        <mxCell id="XUuc44zPP8oexQMlsgGl-255" value="1" style="text;strokeColor=none;align=center;fillColor=none;html=1;verticalAlign=middle;whiteSpace=wrap;rounded=0;" parent="1" vertex="1">
          <mxGeometry x="927" y="1565" width="6" height="12" as="geometry" />
        </mxCell>
        <mxCell id="XUuc44zPP8oexQMlsgGl-257" value="" style="endArrow=open;endFill=1;endSize=12;html=1;rounded=0;entryX=0.5;entryY=0;entryDx=0;entryDy=0;flowAnimation=0;shadow=0;metaEdit=0;exitX=0;exitY=0.5;exitDx=0;exitDy=0;edgeStyle=orthogonalEdgeStyle;" parent="1" source="XUuc44zPP8oexQMlsgGl-183" target="XUuc44zPP8oexQMlsgGl-40" edge="1">
          <mxGeometry width="160" relative="1" as="geometry">
            <mxPoint x="918" y="1783" as="sourcePoint" />
            <mxPoint x="918" y="1875" as="targetPoint" />
          </mxGeometry>
        </mxCell>
        <mxCell id="XUuc44zPP8oexQMlsgGl-258" value="1" style="text;strokeColor=none;align=center;fillColor=none;html=1;verticalAlign=middle;whiteSpace=wrap;rounded=0;" parent="1" vertex="1">
          <mxGeometry x="527" y="1871" width="6" height="12" as="geometry" />
        </mxCell>
        <mxCell id="XUuc44zPP8oexQMlsgGl-259" value="" style="endArrow=open;endFill=1;endSize=12;html=1;rounded=0;entryX=-0.002;entryY=0.125;entryDx=0;entryDy=0;entryPerimeter=0;flowAnimation=0;shadow=0;metaEdit=0;" parent="1" target="XUuc44zPP8oexQMlsgGl-185" edge="1">
          <mxGeometry width="160" relative="1" as="geometry">
            <mxPoint x="1048" y="1658" as="sourcePoint" />
            <mxPoint x="1136" y="1658" as="targetPoint" />
          </mxGeometry>
        </mxCell>
        <mxCell id="XUuc44zPP8oexQMlsgGl-260" value="1" style="text;strokeColor=none;align=center;fillColor=none;html=1;verticalAlign=middle;whiteSpace=wrap;rounded=0;" parent="1" vertex="1">
          <mxGeometry x="2339" y="1638.5" width="6" height="12" as="geometry" />
        </mxCell>
        <mxCell id="XUuc44zPP8oexQMlsgGl-263" value="2" style="text;strokeColor=none;align=center;fillColor=none;html=1;verticalAlign=middle;whiteSpace=wrap;rounded=0;" parent="1" vertex="1">
          <mxGeometry x="748" y="1571" width="6" height="12" as="geometry" />
        </mxCell>
        <mxCell id="XUuc44zPP8oexQMlsgGl-262" value="" style="endArrow=open;endFill=1;endSize=12;html=1;rounded=0;entryX=-0.003;entryY=0.057;entryDx=0;entryDy=0;entryPerimeter=0;flowAnimation=0;shadow=0;metaEdit=0;exitX=-0.003;exitY=0.057;exitDx=0;exitDy=0;exitPerimeter=0;" parent="1" source="XUuc44zPP8oexQMlsgGl-180" edge="1">
          <mxGeometry width="160" relative="1" as="geometry">
            <mxPoint x="833" y="1593" as="sourcePoint" />
            <mxPoint x="745" y="1593" as="targetPoint" />
          </mxGeometry>
        </mxCell>
        <mxCell id="XUuc44zPP8oexQMlsgGl-265" value="" style="endArrow=block;html=1;rounded=0;entryX=0.5;entryY=1;entryDx=0;entryDy=0;endFill=0;strokeWidth=1;endSize=13;" parent="1" target="XUuc44zPP8oexQMlsgGl-1" edge="1">
          <mxGeometry width="50" height="50" relative="1" as="geometry">
            <mxPoint x="2205" y="1939" as="sourcePoint" />
            <mxPoint x="2365" y="1943" as="targetPoint" />
          </mxGeometry>
        </mxCell>
        <mxCell id="XUuc44zPP8oexQMlsgGl-267" value="" style="endArrow=none;html=1;rounded=0;edgeStyle=orthogonalEdgeStyle;exitX=0.5;exitY=0;exitDx=0;exitDy=0;" parent="1" source="XUuc44zPP8oexQMlsgGl-6" edge="1">
          <mxGeometry width="50" height="50" relative="1" as="geometry">
            <mxPoint x="2157" y="1967" as="sourcePoint" />
            <mxPoint x="2346" y="1940" as="targetPoint" />
            <Array as="points">
              <mxPoint x="2164" y="1940" />
              <mxPoint x="2346" y="1940" />
            </Array>
          </mxGeometry>
        </mxCell>
        <mxCell id="XUuc44zPP8oexQMlsgGl-268" value="" style="endArrow=none;html=1;rounded=0;entryX=0.5;entryY=0;entryDx=0;entryDy=0;edgeStyle=orthogonalEdgeStyle;" parent="1" target="XUuc44zPP8oexQMlsgGl-30" edge="1">
          <mxGeometry width="50" height="50" relative="1" as="geometry">
            <mxPoint x="2346" y="1940" as="sourcePoint" />
            <mxPoint x="2517.5" y="1931" as="targetPoint" />
            <Array as="points">
              <mxPoint x="2401" y="1940" />
              <mxPoint x="2401" y="1968" />
            </Array>
          </mxGeometry>
        </mxCell>
        <mxCell id="XUuc44zPP8oexQMlsgGl-270" value="" style="endArrow=none;html=1;rounded=0;exitX=0.5;exitY=0;exitDx=0;exitDy=0;edgeStyle=orthogonalEdgeStyle;" parent="1" source="XUuc44zPP8oexQMlsgGl-45" edge="1">
          <mxGeometry width="50" height="50" relative="1" as="geometry">
            <mxPoint x="443" y="2115" as="sourcePoint" />
            <mxPoint x="517" y="2032" as="targetPoint" />
            <Array as="points">
              <mxPoint x="386" y="2032" />
            </Array>
          </mxGeometry>
        </mxCell>
        <mxCell id="XUuc44zPP8oexQMlsgGl-272" value="" style="endArrow=none;html=1;rounded=0;exitX=0.5;exitY=0;exitDx=0;exitDy=0;edgeStyle=orthogonalEdgeStyle;" parent="1" source="XUuc44zPP8oexQMlsgGl-36" edge="1">
          <mxGeometry width="50" height="50" relative="1" as="geometry">
            <mxPoint x="387" y="2051" as="sourcePoint" />
            <mxPoint x="518" y="2032" as="targetPoint" />
            <Array as="points">
              <mxPoint x="683" y="2032" />
            </Array>
          </mxGeometry>
        </mxCell>
        <mxCell id="XUuc44zPP8oexQMlsgGl-273" value="" style="endArrow=open;endFill=1;endSize=12;html=1;rounded=0;entryX=0.167;entryY=0.001;entryDx=0;entryDy=0;flowAnimation=0;shadow=0;metaEdit=0;exitX=0.862;exitY=1.025;exitDx=0;exitDy=0;exitPerimeter=0;entryPerimeter=0;" parent="1" source="XUuc44zPP8oexQMlsgGl-39" target="XUuc44zPP8oexQMlsgGl-17" edge="1">
          <mxGeometry width="160" relative="1" as="geometry">
            <mxPoint x="679" y="2160" as="sourcePoint" />
            <mxPoint x="750" y="2160" as="targetPoint" />
          </mxGeometry>
        </mxCell>
        <mxCell id="XUuc44zPP8oexQMlsgGl-274" value="1" style="text;strokeColor=none;align=center;fillColor=none;html=1;verticalAlign=middle;whiteSpace=wrap;rounded=0;" parent="1" vertex="1">
          <mxGeometry x="800" y="2155" width="6" height="12" as="geometry" />
        </mxCell>
        <mxCell id="XUuc44zPP8oexQMlsgGl-276" value="" style="endArrow=block;html=1;rounded=0;entryX=0.521;entryY=0.988;entryDx=0;entryDy=0;entryPerimeter=0;endFill=0;endSize=13;exitX=0.5;exitY=0;exitDx=0;exitDy=0;" parent="1" source="XUuc44zPP8oexQMlsgGl-60" edge="1">
          <mxGeometry width="50" height="50" relative="1" as="geometry">
            <mxPoint x="387" y="2205" as="sourcePoint" />
            <mxPoint x="386" y="2103" as="targetPoint" />
          </mxGeometry>
        </mxCell>
        <mxCell id="XUuc44zPP8oexQMlsgGl-277" value="" style="endArrow=none;html=1;rounded=0;exitX=0.5;exitY=0;exitDx=0;exitDy=0;entryX=0.5;entryY=0;entryDx=0;entryDy=0;" parent="1" source="XUuc44zPP8oexQMlsgGl-50" target="XUuc44zPP8oexQMlsgGl-56" edge="1">
          <mxGeometry width="50" height="50" relative="1" as="geometry">
            <mxPoint x="106" y="2204" as="sourcePoint" />
            <mxPoint x="627" y="2206" as="targetPoint" />
            <Array as="points">
              <mxPoint x="212" y="2163" />
              <mxPoint x="561" y="2163" />
            </Array>
          </mxGeometry>
        </mxCell>
        <mxCell id="XUuc44zPP8oexQMlsgGl-279" value="" style="endArrow=none;html=1;rounded=0;exitX=0.5;exitY=0;exitDx=0;exitDy=0;edgeStyle=orthogonalEdgeStyle;" parent="1" source="XUuc44zPP8oexQMlsgGl-17" edge="1">
          <mxGeometry width="50" height="50" relative="1" as="geometry">
            <mxPoint x="1043" y="2051" as="sourcePoint" />
            <mxPoint x="683" y="2032" as="targetPoint" />
            <Array as="points">
              <mxPoint x="902" y="2032" />
            </Array>
          </mxGeometry>
        </mxCell>
        <mxCell id="XUuc44zPP8oexQMlsgGl-284" value="" style="endArrow=none;html=1;rounded=0;exitX=0.5;exitY=0;exitDx=0;exitDy=0;entryX=0.5;entryY=0;entryDx=0;entryDy=0;" parent="1" source="XUuc44zPP8oexQMlsgGl-106" target="XUuc44zPP8oexQMlsgGl-107" edge="1">
          <mxGeometry width="50" height="50" relative="1" as="geometry">
            <mxPoint x="1617" y="1909" as="sourcePoint" />
            <mxPoint x="1966" y="1909" as="targetPoint" />
            <Array as="points">
              <mxPoint x="1667" y="1868" />
              <mxPoint x="1917" y="1868" />
            </Array>
          </mxGeometry>
        </mxCell>
        <mxCell id="XUuc44zPP8oexQMlsgGl-285" value="" style="endArrow=none;html=1;rounded=0;" parent="1" edge="1">
          <mxGeometry width="50" height="50" relative="1" as="geometry">
            <mxPoint x="1554" y="2377" as="sourcePoint" />
            <mxPoint x="1554" y="1707" as="targetPoint" />
          </mxGeometry>
        </mxCell>
        <mxCell id="XUuc44zPP8oexQMlsgGl-286" value="" style="endArrow=open;html=1;rounded=0;entryX=0;entryY=0.084;entryDx=0;entryDy=0;entryPerimeter=0;endFill=0;endSize=10;" parent="1" target="XUuc44zPP8oexQMlsgGl-99" edge="1">
          <mxGeometry width="50" height="50" relative="1" as="geometry">
            <mxPoint x="1554" y="1707" as="sourcePoint" />
            <mxPoint x="1623" y="1713" as="targetPoint" />
          </mxGeometry>
        </mxCell>
        <mxCell id="XUuc44zPP8oexQMlsgGl-287" value="" style="endArrow=none;html=1;rounded=0;endFill=0;endSize=10;exitX=1.002;exitY=0.16;exitDx=0;exitDy=0;exitPerimeter=0;" parent="1" source="XUuc44zPP8oexQMlsgGl-81" edge="1">
          <mxGeometry width="50" height="50" relative="1" as="geometry">
            <mxPoint x="1374" y="2015" as="sourcePoint" />
            <mxPoint x="1555" y="2015.25" as="targetPoint" />
          </mxGeometry>
        </mxCell>
        <mxCell id="XUuc44zPP8oexQMlsgGl-288" value="" style="endArrow=open;html=1;rounded=0;endFill=0;endSize=10;entryX=0;entryY=0.5;entryDx=0;entryDy=0;" parent="1" target="XUuc44zPP8oexQMlsgGl-91" edge="1">
          <mxGeometry width="50" height="50" relative="1" as="geometry">
            <mxPoint x="1555" y="2182.75" as="sourcePoint" />
            <mxPoint x="1736" y="2183" as="targetPoint" />
          </mxGeometry>
        </mxCell>
        <mxCell id="XUuc44zPP8oexQMlsgGl-289" value="" style="endArrow=open;html=1;rounded=0;endFill=0;endSize=10;entryX=0;entryY=0.5;entryDx=0;entryDy=0;" parent="1" edge="1">
          <mxGeometry width="50" height="50" relative="1" as="geometry">
            <mxPoint x="1555" y="2249.75" as="sourcePoint" />
            <mxPoint x="1741" y="2250" as="targetPoint" />
          </mxGeometry>
        </mxCell>
        <mxCell id="XUuc44zPP8oexQMlsgGl-290" value="" style="endArrow=open;html=1;rounded=0;endFill=0;endSize=10;entryX=0;entryY=0.5;entryDx=0;entryDy=0;" parent="1" edge="1">
          <mxGeometry width="50" height="50" relative="1" as="geometry">
            <mxPoint x="1555" y="2315.75" as="sourcePoint" />
            <mxPoint x="1741" y="2316" as="targetPoint" />
          </mxGeometry>
        </mxCell>
        <mxCell id="XUuc44zPP8oexQMlsgGl-292" value="" style="endArrow=open;html=1;rounded=0;entryX=0;entryY=0.084;entryDx=0;entryDy=0;entryPerimeter=0;endFill=0;endSize=10;" parent="1" edge="1">
          <mxGeometry width="50" height="50" relative="1" as="geometry">
            <mxPoint x="1554" y="2377" as="sourcePoint" />
            <mxPoint x="1655" y="2377" as="targetPoint" />
          </mxGeometry>
        </mxCell>
        <mxCell id="XUuc44zPP8oexQMlsgGl-293" value="1" style="text;strokeColor=none;align=center;fillColor=none;html=1;verticalAlign=middle;whiteSpace=wrap;rounded=0;" parent="1" vertex="1">
          <mxGeometry x="1645" y="2355" width="6" height="12" as="geometry" />
        </mxCell>
        <mxCell id="XUuc44zPP8oexQMlsgGl-294" value="*" style="text;strokeColor=none;align=center;fillColor=none;html=1;verticalAlign=middle;whiteSpace=wrap;rounded=0;" parent="1" vertex="1">
          <mxGeometry x="1730" y="2299" width="6" height="12" as="geometry" />
        </mxCell>
        <mxCell id="XUuc44zPP8oexQMlsgGl-295" value="*" style="text;strokeColor=none;align=center;fillColor=none;html=1;verticalAlign=middle;whiteSpace=wrap;rounded=0;" parent="1" vertex="1">
          <mxGeometry x="1730" y="2234" width="6" height="12" as="geometry" />
        </mxCell>
        <mxCell id="XUuc44zPP8oexQMlsgGl-296" value="*" style="text;strokeColor=none;align=center;fillColor=none;html=1;verticalAlign=middle;whiteSpace=wrap;rounded=0;" parent="1" vertex="1">
          <mxGeometry x="1730" y="2167" width="6" height="12" as="geometry" />
        </mxCell>
        <mxCell id="XUuc44zPP8oexQMlsgGl-297" value="*" style="text;strokeColor=none;align=center;fillColor=none;html=1;verticalAlign=middle;whiteSpace=wrap;rounded=0;" parent="1" vertex="1">
          <mxGeometry x="1725" y="2096" width="6" height="12" as="geometry" />
        </mxCell>
        <mxCell id="XUuc44zPP8oexQMlsgGl-298" value="*" style="text;strokeColor=none;align=center;fillColor=none;html=1;verticalAlign=middle;whiteSpace=wrap;rounded=0;" parent="1" vertex="1">
          <mxGeometry x="1645" y="1693" width="6" height="12" as="geometry" />
        </mxCell>
        <mxCell id="XUuc44zPP8oexQMlsgGl-299" value="" style="endArrow=open;endFill=1;endSize=12;html=1;rounded=0;flowAnimation=0;shadow=0;metaEdit=0;entryX=-0.005;entryY=0.019;entryDx=0;entryDy=0;entryPerimeter=0;" parent="1" target="XUuc44zPP8oexQMlsgGl-78" edge="1">
          <mxGeometry width="160" relative="1" as="geometry">
            <mxPoint x="1048" y="1702" as="sourcePoint" />
            <mxPoint x="1130" y="1702" as="targetPoint" />
          </mxGeometry>
        </mxCell>
        <mxCell id="XUuc44zPP8oexQMlsgGl-300" value="" style="endArrow=open;endFill=1;endSize=12;html=1;rounded=0;flowAnimation=0;shadow=0;metaEdit=0;entryX=0.596;entryY=-0.003;entryDx=0;entryDy=0;entryPerimeter=0;exitX=0.501;exitY=1.01;exitDx=0;exitDy=0;exitPerimeter=0;edgeStyle=orthogonalEdgeStyle;" parent="1" source="XUuc44zPP8oexQMlsgGl-183" target="XUuc44zPP8oexQMlsgGl-36" edge="1">
          <mxGeometry width="160" relative="1" as="geometry">
            <mxPoint x="1048" y="1772" as="sourcePoint" />
            <mxPoint x="1109" y="1772" as="targetPoint" />
          </mxGeometry>
        </mxCell>
        <mxCell id="XUuc44zPP8oexQMlsgGl-302" value="1" style="text;strokeColor=none;align=center;fillColor=none;html=1;verticalAlign=middle;whiteSpace=wrap;rounded=0;" parent="1" vertex="1">
          <mxGeometry x="722" y="2037" width="6" height="12" as="geometry" />
        </mxCell>
        <mxCell id="XUuc44zPP8oexQMlsgGl-314" style="edgeStyle=orthogonalEdgeStyle;rounded=0;orthogonalLoop=1;jettySize=auto;html=1;entryX=0.25;entryY=0;entryDx=0;entryDy=0;endArrow=block;endFill=0;endSize=9;dashed=1;" parent="1" edge="1">
          <mxGeometry relative="1" as="geometry">
            <mxPoint x="1794" y="1944" as="sourcePoint" />
            <mxPoint x="1793" y="2009" as="targetPoint" />
            <Array as="points">
              <mxPoint x="1793" y="1944" />
            </Array>
          </mxGeometry>
        </mxCell>
        <mxCell id="XUuc44zPP8oexQMlsgGl-315" style="edgeStyle=orthogonalEdgeStyle;rounded=0;orthogonalLoop=1;jettySize=auto;html=1;entryX=0.25;entryY=0;entryDx=0;entryDy=0;endArrow=block;endFill=0;endSize=9;dashed=1;" parent="1" edge="1">
          <mxGeometry relative="1" as="geometry">
            <mxPoint x="1915" y="1944" as="sourcePoint" />
            <mxPoint x="1914" y="2008.9999999999995" as="targetPoint" />
            <Array as="points">
              <mxPoint x="1914" y="1944" />
            </Array>
          </mxGeometry>
        </mxCell>
        <mxCell id="XUuc44zPP8oexQMlsgGl-316" value="" style="endArrow=none;dashed=1;html=1;rounded=0;entryX=0.25;entryY=1;entryDx=0;entryDy=0;edgeStyle=orthogonalEdgeStyle;" parent="1" target="XUuc44zPP8oexQMlsgGl-108" edge="1">
          <mxGeometry width="50" height="50" relative="1" as="geometry">
            <mxPoint x="1678" y="1957" as="sourcePoint" />
            <mxPoint x="1758" y="1945" as="targetPoint" />
          </mxGeometry>
        </mxCell>
        <mxCell id="XUuc44zPP8oexQMlsgGl-317" value="" style="endArrow=none;dashed=1;html=1;rounded=0;exitX=0.75;exitY=1;exitDx=0;exitDy=0;edgeStyle=orthogonalEdgeStyle;" parent="1" source="XUuc44zPP8oexQMlsgGl-106" edge="1">
          <mxGeometry width="50" height="50" relative="1" as="geometry">
            <mxPoint x="1811" y="2034" as="sourcePoint" />
            <mxPoint x="1792" y="1971" as="targetPoint" />
            <Array as="points">
              <mxPoint x="1695" y="1971" />
            </Array>
          </mxGeometry>
        </mxCell>
        <mxCell id="XUuc44zPP8oexQMlsgGl-318" value="" style="endArrow=none;dashed=1;html=1;rounded=0;exitX=0.75;exitY=1;exitDx=0;exitDy=0;edgeStyle=orthogonalEdgeStyle;" parent="1" edge="1">
          <mxGeometry width="50" height="50" relative="1" as="geometry">
            <mxPoint x="1818" y="1944" as="sourcePoint" />
            <mxPoint x="1915" y="1971" as="targetPoint" />
            <Array as="points">
              <mxPoint x="1818" y="1971" />
            </Array>
          </mxGeometry>
        </mxCell>
        <mxCell id="XUuc44zPP8oexQMlsgGl-320" value="1" style="text;strokeColor=none;align=center;fillColor=none;html=1;verticalAlign=middle;whiteSpace=wrap;rounded=0;" parent="1" vertex="1">
          <mxGeometry x="2180" y="2354.5" width="6" height="12" as="geometry" />
        </mxCell>
        <mxCell id="XUuc44zPP8oexQMlsgGl-323" style="edgeStyle=orthogonalEdgeStyle;rounded=0;orthogonalLoop=1;jettySize=auto;html=1;exitX=0;exitY=0.5;exitDx=0;exitDy=0;entryX=1.001;entryY=0.083;entryDx=0;entryDy=0;entryPerimeter=0;endArrow=none;endFill=0;startArrow=block;startFill=0;endSize=10;startSize=15;" parent="1" source="XUuc44zPP8oexQMlsgGl-89" target="XUuc44zPP8oexQMlsgGl-99" edge="1">
          <mxGeometry relative="1" as="geometry" />
        </mxCell>
        <mxCell id="XUuc44zPP8oexQMlsgGl-328" style="edgeStyle=orthogonalEdgeStyle;rounded=0;orthogonalLoop=1;jettySize=auto;html=1;exitX=1;exitY=0.5;exitDx=0;exitDy=0;endArrow=none;endFill=0;" parent="1" edge="1">
          <mxGeometry relative="1" as="geometry">
            <mxPoint x="1994" y="2248" as="targetPoint" />
            <mxPoint x="1842" y="2316" as="sourcePoint" />
            <Array as="points">
              <mxPoint x="1842" y="2317" />
              <mxPoint x="1993" y="2317" />
              <mxPoint x="1993" y="2248" />
            </Array>
          </mxGeometry>
        </mxCell>
        <mxCell id="XUuc44zPP8oexQMlsgGl-330" style="edgeStyle=orthogonalEdgeStyle;rounded=0;orthogonalLoop=1;jettySize=auto;html=1;exitX=1.001;exitY=0.019;exitDx=0;exitDy=0;endArrow=none;endFill=0;exitPerimeter=0;" parent="1" source="XUuc44zPP8oexQMlsgGl-82" edge="1">
          <mxGeometry relative="1" as="geometry">
            <mxPoint x="1993" y="2316" as="targetPoint" />
            <mxPoint x="1842" y="2377" as="sourcePoint" />
          </mxGeometry>
        </mxCell>
        <mxCell id="XUuc44zPP8oexQMlsgGl-331" value="1" style="text;strokeColor=none;align=center;fillColor=none;html=1;verticalAlign=middle;whiteSpace=wrap;rounded=0;" parent="1" vertex="1">
          <mxGeometry x="1212" y="1681" width="6" height="12" as="geometry" />
        </mxCell>
        <mxCell id="XUuc44zPP8oexQMlsgGl-332" style="edgeStyle=orthogonalEdgeStyle;rounded=0;orthogonalLoop=1;jettySize=auto;html=1;exitX=1;exitY=0.5;exitDx=0;exitDy=0;endArrow=open;endFill=0;startSize=11;endSize=10;entryX=0.5;entryY=0;entryDx=0;entryDy=0;" parent="1" source="XUuc44zPP8oexQMlsgGl-100" target="XUuc44zPP8oexQMlsgGl-1" edge="1">
          <mxGeometry relative="1" as="geometry">
            <mxPoint x="2544.7058823529414" y="1739.8235294117649" as="targetPoint" />
            <Array as="points">
              <mxPoint x="2029" y="1740" />
              <mxPoint x="2205" y="1740" />
            </Array>
          </mxGeometry>
        </mxCell>
        <mxCell id="XUuc44zPP8oexQMlsgGl-333" value="1" style="text;strokeColor=none;align=center;fillColor=none;html=1;verticalAlign=middle;whiteSpace=wrap;rounded=0;" parent="1" vertex="1">
          <mxGeometry x="2217" y="1790.5" width="6" height="12" as="geometry" />
        </mxCell>
        <mxCell id="XUuc44zPP8oexQMlsgGl-336" value="" style="endArrow=none;html=1;rounded=0;" parent="1" edge="1">
          <mxGeometry width="50" height="50" relative="1" as="geometry">
            <mxPoint x="2036" y="2727" as="sourcePoint" />
            <mxPoint x="3086" y="2727" as="targetPoint" />
          </mxGeometry>
        </mxCell>
        <mxCell id="XUuc44zPP8oexQMlsgGl-343" style="edgeStyle=orthogonalEdgeStyle;rounded=0;orthogonalLoop=1;jettySize=auto;html=1;endArrow=block;endFill=0;startArrow=none;startFill=0;endSize=12;" parent="1" edge="1">
          <mxGeometry relative="1" as="geometry">
            <mxPoint x="2561.0281690140846" y="2687.154929577465" as="targetPoint" />
            <mxPoint x="2561" y="2727" as="sourcePoint" />
          </mxGeometry>
        </mxCell>
        <mxCell id="XUuc44zPP8oexQMlsgGl-345" style="edgeStyle=orthogonalEdgeStyle;rounded=0;orthogonalLoop=1;jettySize=auto;html=1;entryX=0.635;entryY=0.996;entryDx=0;entryDy=0;endArrow=open;endFill=0;dashed=1;entryPerimeter=0;" parent="1" target="XUuc44zPP8oexQMlsgGl-115" edge="1">
          <mxGeometry relative="1" as="geometry">
            <mxPoint x="2588" y="2918" as="sourcePoint" />
            <Array as="points">
              <mxPoint x="2588" y="2918" />
            </Array>
          </mxGeometry>
        </mxCell>
        <mxCell id="XUuc44zPP8oexQMlsgGl-346" value="uses" style="edgeLabel;html=1;align=center;verticalAlign=middle;resizable=0;points=[];" parent="XUuc44zPP8oexQMlsgGl-345" vertex="1" connectable="0">
          <mxGeometry x="-0.1597" relative="1" as="geometry">
            <mxPoint x="1" as="offset" />
          </mxGeometry>
        </mxCell>
        <mxCell id="qzSVktUEmLmq_NJ0nI1a-4" style="edgeStyle=orthogonalEdgeStyle;rounded=0;orthogonalLoop=1;jettySize=auto;html=1;exitX=0.5;exitY=0;exitDx=0;exitDy=0;entryX=0.281;entryY=0.999;entryDx=0;entryDy=0;entryPerimeter=0;endArrow=none;endFill=0;startArrow=open;startFill=0;" parent="1" source="XUuc44zPP8oexQMlsgGl-167" target="XUuc44zPP8oexQMlsgGl-72" edge="1">
          <mxGeometry relative="1" as="geometry" />
        </mxCell>
        <mxCell id="qzSVktUEmLmq_NJ0nI1a-5" value="1" style="text;strokeColor=none;align=center;fillColor=none;html=1;verticalAlign=middle;whiteSpace=wrap;rounded=0;" parent="1" vertex="1">
          <mxGeometry x="1609" y="2767" width="6" height="12" as="geometry" />
        </mxCell>
        <mxCell id="qzSVktUEmLmq_NJ0nI1a-6" value="1" style="text;strokeColor=none;align=center;fillColor=none;html=1;verticalAlign=middle;whiteSpace=wrap;rounded=0;" parent="1" vertex="1">
          <mxGeometry x="1392" y="3163" width="6" height="12" as="geometry" />
        </mxCell>
        <mxCell id="qzSVktUEmLmq_NJ0nI1a-8" style="edgeStyle=orthogonalEdgeStyle;rounded=0;orthogonalLoop=1;jettySize=auto;html=1;exitX=1;exitY=0.5;exitDx=0;exitDy=0;entryX=-0.004;entryY=0.791;entryDx=0;entryDy=0;entryPerimeter=0;endArrow=open;endFill=0;dashed=1;" parent="1" edge="1">
          <mxGeometry relative="1" as="geometry">
            <mxPoint x="1471" y="3203" as="sourcePoint" />
            <mxPoint x="1495.56" y="3203.55" as="targetPoint" />
          </mxGeometry>
        </mxCell>
        <mxCell id="qzSVktUEmLmq_NJ0nI1a-9" style="edgeStyle=orthogonalEdgeStyle;rounded=0;orthogonalLoop=1;jettySize=auto;html=1;exitX=1;exitY=0.5;exitDx=0;exitDy=0;entryX=-0.005;entryY=0.794;entryDx=0;entryDy=0;entryPerimeter=0;endArrow=open;endFill=0;dashed=1;" parent="1" source="XUuc44zPP8oexQMlsgGl-177" target="XUuc44zPP8oexQMlsgGl-175" edge="1">
          <mxGeometry relative="1" as="geometry" />
        </mxCell>
        <mxCell id="qzSVktUEmLmq_NJ0nI1a-1" style="edgeStyle=orthogonalEdgeStyle;rounded=0;orthogonalLoop=1;jettySize=auto;html=1;exitX=0.096;exitY=1;exitDx=0;exitDy=0;entryX=0.5;entryY=0.978;entryDx=0;entryDy=0;entryPerimeter=0;exitPerimeter=0;endArrow=open;endFill=0;dashed=1;" parent="1" source="XUuc44zPP8oexQMlsgGl-81" target="XUuc44zPP8oexQMlsgGl-137" edge="1">
          <mxGeometry relative="1" as="geometry">
            <Array as="points">
              <mxPoint x="1250" y="3403" />
              <mxPoint x="2563" y="3403" />
            </Array>
          </mxGeometry>
        </mxCell>
        <mxCell id="qzSVktUEmLmq_NJ0nI1a-10" style="edgeStyle=orthogonalEdgeStyle;rounded=0;orthogonalLoop=1;jettySize=auto;html=1;exitX=-0.001;exitY=0.309;exitDx=0;exitDy=0;entryX=1.001;entryY=0.044;entryDx=0;entryDy=0;entryPerimeter=0;exitPerimeter=0;dashed=1;endArrow=open;endFill=0;" parent="1" source="XUuc44zPP8oexQMlsgGl-83" target="XUuc44zPP8oexQMlsgGl-70" edge="1">
          <mxGeometry relative="1" as="geometry" />
        </mxCell>
        <mxCell id="qzSVktUEmLmq_NJ0nI1a-11" value="uses" style="edgeLabel;html=1;align=center;verticalAlign=middle;resizable=0;points=[];" parent="qzSVktUEmLmq_NJ0nI1a-10" vertex="1" connectable="0">
          <mxGeometry x="-0.1796" y="1" relative="1" as="geometry">
            <mxPoint as="offset" />
          </mxGeometry>
        </mxCell>
        <mxCell id="qzSVktUEmLmq_NJ0nI1a-31" style="edgeStyle=orthogonalEdgeStyle;rounded=0;orthogonalLoop=1;jettySize=auto;html=1;exitX=0.5;exitY=0;exitDx=0;exitDy=0;entryX=1.001;entryY=0.112;entryDx=0;entryDy=0;entryPerimeter=0;endArrow=block;endFill=0;endSize=16;" parent="1" source="XUuc44zPP8oexQMlsgGl-201" target="XUuc44zPP8oexQMlsgGl-185" edge="1">
          <mxGeometry relative="1" as="geometry" />
        </mxCell>
        <mxCell id="qzSVktUEmLmq_NJ0nI1a-34" style="edgeStyle=orthogonalEdgeStyle;rounded=0;orthogonalLoop=1;jettySize=auto;html=1;exitX=0.874;exitY=0.944;exitDx=0;exitDy=0;entryX=0.25;entryY=0;entryDx=0;entryDy=0;endArrow=open;endFill=0;dashed=1;exitPerimeter=0;" parent="1" source="XUuc44zPP8oexQMlsgGl-24" target="XUuc44zPP8oexQMlsgGl-69" edge="1">
          <mxGeometry relative="1" as="geometry">
            <Array as="points">
              <mxPoint x="1031" y="2571" />
              <mxPoint x="1376" y="2571" />
            </Array>
          </mxGeometry>
        </mxCell>
        <mxCell id="qzSVktUEmLmq_NJ0nI1a-35" value="uses" style="edgeLabel;html=1;align=center;verticalAlign=middle;resizable=0;points=[];" parent="qzSVktUEmLmq_NJ0nI1a-34" vertex="1" connectable="0">
          <mxGeometry x="0.4692" y="1" relative="1" as="geometry">
            <mxPoint y="31" as="offset" />
          </mxGeometry>
        </mxCell>
        <mxCell id="KIUF0ZJub0OMThAvWQ1f-53" value="uses" style="edgeLabel;html=1;align=center;verticalAlign=middle;resizable=0;points=[];" vertex="1" connectable="0" parent="qzSVktUEmLmq_NJ0nI1a-34">
          <mxGeometry x="0.2488" y="3" relative="1" as="geometry">
            <mxPoint as="offset" />
          </mxGeometry>
        </mxCell>
        <mxCell id="qzSVktUEmLmq_NJ0nI1a-43" style="edgeStyle=orthogonalEdgeStyle;rounded=0;orthogonalLoop=1;jettySize=auto;html=1;exitX=0.176;exitY=0.002;exitDx=0;exitDy=0;endArrow=open;endFill=0;dashed=1;exitPerimeter=0;" parent="1" source="XUuc44zPP8oexQMlsgGl-147" edge="1">
          <mxGeometry relative="1" as="geometry">
            <mxPoint x="3887" y="1783" as="targetPoint" />
          </mxGeometry>
        </mxCell>
        <mxCell id="qzSVktUEmLmq_NJ0nI1a-44" style="edgeStyle=orthogonalEdgeStyle;rounded=0;orthogonalLoop=1;jettySize=auto;html=1;exitX=1;exitY=0.5;exitDx=0;exitDy=0;entryX=0.851;entryY=0.997;entryDx=0;entryDy=0;entryPerimeter=0;endArrow=block;endFill=0;endSize=15;" parent="1" source="XUuc44zPP8oexQMlsgGl-240" target="XUuc44zPP8oexQMlsgGl-235" edge="1">
          <mxGeometry relative="1" as="geometry" />
        </mxCell>
        <mxCell id="KIUF0ZJub0OMThAvWQ1f-5" style="edgeStyle=orthogonalEdgeStyle;rounded=0;orthogonalLoop=1;jettySize=auto;html=1;exitX=1;exitY=0.5;exitDx=0;exitDy=0;entryX=0.892;entryY=0.962;entryDx=0;entryDy=0;entryPerimeter=0;endArrow=block;endFill=0;endSize=14;dashed=1;" edge="1" parent="1" source="XUuc44zPP8oexQMlsgGl-220" target="XUuc44zPP8oexQMlsgGl-204">
          <mxGeometry relative="1" as="geometry" />
        </mxCell>
        <mxCell id="KIUF0ZJub0OMThAvWQ1f-12" style="edgeStyle=orthogonalEdgeStyle;rounded=0;orthogonalLoop=1;jettySize=auto;html=1;exitX=1;exitY=0.5;exitDx=0;exitDy=0;endArrow=open;endFill=0;endSize=9;entryX=0;entryY=0.5;entryDx=0;entryDy=0;" edge="1" parent="1" source="XUuc44zPP8oexQMlsgGl-229" target="XUuc44zPP8oexQMlsgGl-227">
          <mxGeometry relative="1" as="geometry">
            <mxPoint x="2951" y="2137" as="targetPoint" />
            <Array as="points">
              <mxPoint x="2951" y="1787" />
              <mxPoint x="2951" y="2369" />
            </Array>
          </mxGeometry>
        </mxCell>
        <mxCell id="KIUF0ZJub0OMThAvWQ1f-21" value="1" style="text;strokeColor=none;align=center;fillColor=none;html=1;verticalAlign=middle;whiteSpace=wrap;rounded=0;" vertex="1" parent="1">
          <mxGeometry x="3050" y="1800.5" width="6" height="12" as="geometry" />
        </mxCell>
        <mxCell id="KIUF0ZJub0OMThAvWQ1f-22" value="1" style="text;strokeColor=none;align=center;fillColor=none;html=1;verticalAlign=middle;whiteSpace=wrap;rounded=0;" vertex="1" parent="1">
          <mxGeometry x="3030" y="1858.5" width="6" height="12" as="geometry" />
        </mxCell>
        <mxCell id="KIUF0ZJub0OMThAvWQ1f-23" value="1" style="text;strokeColor=none;align=center;fillColor=none;html=1;verticalAlign=middle;whiteSpace=wrap;rounded=0;" vertex="1" parent="1">
          <mxGeometry x="3007" y="1918.5" width="6" height="12" as="geometry" />
        </mxCell>
        <mxCell id="KIUF0ZJub0OMThAvWQ1f-24" value="1" style="text;strokeColor=none;align=center;fillColor=none;html=1;verticalAlign=middle;whiteSpace=wrap;rounded=0;" vertex="1" parent="1">
          <mxGeometry x="3062" y="1977.5" width="6" height="12" as="geometry" />
        </mxCell>
        <mxCell id="KIUF0ZJub0OMThAvWQ1f-25" value="1" style="text;strokeColor=none;align=center;fillColor=none;html=1;verticalAlign=middle;whiteSpace=wrap;rounded=0;" vertex="1" parent="1">
          <mxGeometry x="3061" y="2034.5" width="6" height="12" as="geometry" />
        </mxCell>
        <mxCell id="KIUF0ZJub0OMThAvWQ1f-26" value="1" style="text;strokeColor=none;align=center;fillColor=none;html=1;verticalAlign=middle;whiteSpace=wrap;rounded=0;" vertex="1" parent="1">
          <mxGeometry x="3056" y="2078.5" width="6" height="12" as="geometry" />
        </mxCell>
        <mxCell id="KIUF0ZJub0OMThAvWQ1f-33" value="1" style="text;strokeColor=none;align=center;fillColor=none;html=1;verticalAlign=middle;whiteSpace=wrap;rounded=0;" vertex="1" parent="1">
          <mxGeometry x="2992" y="2230.5" width="6" height="12" as="geometry" />
        </mxCell>
        <mxCell id="KIUF0ZJub0OMThAvWQ1f-34" value="1" style="text;strokeColor=none;align=center;fillColor=none;html=1;verticalAlign=middle;whiteSpace=wrap;rounded=0;" vertex="1" parent="1">
          <mxGeometry x="2992" y="2288.5" width="6" height="12" as="geometry" />
        </mxCell>
        <mxCell id="KIUF0ZJub0OMThAvWQ1f-35" value="1" style="text;strokeColor=none;align=center;fillColor=none;html=1;verticalAlign=middle;whiteSpace=wrap;rounded=0;" vertex="1" parent="1">
          <mxGeometry x="2992" y="2347.5" width="6" height="12" as="geometry" />
        </mxCell>
        <mxCell id="KIUF0ZJub0OMThAvWQ1f-49" style="edgeStyle=orthogonalEdgeStyle;rounded=0;orthogonalLoop=1;jettySize=auto;html=1;exitX=0;exitY=0.5;exitDx=0;exitDy=0;exitPerimeter=0;entryX=1;entryY=0.25;entryDx=0;entryDy=0;strokeColor=#CCCCCC;sketch=1;curveFitting=1;jiggle=2;curved=1;" edge="1" parent="1" source="KIUF0ZJub0OMThAvWQ1f-36" target="XUuc44zPP8oexQMlsgGl-134">
          <mxGeometry relative="1" as="geometry" />
        </mxCell>
        <mxCell id="KIUF0ZJub0OMThAvWQ1f-36" value="&lt;b style=&quot;&quot;&gt;&lt;font style=&quot;font-size: 20px;&quot; color=&quot;#ff250c&quot;&gt;Factory Method Pattern&lt;/font&gt;&lt;/b&gt;" style="shape=note;size=0;whiteSpace=wrap;html=1;fillColor=#2B2B2B;strokeColor=default;gradientColor=default;" vertex="1" parent="1">
          <mxGeometry x="2783" y="2940" width="223" height="100" as="geometry" />
        </mxCell>
        <mxCell id="KIUF0ZJub0OMThAvWQ1f-50" style="edgeStyle=orthogonalEdgeStyle;rounded=0;orthogonalLoop=1;jettySize=auto;html=1;exitX=0;exitY=0;exitDx=223;exitDy=50;exitPerimeter=0;entryX=0;entryY=0.5;entryDx=0;entryDy=0;curved=1;sketch=1;curveFitting=1;jiggle=2;strokeColor=#CCCCCC;" edge="1" parent="1" source="KIUF0ZJub0OMThAvWQ1f-38" target="XUuc44zPP8oexQMlsgGl-181">
          <mxGeometry relative="1" as="geometry" />
        </mxCell>
        <mxCell id="KIUF0ZJub0OMThAvWQ1f-38" value="&lt;b style=&quot;&quot;&gt;&lt;font style=&quot;font-size: 20px;&quot; color=&quot;#ff250c&quot;&gt;State Pattern&lt;/font&gt;&lt;/b&gt;" style="shape=note;size=0;whiteSpace=wrap;html=1;fillColor=#2B2B2B;strokeColor=default;gradientColor=default;" vertex="1" parent="1">
          <mxGeometry x="510" y="1652.5" width="223" height="100" as="geometry" />
        </mxCell>
        <mxCell id="KIUF0ZJub0OMThAvWQ1f-48" style="edgeStyle=orthogonalEdgeStyle;rounded=0;orthogonalLoop=1;jettySize=auto;html=1;exitX=0.5;exitY=1;exitDx=0;exitDy=0;exitPerimeter=0;entryX=0.25;entryY=0;entryDx=0;entryDy=0;curved=1;strokeColor=#CCCCCC;sketch=1;curveFitting=1;jiggle=2;" edge="1" parent="1" source="KIUF0ZJub0OMThAvWQ1f-39" target="XUuc44zPP8oexQMlsgGl-180">
          <mxGeometry relative="1" as="geometry" />
        </mxCell>
        <mxCell id="KIUF0ZJub0OMThAvWQ1f-39" value="&lt;b style=&quot;&quot;&gt;&lt;font style=&quot;font-size: 20px;&quot; color=&quot;#ff250c&quot;&gt;Game Loop Pattern&lt;/font&gt;&lt;/b&gt;" style="shape=note;size=0;whiteSpace=wrap;html=1;fillColor=#2B2B2B;strokeColor=default;gradientColor=default;" vertex="1" parent="1">
          <mxGeometry x="510" y="1372" width="223" height="100" as="geometry" />
        </mxCell>
        <mxCell id="KIUF0ZJub0OMThAvWQ1f-41" value="&lt;b style=&quot;&quot;&gt;&lt;font style=&quot;font-size: 20px;&quot; color=&quot;#ff250c&quot;&gt;Singleton Pattern&lt;/font&gt;&lt;/b&gt;" style="shape=note;size=0;whiteSpace=wrap;html=1;fillColor=#2B2B2B;strokeColor=default;gradientColor=default;" vertex="1" parent="1">
          <mxGeometry x="960" y="1968" width="223" height="100" as="geometry" />
        </mxCell>
        <mxCell id="KIUF0ZJub0OMThAvWQ1f-44" value="1" style="text;strokeColor=none;align=center;fillColor=none;html=1;verticalAlign=middle;whiteSpace=wrap;rounded=0;" vertex="1" parent="1">
          <mxGeometry x="1050" y="1784" width="6" height="12" as="geometry" />
        </mxCell>
        <mxCell id="KIUF0ZJub0OMThAvWQ1f-45" style="edgeStyle=orthogonalEdgeStyle;rounded=0;orthogonalLoop=1;jettySize=auto;html=1;exitX=0;exitY=0;exitDx=111.5;exitDy=0;exitPerimeter=0;entryX=0.751;entryY=1;entryDx=0;entryDy=0;entryPerimeter=0;curved=1;sketch=1;curveFitting=1;jiggle=2;strokeColor=#CCCCCC;" edge="1" parent="1" source="KIUF0ZJub0OMThAvWQ1f-41" target="XUuc44zPP8oexQMlsgGl-183">
          <mxGeometry relative="1" as="geometry" />
        </mxCell>
        <mxCell id="KIUF0ZJub0OMThAvWQ1f-47" style="edgeStyle=orthogonalEdgeStyle;rounded=0;orthogonalLoop=1;jettySize=auto;html=1;exitX=0;exitY=0;exitDx=222.99999999999997;exitDy=50;exitPerimeter=0;entryX=-0.004;entryY=0.146;entryDx=0;entryDy=0;entryPerimeter=0;curved=1;sketch=1;curveFitting=1;jiggle=2;strokeColor=#CCCCCC;" edge="1" parent="1" source="KIUF0ZJub0OMThAvWQ1f-39" target="XUuc44zPP8oexQMlsgGl-242">
          <mxGeometry relative="1" as="geometry" />
        </mxCell>
        <mxCell id="KIUF0ZJub0OMThAvWQ1f-52" style="edgeStyle=orthogonalEdgeStyle;rounded=0;orthogonalLoop=1;jettySize=auto;html=1;exitX=0.671;exitY=1.002;exitDx=0;exitDy=0;entryX=0;entryY=0.5;entryDx=0;entryDy=0;exitPerimeter=0;curved=1;sketch=1;curveFitting=1;jiggle=2;strokeColor=#CCCCCC;" edge="1" parent="1" source="KIUF0ZJub0OMThAvWQ1f-41" target="XUuc44zPP8oexQMlsgGl-70">
          <mxGeometry relative="1" as="geometry" />
        </mxCell>
        <mxCell id="qzSVktUEmLmq_NJ0nI1a-12" style="edgeStyle=orthogonalEdgeStyle;rounded=0;orthogonalLoop=1;jettySize=auto;html=1;exitX=0.849;exitY=1.001;exitDx=0;exitDy=0;entryX=0.548;entryY=0;entryDx=0;entryDy=0;entryPerimeter=0;exitPerimeter=0;dashed=1;endArrow=open;endFill=0;" parent="1" source="XUuc44zPP8oexQMlsgGl-81" edge="1" target="XUuc44zPP8oexQMlsgGl-69">
          <mxGeometry relative="1" as="geometry">
            <mxPoint x="1385" y="2459" as="sourcePoint" />
            <mxPoint x="1435" y="2459" as="targetPoint" />
            <Array as="points">
              <mxPoint x="1467" y="2534" />
            </Array>
          </mxGeometry>
        </mxCell>
        <mxCell id="qzSVktUEmLmq_NJ0nI1a-13" value="uses" style="edgeLabel;html=1;align=center;verticalAlign=middle;resizable=0;points=[];" parent="qzSVktUEmLmq_NJ0nI1a-12" vertex="1" connectable="0">
          <mxGeometry x="-0.1796" y="1" relative="1" as="geometry">
            <mxPoint as="offset" />
          </mxGeometry>
        </mxCell>
      </root>
    </mxGraphModel>
  </diagram>
</mxfile>
